<svg width="216" height="219" viewBox="0 0 216 219" fill="none" xmlns="http://www.w3.org/2000/svg">
<path d="M200.02 56.4522L176.648 89.3475L215.334 103.988L179.881 122.44L209.416 152.616L168.906 152.969L183.44 192.703L145.895 174.889L142.551 216.311L115.408 183.857L94.846 218.763L83.4807 178.097L49.7748 199.574L56.4384 158.75L16.2639 162.544L39.6367 129.649L0.950635 115.008L36.4033 96.5563L6.86797 66.3806L47.3786 66.027L32.8439 26.2931L70.389 44.1077L73.7336 2.68544L100.877 35.1398L121.438 0.233346L132.804 40.8995L166.51 19.4225L159.846 60.246L200.02 56.4522Z" fill="#C3E6F5"/>
</svg>
