<svg width="120" height="118" viewBox="0 0 120 118" fill="none" xmlns="http://www.w3.org/2000/svg">
<path d="M0 58.9999C1.33542 137.66 118.653 137.672 120 59.0023C118.665 -19.6605 1.3473 -19.6736 0 58.9999ZM87.5686 53.7368C84.9488 55.14 82.316 56.5218 79.6701 57.8752C76.4302 59.5332 73.1677 61.1486 69.8861 62.72C70.0715 62.7983 70.1784 62.9891 70.1297 63.2071C69.5166 65.9791 66.7508 67.6158 64.7179 69.4219C66.4003 69.7159 68.3749 68.8732 69.8529 68.3032C71.7669 67.5648 73.6334 66.5587 75.6258 66.0455C75.8599 65.9851 76.1866 66.1688 76.1522 66.4449C76.031 67.4072 75.3431 68.161 74.5779 68.7784C74.7704 68.9491 74.8227 69.2856 74.5316 69.4468C72.9645 70.3143 71.3962 71.1818 69.7602 71.9143C69.2695 72.1347 68.9083 71.5161 69.3408 71.1984C70.384 70.4329 71.559 69.8486 72.6425 69.1411C73.2615 68.7369 73.8734 68.3103 74.4128 67.8019C74.635 67.5933 74.8845 67.3468 75.0674 67.0695C73.2627 67.6454 71.5447 68.5485 69.7792 69.2134C68.0173 69.877 65.6541 70.7872 63.7853 70.0169C63.5084 69.9031 63.3576 69.5642 63.6023 69.3236C64.6253 68.3174 65.7943 67.4724 66.8553 66.5089C67.7903 65.6603 68.7456 64.6945 69.1792 63.4892C68.8679 63.4833 68.5567 63.4868 68.2454 63.4987C62.4819 66.2256 56.6543 68.8163 50.7602 71.2553C49.4996 71.7768 48.1285 70.6841 47.7638 69.5582C47.5749 68.974 47.7044 68.2072 48.0097 67.6857C48.359 67.0908 48.8521 66.823 49.4652 66.5693C49.8168 66.4236 50.1673 66.2778 50.519 66.132C50.7293 66.0443 50.9396 65.9566 51.1499 65.8677C51.1736 65.8583 51.195 65.8488 51.214 65.8405C51.8734 65.562 52.5328 65.2811 53.191 64.999C54.5169 64.4302 55.8405 63.853 57.1593 63.2676C60.6083 61.7376 64.0324 60.1542 67.4339 58.5223C68.2418 58.0044 69.0319 57.4699 69.7495 56.8335C67.8141 57.0279 65.944 58.0257 64.1821 58.7356C63.6855 58.9359 63.4716 58.1336 63.9611 57.9357C66.1127 57.0694 68.3951 55.8285 70.7867 55.9814C71.1491 56.0051 71.3309 56.4152 71.0802 56.6889C71.0445 56.728 71.0065 56.766 70.9709 56.8039C75.7256 54.4668 80.4376 52.0397 85.1068 49.5379C86.3092 48.8943 87.7028 49.2712 88.4394 50.4089C89.138 51.4886 88.6925 53.1347 87.5686 53.7368Z" fill="#E3D378"/>
<path d="M47.1775 79.2705C47.8523 79.5135 48.5652 79.6249 49.2709 79.7363C49.0143 79.7469 48.7588 79.7611 48.5022 79.7528C48.7577 79.728 49.0143 79.7327 49.2709 79.7363C48.7351 79.7564 48.2218 80.01 47.8749 80.4177" stroke="#826C47" stroke-miterlimit="10"/>
<path d="M45.1779 74.3481C45.4106 74.5615 45.7894 74.7381 45.8416 75.0817" stroke="#826C47" stroke-miterlimit="10"/>
<path d="M62.8636 93.0121C62.9456 93.4873 63.1998 92.7904 63.0489 93.2479C62.8981 93.7054 62.3195 95.3136 61.8608 95.4641C61.4011 95.6158 60.8842 95.4854 60.4732 95.2306C60.0609 94.9758 59.7342 94.6084 59.4169 94.2434C57.8831 92.4859 56.4027 90.6809 54.9794 88.8333C54.4364 88.1376 53.9089 87.3863 53.3826 86.6349C53.145 86.2948 52.9062 85.9558 52.6519 85.6275C52.4951 85.4249 52.33 85.2258 52.128 85.0693C51.9046 84.8963 51.642 84.7813 51.3819 84.6688L49.3716 83.7929L49.3502 83.7455C49.3265 83.7372 49.3027 83.729 49.2777 83.7171C49.2516 83.7041 49.2266 83.6887 49.2005 83.6733C48.9985 83.5867 48.8037 83.4896 48.6183 83.3781C48.3914 83.2774 48.1681 83.1672 47.978 82.9882C47.8188 82.8377 47.7463 82.5841 47.6631 82.372C47.5063 81.9311 47.8687 81.6882 47.953 81.2817C48.0124 81.0387 49.7542 79.6071 49.949 79.4625L47.3019 79.2539C47.1344 79.2243 47.2093 78.7668 47.0489 78.7005C46.5107 78.4812 46.1721 78.2288 45.843 77.7464C45.3558 77.0354 45.9606 74.8725 46.5701 74.7457L45.5103 73.813C44.3875 74.7409 42.5519 75.3406 41.1298 75.6618C40.5488 75.8301 39.9785 76.1252 39.3334 76.1643C38.1821 76.2342 34.3505 77.0662 33.3418 77.0401C30.368 76.9607 27.26 77.3411 24.3361 77.2629C26.1574 77.6018 28.6049 77.8341 30.5641 78.4196C31.0571 78.5665 31.549 78.7348 31.9862 79.0027C32.4234 79.2705 32.8096 79.6497 33.0044 80.1238C33.2491 80.7187 33.1731 81.3954 33.0258 82.0212C32.8868 82.6078 32.6468 83.2312 32.1169 83.5204C32.9189 83.3924 33.703 83.5595 34.4159 83.8451C35.3438 84.2184 36.2241 84.8382 36.6459 85.7437C37.0665 86.6491 36.899 87.8674 36.0828 88.4469C36.7493 88.5761 37.3445 88.6472 37.9374 88.7385C38.5861 88.8392 39.2645 88.9779 39.7635 89.4045C40.0938 89.6866 40.3183 90.0729 40.4775 90.4759C40.8019 91.2972 40.8732 92.2239 40.632 93.0737C40.3908 93.9234 39.8312 94.6878 39.0684 95.137C40.3884 96.7784 41.7571 98.2657 43.2208 99.6547C44.3305 100.707 45.5483 101.733 47.0263 102.135C48.4271 102.516 49.9193 102.294 51.3272 101.941C54.2749 101.2 57.0764 99.8822 59.5251 98.0844C60.6288 97.6305 61.7824 97.0936 62.4299 96.0898C63.0038 95.1951 63.081 94.0526 62.8636 93.0121Z" fill="#826C47"/>
<path d="M19.7545 71.1843C18.8302 70.5811 18.1601 72.2438 18.1625 73.1563C18.1636 73.7027 18.0033 74.7823 18.0947 75.3216C18.1625 75.7186 18.9062 76.3621 19.2519 76.5731C19.5311 76.7437 20.149 76.4546 20.4757 76.4546C25.7972 76.4546 31.1982 76.15 36.597 75.8525C37.9383 75.7707 39.2785 75.2742 40.6056 75.1059C39.9795 74.7029 39.6836 73.9136 39.711 73.1717C39.7371 72.4299 40.0401 71.7247 40.3929 71.0705C40.5058 70.8608 40.6282 70.651 40.76 70.4756C39.9711 70.6356 36.8013 70.6534 36.0255 70.6806C35.5407 70.6984 35.0572 70.715 34.4726 70.7257C30.2715 70.6889 25.7461 70.6249 21.5497 70.8276C20.8547 70.8608 20.4864 71.1618 19.7913 71.195C19.7212 71.1985 19.6464 71.2033 19.5906 71.2447C19.5347 71.2862 19.5121 71.3798 19.7545 71.1843Z" fill="#826C47"/>
<path d="M44.7154 72.681C44.7772 72.4025 44.4279 71.5823 44.2889 71.3346C44.0881 70.9767 43.8113 70.6425 43.437 70.4731C42.8145 70.1934 41.9614 70.3285 41.4719 70.8037C40.9824 71.2789 40.5631 71.8751 40.3504 72.5233C40.272 72.7615 40.4419 73.1906 40.4811 73.4382C40.5227 73.7049 40.6058 74.192 40.828 74.3461C41.0502 74.5001 41.3496 74.7134 41.6193 74.7407C42.0197 74.781 42.6767 74.4741 43.0367 74.2939C43.4442 74.0901 43.6842 72.8753 43.4798 72.617C43.3646 72.4712 42.6173 72.4404 42.4462 72.5138C42.7028 72.5767 42.9072 72.8125 42.9321 73.0744C42.9571 73.3363 42.7123 73.2806 42.4723 73.3908C42.1503 73.5378 41.8426 73.7156 41.605 73.4537C41.3674 73.1929 41.2557 72.8433 41.1666 72.502C41.1464 72.425 41.3638 72.3752 41.3709 72.2958C41.3816 72.1642 41.2224 72.0185 41.3068 71.9165C41.5313 71.6428 41.8189 71.4058 42.1598 71.3121C42.5293 71.2102 42.925 71.2825 43.2897 71.3975C43.7638 71.5468 44.258 72.2531 44.4291 72.7189C44.4576 72.649 44.7226 72.6679 44.7154 72.681Z" fill="#826C47"/>
<path d="M42.4067 24.3705C44.1402 26.3591 45.9021 30.4584 47.5845 32.8832C48.5944 34.3374 50.032 34.6206 50.1424 35.0757C49.9428 33.9332 50.4015 32.7493 51.3068 32.0228C51.5503 31.8273 51.6739 31.128 51.9697 31.2264C51.5111 30.8792 50.7745 30.0721 50.4228 29.617C48.8403 27.562 47.4514 25.424 46.1766 23.1664C45.9093 22.6935 45.4661 22.2574 45.0384 21.922C44.6107 21.5866 43.9679 21.4539 43.5236 21.7679C43.3572 21.8852 43.2337 22.0535 43.1244 22.2254C42.9069 22.5655 42.7311 22.9329 42.6028 23.3157C42.5137 23.5764 42.3889 24.585 42.4067 24.3705Z" fill="#ACA79E"/>
<path d="M45.9141 21.2805C46.425 21.7984 46.9358 22.3175 47.398 22.8792C47.8839 23.4706 48.3117 24.107 48.7382 24.741C49.7623 26.2639 50.7876 27.7868 51.8118 29.3097C51.7821 28.1637 52.3488 27.0189 53.2791 26.3457C52.4284 25.2092 51.6169 24.0442 50.847 22.852C50.0106 21.559 49.2122 20.2198 48.1144 19.139C47.9433 18.9707 47.7461 18.8 47.5061 18.787C47.316 18.7763 47.1366 18.8687 46.9786 18.9742C46.5129 19.2835 46.1422 19.7327 45.9248 20.2471C45.8428 20.4426 45.781 20.6524 45.7953 20.8645C45.8095 21.0766 45.9081 21.2923 45.9141 21.2805Z" fill="#ACA79E"/>
<path d="M40.6898 29.7382C40.4558 30.582 40.312 31.491 40.5829 32.323C40.7112 32.7164 40.9275 33.0755 41.1532 33.424C41.7425 34.333 42.4102 35.191 42.9864 36.1095C43.4771 36.8928 43.8989 37.7177 44.3587 38.52C45.0323 39.6957 45.7891 40.8239 46.6208 41.8941C47.0984 41.6013 47.7067 41.0562 47.8243 40.3024C46.679 38.9775 45.8022 37.4475 44.9325 35.927C43.9428 34.1955 42.952 32.464 41.9623 30.7314C41.695 30.2632 41.3706 29.7513 40.8443 29.6268C40.7801 29.6114 40.7077 29.6043 40.6495 29.6363C40.5912 29.6695 40.5615 29.756 40.6898 29.7382Z" fill="#ACA79E"/>
<path d="M40.9258 28.1396C40.8486 27.2638 41.1468 26.3607 41.7302 25.7018C41.8751 25.5382 42.07 25.3771 42.2862 25.4079C42.4418 25.4292 42.5666 25.5453 42.6711 25.6639C42.9598 25.9921 43.1737 26.3773 43.3852 26.7601C45.2861 30.2088 47.1241 33.7464 49.7546 36.6808C48.9585 37.1229 48.3918 37.9513 48.2671 38.8508C47.3606 37.5898 46.6786 36.1866 45.9384 34.8225C45.3099 33.6635 44.6374 32.5281 43.965 31.3928C43.4101 30.4565 42.8517 29.5143 42.1318 28.6978C41.7979 28.3197 41.3298 27.9393 40.9258 28.1396Z" fill="#ACA79E"/>
<path d="M54.9519 29.414C54.8795 29.7494 54.5088 29.9876 54.1725 29.9153C53.784 29.8324 53.5464 29.382 53.6213 28.9921C53.6961 28.6022 54.0217 28.2941 54.3923 28.1507C54.6917 28.0345 55.0387 28.0108 55.3333 28.14C55.565 28.2419 55.7503 28.4292 55.887 28.6401C56.304 29.2825 56.2731 30.1832 55.8145 30.7959C56.0794 30.5032 56.3123 30.1749 56.4537 29.8051C56.5939 29.4365 56.639 29.0229 56.5309 28.6437C56.4074 28.2111 56.0878 27.8437 55.6886 27.6316C55.2905 27.4206 54.8189 27.359 54.3733 27.4301C54.1987 27.4574 54.0252 27.506 53.8684 27.5877C53.4965 27.7833 53.2423 28.1673 53.1579 28.5785C53.0736 28.9897 53.1472 29.4223 53.3147 29.8075C53.4514 30.1227 53.6712 30.4273 53.9955 30.5434C54.3068 30.6548 54.6811 30.5589 54.8985 30.3112C55.1159 30.0635 55.1634 29.6807 55.0125 29.3879C54.9852 29.4282 54.9579 29.4662 54.9519 29.414Z" fill="#ACA79E"/>
<path d="M52.8132 34.7978C52.654 34.9388 52.4437 35.0289 52.231 35.0206C52.0184 35.0135 51.8057 34.8997 51.7023 34.7137C51.5693 34.4731 51.6382 34.1602 51.8045 33.9398C52.035 33.6364 52.4342 33.4776 52.8144 33.5131C53.1946 33.5487 53.5475 33.7679 53.7708 34.0761C53.9942 34.3842 54.0928 34.7753 54.0702 35.1557C54.0643 35.2612 54.0488 35.369 54.0001 35.4638C53.9514 35.5586 53.8659 35.6392 53.7613 35.6594C54.0227 35.6428 54.233 35.4378 54.3744 35.2185C54.7094 34.6959 54.7759 33.9883 54.4635 33.4515C54.29 33.1528 54.0096 32.9194 53.6912 32.7843C53.3716 32.6492 53.0152 32.6112 52.6718 32.6575C52.4853 32.6823 52.3023 32.7321 52.1336 32.8163C51.5835 33.09 51.2616 33.7324 51.3115 34.3439C51.334 34.6224 51.4267 34.895 51.5776 35.1296C51.675 35.2801 51.7974 35.4188 51.953 35.5089C52.1087 35.5989 52.2988 35.6381 52.4722 35.5895C52.6754 35.5326 52.8334 35.3631 52.913 35.1676C52.9926 34.9732 53.0009 34.7551 52.9784 34.5465C52.9439 34.6212 52.9403 34.7065 52.9094 34.7812C52.8762 34.857 52.7954 34.9258 52.8132 34.7978Z" fill="#ACA79E"/>
<path d="M52.2765 39.1273C52.2789 38.8631 52.4132 38.6059 52.3811 38.344C52.3466 38.0572 52.1102 37.8225 51.8393 37.723C51.5672 37.6222 51.2667 37.6364 50.9815 37.6886C50.6085 37.7573 50.2378 37.8936 49.955 38.1449C49.7851 38.2966 49.6473 38.4909 49.5926 38.7125C49.5415 38.9176 49.5617 39.1345 49.6152 39.3395C49.6508 39.4758 49.7019 39.6097 49.791 39.7187C49.9015 39.8515 50.0619 39.9344 50.2271 39.983C50.4481 40.047 50.6952 40.0541 50.9019 39.951C51.1086 39.8479 51.2595 39.6204 51.2286 39.3928C51.1977 39.1653 50.9494 38.978 50.7296 39.0468C50.8354 39.0551 50.9387 39.1167 50.9851 39.2115C51.0469 39.3383 50.9922 39.5018 50.8782 39.586C50.7641 39.6701 50.6073 39.6784 50.4742 39.6298C50.3411 39.5812 50.233 39.4829 50.1487 39.3703C50.05 39.2364 49.98 39.074 49.9942 38.9081C50.0132 38.6865 50.1784 38.5004 50.3696 38.3866C50.511 38.3025 50.6726 38.248 50.8378 38.2432C51.1478 38.2349 51.4413 38.4032 51.6528 38.6308C51.8631 38.8583 52.0045 39.1392 52.1399 39.4177C52.1922 39.2577 52.2468 39.1001 52.2765 39.1273Z" fill="#ACA79E"/>
<path d="M48.1866 43.4319C48.1177 43.074 48.3494 42.6936 48.688 42.5561C49.0266 42.4186 49.4353 42.5111 49.7085 42.7517C49.9818 42.9922 50.1232 43.3632 50.1232 43.727C50.1232 44.0411 50.0151 44.3646 49.787 44.5803C49.5577 44.796 49.1989 44.8837 48.9137 44.7498C48.6345 44.6194 48.4705 44.2828 48.5395 43.983C48.5775 43.8195 48.6963 43.6595 48.8626 43.6334C49.0289 43.6073 49.2119 43.7792 49.1513 43.9356C49.3117 43.8052 49.2678 43.5208 49.0967 43.4047C48.9256 43.2885 48.6844 43.3205 48.5121 43.4343C48.1581 43.6701 48.0856 44.2058 48.3078 44.5673C48.5311 44.9287 48.9838 45.1089 49.408 45.0757C49.6598 45.0567 49.9153 44.9643 50.0864 44.7782C50.1838 44.6728 50.2491 44.5424 50.3026 44.4097C50.4713 43.9925 50.5355 43.5208 50.406 43.0894C50.2765 42.658 49.9331 42.28 49.4947 42.1757C49.2285 42.1129 48.9458 42.152 48.6868 42.2373C48.4705 42.3084 48.2603 42.4139 48.1046 42.5798C47.949 42.7457 47.8563 42.9804 47.8979 43.2032C47.9288 43.3691 48.0286 43.5149 48.1343 43.6476C48.145 43.4876 48.1581 43.3253 48.1866 43.4319Z" fill="#ACA79E"/>
<path d="M51.9684 22.0498C52.1098 22.2691 52.3807 22.3793 52.6397 22.4101C54.1961 22.595 57.9778 22.4587 58.4102 22.5902C58.8427 22.7218 59.5223 23.1579 59.8134 23.5028C60.0035 23.7279 60.1401 24.0136 60.1164 24.3063C60.0926 24.6002 59.9072 24.8633 59.6756 25.047C59.4439 25.2307 59.1671 25.348 58.8938 25.463C58.2344 25.7403 57.5762 26.0176 56.9168 26.2961C56.7861 26.3518 56.7315 26.4371 56.5889 26.4454C56.463 26.4537 56.2562 26.3933 56.1339 26.3637C55.7038 26.2594 55.2737 26.1563 54.8436 26.052C54.7687 26.0342 54.6927 26.0152 54.6273 25.9749C54.5418 25.9216 54.4824 25.8375 54.4266 25.7545C53.5961 24.5433 52.7656 23.3309 51.9684 22.0498Z" fill="#ACA79E"/>
<path d="M52.3378 20.9721C53.6376 20.9638 54.7841 20.344 56.028 19.9659C57.8731 19.4042 59.8786 19.2786 61.8093 19.0214C62.4924 18.9301 63.2623 18.9906 63.9181 19.2027C64.574 19.4149 65.1716 19.9067 65.3557 20.5692C65.5387 21.2281 65.2856 21.951 64.8401 22.4713C64.3946 22.9916 63.7815 23.3388 63.159 23.6244C62.534 23.9112 61.8865 24.1483 61.2235 24.3308C61.195 24.3391 61.1641 24.3462 61.1368 24.3379C61.062 24.3154 61.0988 24.2407 61.0715 24.1672C60.9123 23.7192 60.8552 23.2476 60.5606 22.8956C60.0153 22.2402 59.3107 21.6879 58.4862 21.4628C57.6795 21.2435 56.8169 21.2755 55.9912 21.4082C54.689 21.6168 51.4681 20.9662 51.3374 20.8192C51.3766 20.7517 52.3485 20.9164 52.3378 20.9721Z" stroke="#ACA79E" stroke-miterlimit="10"/>
<path d="M51.0084 19.3005C50.8872 19.2851 50.8908 19.1086 51.0132 19.0991C53.7375 18.881 57.2222 17.8559 59.7884 16.8082C60.9932 16.3164 62.5888 15.488 63.8565 15.1976C65.1242 14.9073 66.6782 14.9239 67.9233 15.3019C69.1685 15.6788 70.5383 16.8414 71.0397 18.0396C71.2393 18.516 71.326 19.6987 71.1704 20.1918C71.0765 20.488 70.6987 20.9289 70.5669 21.2442C70.5015 21.3994 70.0477 21.2133 69.9193 21.3224C69.8207 21.4053 69.69 21.4385 69.5653 21.4693C68.4354 21.7455 67.2758 22.1982 66.1471 22.4743C66.2458 22.1496 66.3741 21.6483 66.4739 21.3236C66.5749 20.9905 66.6782 20.648 66.645 20.302C66.5986 19.8149 66.2897 19.3894 65.9392 19.0469C65.3036 18.4247 64.4933 17.9839 63.6248 17.7871C62.4236 17.5157 57.6523 18.868 56.4594 19.1761C55.0634 19.5364 52.4983 19.4854 51.0084 19.3005Z" fill="#ACA79E"/>
<path d="M54.8569 17.33C57.3341 16.1224 59.5 14.4691 62.0212 13.3551C64.5423 12.2411 67.4935 11.2491 70.2499 11.3392C72.0499 11.3984 74.1053 11.9661 75.7187 12.7649C76.5551 13.1797 77.331 14.0579 77.9013 14.7962C78.4525 15.5096 78.6391 16.4234 78.5559 17.3193C78.4727 18.2165 77.3417 19.7761 76.7203 19.8982C75.5655 20.1269 73.1037 20.5915 71.9489 20.8202C72.474 18.9098 71.7754 16.7232 70.2392 15.467C68.8242 14.3091 66.8698 13.9797 65.052 14.1894C63.2342 14.3992 61.5115 15.0925 59.8244 15.7976C58.1337 16.5028 56.285 17.1736 54.8569 17.33Z" fill="#ACA79E"/>
<path d="M62.6517 18.7579C60.8886 18.9677 59.1956 19.5531 57.4895 20.0438C55.7834 20.5344 53.7351 20.8757 51.9684 20.7015C52.8167 21.1519 54.0285 21.4588 54.9885 21.4327C55.9485 21.4067 56.9691 21.2028 57.9267 21.2858C58.8843 21.3687 59.8062 21.6555 60.4538 22.3631C60.9373 22.8916 61.2332 23.63 61.2914 24.3434C62.6803 23.9085 64.4885 23.5731 65.4152 22.4745C65.8655 22.1284 65.7135 21.2787 65.6766 20.7134C65.6624 20.4929 65.6196 20.2713 65.515 20.0769C65.3582 19.783 65.256 19.1608 64.9745 18.9807C64.2996 18.5469 63.3325 18.6773 62.6517 18.7579Z" fill="#ACA79E"/>
<path d="M85.394 77.2681C85.9085 81.5476 87.4174 85.705 89.7662 89.322" stroke="#698026" stroke-miterlimit="10"/>
<path d="M85.3944 77.2683C84.1837 79.4134 82.6439 81.242 80.9877 83.0671C80.3271 83.7948 80.0265 84.9337 79.1771 85.39C78.4191 85.7977 77.6563 86.0892 76.8781 86.3808C75.7328 86.8086 73.7415 86.4768 72.7566 87.6311C74.1621 89.1895 76.3399 90.5287 78.0115 91.798C78.2587 91.9852 78.5248 92.176 78.8171 92.2069C79.5679 91.9603 80.3806 91.8667 81.1541 92.0255C81.9287 92.1843 82.6606 92.6086 83.112 93.2557C83.219 93.4086 83.3592 93.5958 83.5421 93.5603C83.5944 93.5496 83.6395 93.5223 83.6847 93.4951C85.5928 92.3266 87.4605 91.0893 89.2806 89.788C89.4802 89.6458 89.6893 89.4894 89.7773 89.2594" fill="#698026"/>
<path d="M73.3314 87.4123C69.8432 87.8816 66.343 87.7524 62.837 87.2155C62.7788 87.2132 62.7193 87.2108 62.6611 87.2072C62.3997 87.193 62.1526 87.1456 61.9221 87.0686C61.7249 87.0354 61.6774 86.3812 61.4813 86.3468C58.946 85.9036 55.5076 85.5315 53.0316 84.856C54.3599 86.6336 56.407 89.216 57.9373 90.9025C58.2687 90.0575 59.161 89.1971 59.9927 89.0086C60.8243 88.8202 61.7297 89.0039 62.4354 89.4827C63.1886 89.9935 63.5712 90.7899 64.05 91.5638C64.4979 93.0499 64.5348 94.6771 63.9633 96.1158C63.6948 96.7937 63.2789 97.4669 62.6148 97.7703C62.856 97.8236 63.0758 97.9694 63.2172 98.1709C63.5617 97.8224 63.9264 97.4598 64.3969 97.3199C64.8674 97.1801 65.5636 97.2915 65.7324 97.7513C65.8726 97.3057 66.2135 96.9798 66.7042 96.8139C67.1961 96.6491 67.7343 96.68 68.2392 96.7997C68.3402 96.8234 68.6266 96.936 68.7002 96.8625C68.8998 96.6634 68.8832 96.5733 69.0032 96.392C69.3798 95.8207 70.0226 95.432 70.7045 95.3633C71.3865 95.2945 72.0946 95.5482 72.577 96.0329C72.6922 95.0374 73.3671 94.1248 74.2855 93.7207C75.205 93.3166 76.3349 93.4363 77.1488 94.0229C77.2771 93.2052 77.984 92.4846 78.7729 92.231C77.5503 91.4464 76.3729 90.4592 75.2359 89.51C74.535 88.9233 73.79 88.2016 73.3314 87.4123Z" fill="#A3A3A2"/>
<path d="M40.7426 57.002C40.3863 61.0124 40.2735 65.0442 40.4041 69.0689" stroke="#A3A3A2" stroke-miterlimit="10"/>
<path d="M40.8693 57.0423C40.5663 56.733 40.2633 56.4237 39.9628 56.112C39.6028 55.7398 39.2309 55.3405 39.1192 54.8403C39.0004 56.0065 38.7509 57.143 38.5549 58.282C38.3208 59.6496 37.8123 60.8395 36.945 61.9203C36.7442 63.0924 36.8298 64.3463 37.0175 65.5634C37.2052 66.7805 37.4357 67.9799 37.7137 69.2396C38.6856 69.2088 39.5624 69.1543 40.5354 69.1401" fill="#A3A3A2"/>
<path d="M50.3965 59.0336C50.6698 56.3315 50.9501 53.5951 51.8887 51.0459C52.9069 48.2774 54.6986 45.7969 57.0071 43.9564C60.6688 41.0387 65.4651 39.7492 69.3264 37.2842C68.7454 41.3385 68.0468 45.6287 65.7431 49.0205C64.9412 50.2009 63.9586 51.2462 62.9428 52.2488C59.5971 55.5494 55.7667 58.4731 51.3482 60.0872C54.5275 54.8027 58.3686 49.9153 62.7527 45.573C63.3931 44.9389 64.0453 44.3155 64.637 43.6353C64.7962 43.4528 64.9602 43.2311 64.9186 42.9929C64.8675 42.699 64.599 42.4264 64.3067 42.4893C64.0144 42.5521 63.6889 42.8839 63.4762 43.0925C63.0806 43.4824 62.7016 43.8877 62.3226 44.2942C60.7876 45.9392 59.2537 47.5853 57.7187 49.2303C56.7183 50.304 55.7156 51.3777 54.796 52.5214C53.1196 54.6072 51.7307 56.9051 50.3478 59.196C50.3502 59.1012 50.349 59.0052 50.3965 59.0336Z" fill="#ABA69D"/>
<path d="M48.7266 63.1895C50.3626 63.2973 52.1815 63.2499 53.4956 62.2449C57.2666 60.7256 60.4162 58.4478 64.1789 56.4224C66.5052 54.9185 68.6984 53.3138 71.1067 52.2223C74.3775 50.7385 79.5695 48.8008 82.9805 47.6714C81.7556 46.1817 77.002 46.9248 74.5261 47.432C73.8762 47.5647 72.3649 48.1703 71.7507 48.328C69.3079 48.9585 66.5147 50.1969 64.2835 51.1758C60.9556 55.1128 56.4575 58.6196 51.7776 61.0207C50.4838 61.6654 48.9309 61.8325 48.7266 63.1895Z" fill="#FEFEFC"/>
<path d="M40.7125 69.0831C40.7077 69.0784 40.4832 69.5264 40.4796 69.5228C40.5652 69.4019 40.5521 68.8947 40.5473 68.7596C40.4107 64.9316 40.8075 60.8963 40.8705 57.002C41.6154 57.5175 42.4792 58.1018 43.3429 58.3542C43.7813 58.4822 44.3136 58.4786 44.7912 58.5237C46.0874 58.6469 47.3409 58.1077 48.5207 57.6988C48.7797 57.6739 49.1242 58.0911 49.3309 58.0342C49.2727 59.5452 49.4307 61.1084 49.4307 62.6621C49.1693 62.4512 48.6882 62.6064 48.3127 62.6965C47.5773 62.8743 46.8799 63.2274 46.3322 63.7477C45.7845 64.268 45.3924 64.9601 45.2783 65.7067C45.2094 66.1547 45.251 66.6465 45.5255 67.0068C45.5718 67.0672 45.6264 67.1312 45.6253 67.2071C45.6241 67.2557 45.6003 67.3007 45.5754 67.3434C45.15 68.0971 44.6855 68.8283 44.1841 69.5347" fill="#FEFEFC"/>
<path d="M40.6755 69.0867C41.4062 69.0997 42.1357 69.1128 42.8664 69.1246C43.0814 69.1282 42.9816 69.0879 43.5068 69.1661C43.7527 69.2029 43.9618 69.3891 44.1733 69.5208" fill="#FEFEFC"/>
<path d="M46.3807 68.2373C46.0159 68.7054 45.6512 69.1759 45.3363 69.6784C45.2651 69.7922 45.1961 69.9095 45.1522 70.0375C45.1094 70.1655 45.094 70.3054 45.132 70.4346C45.1712 70.5708 45.2853 70.6953 45.4278 70.7036C45.5502 70.7107 45.6607 70.6325 45.7557 70.5543C46.4175 70.0079 47.0852 69.2684 47.785 68.773C47.3941 68.5691 46.8108 68.3926 46.3807 68.2373Z" fill="#FEFEFC"/>
<path d="M83.574 93.5037C85.8766 91.9417 88.1791 90.3797 90.4816 88.8165C91.2432 88.4491 92.1438 87.2901 93.0206 87.8471C93.8142 88.4811 93.8546 89.6627 94.1374 90.5836C94.4237 91.3124 94.0697 91.9666 93.3853 92.302C90.8333 94.0975 88.0389 95.3857 85.2041 96.6526C84.957 95.599 84.4318 94.613 83.6964 93.8178C83.6429 93.7597 83.5847 93.6981 83.5657 93.6211C83.5467 93.544 83.5823 93.448 83.574 93.5037Z" fill="black"/>
<path d="M86.3204 75.2314C86.6222 79.5477 88.0681 83.7442 90.2221 87.4999C90.5584 88.0866 91.0336 88.595 91.5528 88.128" stroke="black" stroke-miterlimit="10"/>
<path d="M86.3295 75.239C86.377 75.3872 86.3212 75.546 86.263 75.6894C86.0313 76.257 85.7473 76.8022 85.4016 77.3106C86.1537 79.3716 86.9057 81.4313 87.6732 83.5076C88.4099 85.7606 89.2522 87.9791 90.1766 90.238C90.5473 89.6324 90.8835 89.0055 91.1817 88.3619" fill="black"/>
<path d="M78.2812 92.4761C78.2812 92.4761 77.5291 92.9431 77.3224 93.4894C77.1097 94.05 77.1667 94.7445 77.2059 95.3429C77.3699 97.8566 78.2253 100.266 78.975 102.672C79.215 103.441 79.4503 104.228 79.9041 104.894C80.358 105.56 81.0756 106.102 81.8835 106.13C82.4003 106.149 82.9076 105.957 83.3425 105.677C84.2799 105.075 84.9119 104.076 85.2434 103.013C85.5749 101.951 85.6284 100.823 85.6034 99.7101C85.5749 98.4385 85.443 97.1562 85.0319 95.9509C84.622 94.7468 83.8438 93.7217 82.8957 92.8542C81.956 91.9938 80.5409 91.8172 79.2863 92.0471C78.754 92.1455 78.2812 92.4761 78.2812 92.4761Z" fill="black"/>
<path d="M79.307 93.3876C78.6916 93.6827 78.2936 94.3179 78.138 94.9804C77.9823 95.6429 78.0393 96.3362 78.1332 97.0105C78.3803 98.7918 78.8793 100.539 79.6088 102.185C79.9878 103.04 80.4595 103.902 81.2329 104.431C81.5288 104.632 81.8864 104.783 82.2404 104.725C82.4127 104.696 82.5731 104.62 82.7181 104.524C83.1814 104.216 83.4761 103.712 83.7006 103.204C84.518 101.345 84.6107 99.2244 84.2875 97.2191C84.24 96.9217 83.8396 96.0032 83.6579 95.7614C83.0971 95.0172 82.5018 94.2705 81.7118 93.7728C80.9205 93.275 79.9082 93.0984 79.307 93.3876Z" stroke="black" stroke-miterlimit="10"/>
<path d="M71.313 107.123C71.3082 107.549 71.0207 107.913 70.7486 108.241C70.6548 108.354 70.5609 108.468 70.4445 108.556C70.2995 108.666 70.1261 108.731 69.9538 108.789C69.6591 108.89 69.3514 108.974 69.0401 108.956C68.635 108.934 68.2596 108.74 67.9186 108.522C67.7368 108.406 67.5586 108.278 67.4219 108.111C67.0786 107.693 67.0536 107.107 67.0441 106.567C66.8267 106.17 66.6485 105.737 66.4857 105.3C65.6422 103.03 65.218 100.546 65.7075 98.1762C65.7551 97.9451 65.7824 97.6239 65.8964 97.4177C66.1507 96.9567 66.6972 96.7671 67.2212 96.7102C67.7451 96.6533 68.2441 96.6758 68.7514 96.9152C68.4009 97.9783 68.6231 99.2523 68.818 100.354C69.0164 101.476 69.2172 102.605 69.6389 103.662C70.1118 104.854 71.3284 105.844 71.313 107.123Z" fill="black"/>
<path d="M67.2487 107.379C67.2629 107.731 67.0823 107.919 66.9148 108.154C66.7746 108.349 66.5869 108.54 66.3802 108.663C66.1865 108.778 65.9608 108.827 65.7374 108.846C64.9604 108.914 64.1335 108.608 63.6796 107.975C63.4586 107.666 63.3339 107.299 63.2281 106.936C62.7636 105.33 62.6163 103.633 62.7969 101.971C62.8111 101.107 62.8765 100.181 62.9893 99.2618C63.0262 98.9644 63.2923 98.674 63.1937 98.3908C63.1343 98.2201 63.3505 98.0305 63.4871 97.8942C63.7307 97.6513 64.0206 97.419 64.3473 97.3111C64.6741 97.2033 65.1148 97.1926 65.3988 97.387C65.5307 97.477 65.6495 97.5458 65.7125 97.7176C65.7196 97.7378 65.7766 97.6109 65.798 97.6062C65.8194 97.6015 65.7754 97.6465 65.7849 97.6275C65.8194 97.5576 65.9192 97.2673 66.0808 97.2791C65.2075 100.096 65.6685 103.322 66.84 106.029C67.0336 106.476 67.2297 106.927 67.2487 107.379Z" fill="black"/>
<path d="M58.1088 100.607C58.9381 99.2039 60.3947 98.187 62.001 97.8907C62.2315 97.8481 62.5321 97.7616 62.7578 97.8244C62.9883 97.8884 63.1238 98.0721 63.3044 98.2297C63.1725 98.7713 63.0644 99.4006 63.005 99.9813C62.9479 100.553 62.8897 101.124 62.8327 101.694C62.7721 102.296 62.7115 102.9 62.7305 103.506C62.7471 104.024 62.8208 104.537 62.8945 105.05C62.9551 105.466 63.1333 105.854 63.1416 106.239C63.2901 106.641 63.3198 107.071 63.4695 107.472C63.5028 107.561 63.536 107.653 63.5313 107.747C63.523 107.937 63.3697 108.086 63.2153 108.198C62.3919 108.792 61.2169 108.853 60.3353 108.349C59.9753 108.143 59.6094 107.892 59.3124 107.603C59.0343 107.331 58.8181 107.019 58.6043 106.694C58.1849 106.057 57.971 105.378 57.7987 104.623C57.3781 103.246 57.5243 101.598 58.1088 100.607Z" fill="black"/>
<path d="M75.6177 105.219C75.645 105.704 75.6295 106.191 75.5143 106.663C75.4454 106.945 75.3195 107.227 75.1401 107.457C75.0046 107.631 74.8561 107.857 74.6684 107.974C74.211 108.26 73.6478 108.349 73.1084 108.347C72.569 108.344 72.0225 108.152 71.6304 107.781C71.4213 107.583 71.2598 107.342 71.1065 107.099C69.2661 104.175 68.3775 100.666 68.6032 97.2206C68.6899 96.9149 68.8432 96.615 69.0238 96.3816C69.2127 96.1362 69.3743 95.9383 69.5929 95.7618C69.7937 95.5994 70.1655 95.4761 70.4792 95.4157C71.2407 95.2687 72.089 95.4702 72.5999 96.0663C72.8577 99.297 73.9033 102.519 75.6177 105.219Z" fill="black"/>
<path d="M53.8634 85.2773C52.395 85.064 50.9776 84.5734 49.6398 83.9322C49.0303 83.6395 48.2996 83.4214 47.8778 82.8941C47.456 82.3667 47.3824 81.4873 47.6877 80.8853C47.999 80.2702 48.7404 79.8767 49.3855 79.5461C48.4208 79.6835 47.102 79.3114 46.2204 78.7331C45.9091 78.528 45.5646 78.2685 45.3923 77.9379C45.2165 77.5989 45.1713 77.1486 45.1773 76.7669C45.1915 75.9812 45.5052 75.1919 46.0981 74.674C45.6418 74.5508 45.1963 74.2983 44.9836 73.8764C44.7709 73.4545 44.5143 72.7814 44.4953 72.2824C44.4846 72.0027 44.582 71.7586 44.6866 71.4576C44.8375 71.0274 45.2664 70.7678 45.6371 70.5308C46.2977 69.943 46.9594 69.3552 47.62 68.7662C46.4794 68.5422 45.3793 67.5893 45.0371 66.4812C44.6973 65.3826 45.4292 64.0885 46.3487 63.3798C46.9784 62.895 47.7756 62.6746 48.5669 62.5905C49.357 62.5063 53.0924 62.3736 54.0666 61.8972C55.6396 60.9265 57.4622 60.3683 59.0317 59.2034C64.5515 55.7558 69.9871 52.0416 76.1022 49.8041C78.2705 49.0113 80.5124 48.4081 82.6391 47.3758C84.609 47.3948 86.5788 47.2798 88.538 47.0854C89.9209 48.875 90.5304 51.1433 90.8298 53.3832C91.4132 57.7563 90.9166 62.2681 89.4754 66.4089C89.0334 67.8429 88.5915 69.2769 88.0782 71.1352C87.7242 72.7861 87.1717 74.0755 86.6359 75.4823C85.1555 77.926 83.5753 80.3093 81.9001 82.6238C81.2407 83.5364 80.5528 84.4513 79.6475 85.1221C77.7192 86.5525 75.1292 86.6651 72.9015 87.5741C67.719 88.3764 62.4498 87.2541 57.3362 86.088C56.0662 85.7988 54.8151 85.416 53.8634 85.2773Z" fill="black"/>
<path d="M88.4099 65.3152C89.9247 60.8319 90.015 55.9325 89.0301 51.3046C88.7378 49.9299 88.2685 48.4544 87.0911 47.6817C86.3771 47.6248 85.6404 47.8132 84.93 48.0123C76.845 50.289 69.3433 54.2615 62.1209 58.5789C60.5562 59.7617 58.9843 60.9492 57.2545 61.8736C55.5246 62.7992 53.5868 63.6655 51.5873 63.7319C50.6011 63.675 49.6067 63.7674 48.6479 64.0044C47.9909 64.1668 47.3232 64.4133 46.8658 64.9111C46.4083 65.4088 46.2313 66.2159 46.6198 66.7693C46.8278 67.0644 47.1592 67.2481 47.4931 67.388C49.0198 68.0291 50.7556 67.9616 52.3821 67.6511C54.0086 67.3406 55.5852 66.799 57.2176 66.5145C57.4374 66.4766 57.662 66.4434 57.8806 66.4825C58.0992 66.5217 58.3154 66.6461 58.4081 66.8476C58.5352 67.1225 58.395 67.4603 58.1634 67.6546C57.9317 67.849 57.6275 67.9308 57.3329 68.0019C54.9068 68.5921 52.4106 68.8386 49.9691 69.36C49.5318 69.4537 49.0911 69.558 48.6931 69.7618C48.2261 70.0012 47.7497 70.3069 47.3588 70.6542C47.0262 70.9505 46.7707 71.2989 46.5046 71.6556C46.2385 72.0124 45.9949 72.3383 45.9426 72.8253C45.8179 73.0908 46.1351 73.4866 46.3798 73.6478C46.6246 73.809 46.9454 73.8197 47.2293 73.7474C47.5133 73.6751 47.7723 73.5281 48.0313 73.3907C50.3445 72.1569 52.9227 71.5087 55.4973 71.0026C56.0937 70.8853 57.9721 70.4776 58.5923 70.448C58.8204 70.4847 59.0734 70.538 59.2029 70.7277C59.2849 70.8486 59.2992 71.0038 59.2766 71.1472C59.2422 71.3605 59.1257 71.562 58.9499 71.6876C58.8061 71.7907 58.6315 71.8405 58.4604 71.8844C56.7151 72.3288 54.87 72.484 53.2007 73.047C51.8831 73.3646 50.5928 73.7948 49.3501 74.3328C48.7703 74.5841 48.1964 74.8602 47.6974 75.2466C47.1984 75.6329 46.7731 76.1354 46.5711 76.7327C46.52 76.8856 46.4832 77.0551 46.5462 77.2044C46.583 77.2921 46.6519 77.3632 46.7208 77.4296C47.2745 77.9569 48.2036 78.3954 49.0305 78.5495C50.2685 78.719 51.5255 78.4713 52.7326 78.1478C53.9397 77.8242 55.1325 77.4225 56.3741 77.2708C56.9099 77.2056 57.4517 77.1878 57.9887 77.1274C58.3796 77.0835 58.7859 77.0171 59.1566 77.1463C59.5285 77.2743 59.8386 77.6784 59.7091 78.0482C59.6283 78.2769 59.4025 78.4298 59.1673 78.4926C58.9321 78.5554 58.6849 78.5436 58.4414 78.54C56.7377 78.5175 55.0648 78.9453 53.4205 79.3933C52.8763 79.5415 52.3322 79.692 51.7987 79.8733C50.9148 80.1731 50.0594 80.5559 49.2479 81.0146C49.0685 81.1153 48.876 81.3606 48.8297 81.5609C48.7738 81.8086 49.2051 82.2151 49.4808 82.4154C51.1702 83.4761 52.912 83.6681 54.8593 84.103C58.9035 85.0061 62.9835 85.7492 67.1691 86.4354C68.1243 86.4982 69.0808 86.5254 70.0431 86.4247C72.1187 86.4365 74.1955 86.0585 76.1333 85.3166C77.1075 84.9445 78.0545 84.474 78.8564 83.8091C79.6382 83.1608 80.2607 82.3455 80.8714 81.5348C82.5383 79.3234 84.191 77.0728 85.3517 74.5592C85.903 73.3646 86.339 72.1178 86.6967 70.7775C87.3501 68.8777 87.8646 66.9305 88.4099 65.3152Z" fill="#27A3DD"/>
<path d="M66.8412 37.2512C65.7517 37.8141 64.6373 38.3296 63.524 38.844C62.5735 39.2268 61.6088 39.7328 60.6512 40.2152C55.906 42.6056 51.8617 46.7512 50.4086 51.8982C49.3358 54.9985 48.92 58.1841 49.1647 61.3045C49.1707 61.3128 49.1754 61.3247 49.1754 61.3377C49.1754 61.391 49.2015 61.4527 49.1825 61.5001C49.211 61.8189 49.2431 62.1377 49.2847 62.4541C49.2859 62.4588 49.2895 62.4636 49.2895 62.4695H49.2907V62.4683V62.4695C49.2918 62.4695 49.2918 62.4707 49.2918 62.4707C49.299 62.4742 49.3049 62.4802 49.3085 62.4861C53.3278 61.1173 56.8184 58.5266 60.4528 56.2464C62.191 54.7294 63.7818 53.312 65.2218 51.673C66.0951 50.6799 66.9089 49.6298 67.5731 48.4874C69.139 45.7912 69.8138 42.6743 70.2154 39.5835C70.3888 38.8641 70.4459 38.1116 70.5112 37.3661C70.6051 36.2972 70.7215 35.2305 70.8581 34.1675C69.8673 35.5541 68.356 36.469 66.8412 37.2512Z" fill="black"/>
<path d="M50.1426 59.5449C50.24 58.2329 50.7461 56.4315 51.0194 55.1433C51.3461 53.6003 51.7251 52.062 52.3025 50.5936C52.8799 49.1252 53.6641 47.7232 54.7084 46.5156C54.7631 46.4421 54.8165 46.3686 54.9187 46.2691C56.4632 44.1287 58.7408 42.626 61.1016 41.4385C63.4623 40.251 66.9327 38.5693 69.2281 37.415C69.7402 37.0571 68.9454 39.1595 68.7244 40.3221C68.318 42.4565 68.0329 44.6561 67.0515 46.5499C66.4824 47.3926 66.0274 48.3063 65.4654 49.1537C64.7763 50.193 63.9328 51.121 63.0524 52.0063C60.7986 54.2722 58.2846 56.2763 55.5805 57.9698C54.2272 58.8682 52.7706 59.6089 51.2475 60.1753C51.6919 59.5804 52.0126 58.9357 52.413 58.3206C55.609 53.0255 59.9836 48.5528 64.3332 44.1501C64.5304 43.9498 64.7336 43.7424 64.831 43.4793C64.9296 43.2162 64.894 42.882 64.6718 42.7089C64.3082 42.4257 63.7926 42.7409 63.448 43.0491C58.2739 47.6936 53.5619 53.6489 50.1426 59.5449Z" fill="#ACA79E"/>
<path d="M78.7329 19.8937C81.2053 20.6949 83.2952 21.9926 85.2591 23.692C85.3043 23.7312 85.353 23.7786 85.347 23.8378C85.3387 23.9326 85.2104 23.9563 85.1154 23.9528C84.4928 23.9314 83.8536 23.9066 83.2797 23.6612C82.9079 23.5024 82.5811 23.2583 82.2437 23.0367C81.5095 22.5543 80.7135 22.1715 79.9091 21.8148C79.2675 21.5304 78.6153 21.259 77.9262 21.1227C77.1456 20.9686 76.3294 20.9959 75.5025 21.2163C69.1046 22.4358 62.898 24.5999 57.0383 27.4015C56.847 27.1668 56.4633 26.5814 56.5013 26.4439C58.1052 25.5693 60.2331 24.7741 62.1519 24.0582C62.7055 23.852 63.2639 23.6589 63.8009 23.4124C64.3617 23.1552 64.8975 22.8399 65.4381 22.6373C67.6076 21.8729 69.8198 21.227 72.057 20.7434C74.255 20.1343 76.8034 19.2692 78.7329 19.8937Z" fill="black"/>
<path d="M78.463 19.8469C79.0381 19.1465 79.5288 18.3454 79.6856 17.453C79.8685 16.4196 79.5798 15.3363 79.0226 14.4451C78.4654 13.5551 77.6551 12.8428 76.7712 12.2728C74.9665 11.109 72.8065 10.4998 70.5919 10.5508C66.3658 10.5117 62.2182 11.903 58.5292 13.9616C56.9347 14.8516 55.3938 15.8744 53.6627 16.4563C52.7918 16.749 51.6192 16.7775 50.7174 16.9529C49.7717 17.1366 48.2177 17.4672 47.2898 17.7149C46.546 19.0802 50.778 17.9934 52.0897 17.8429C52.837 17.7576 53.5582 17.3605 54.3067 17.4388C55.1823 17.5312 55.4021 17.0074 56.0437 16.7123C59.5093 15.1218 62.8158 12.9436 66.5595 12.1128C70.3032 11.282 74.3296 11.794 77.3331 14.1726C77.7003 14.4629 78.0484 15.0413 78.2325 15.3968C78.6448 16.1932 78.6056 16.8 78.4381 17.6367C78.2717 18.4746 77.5458 19.0825 77.0397 19.7723C77.5232 19.6893 78.0222 19.7024 78.463 19.8469Z" fill="black"/>
<path d="M50.4716 19.1484C52.3512 19.4696 54.2902 19.5798 56.1602 19.2053C57.6477 18.9067 59.0948 18.2098 60.5704 17.8543C61.1681 17.7097 61.7217 17.5971 62.3003 17.5414C62.7173 17.5011 63.1332 17.5331 63.549 17.577C64.105 17.6374 64.6492 17.7678 65.1517 18.0131C65.7684 18.3141 66.4004 18.7775 66.6927 19.3985C66.884 19.8038 66.9933 20.2779 66.8876 20.701C66.7438 21.2722 66.6915 21.8422 66.4218 22.3672C66.9173 22.2203 67.3521 22.1966 67.7727 21.8766C66.4052 22.2807 65.1113 22.7263 63.89 23.3936C64.4021 23.0748 64.8654 22.7607 65.2385 22.3068C65.8907 21.5116 65.804 20.0871 64.9997 19.4471C64.4413 19.0027 63.6916 18.8759 62.9775 18.8652C60.0275 18.8213 57.2925 20.4568 54.3543 20.7187C53.512 20.7946 52.6649 20.7555 51.851 20.8325C50.6142 20.234 49.2574 19.8263 48.1394 19.0359C48.8855 18.9019 49.741 19.024 50.4716 19.1484Z" fill="black"/>
<path d="M52.0162 20.7066C52.7635 21.1084 53.632 21.1712 54.4732 21.2826C55.375 21.4023 56.1104 21.3028 56.9599 21.3051C57.9638 21.3075 59.1032 21.3111 59.9349 21.8728C60.7499 22.4239 61.3083 23.4455 61.2917 24.4291C60.6002 24.6377 59.4335 25.76 59.0854 25.6723C59.3254 25.4507 59.9076 24.8866 60.0727 24.5002C60.1119 24.4078 60.0976 24.2241 60.1202 24.1269C60.1452 24.0214 60.1357 24.2371 60.1012 24.1352C59.9076 23.5557 59.4573 23.0674 58.8953 22.828C58.5139 22.6657 58.0933 22.6147 57.6787 22.591C56.7246 22.5353 55.767 22.6088 54.8118 22.5957C53.8566 22.5827 52.7077 22.6313 52.0329 22.1774C52.7861 23.3246 53.3968 24.2964 54.2071 25.4045C54.3354 25.5799 54.4554 25.9105 54.6823 25.9769C54.8831 26.035 56.4229 26.3076 56.79 26.624C57.0264 26.8278 57.0431 27.1525 57.1666 27.4393C57.4458 28.0924 57.7024 28.7833 57.6561 29.492C57.5896 30.5242 56.8292 31.5802 55.849 31.9156C54.8688 32.251 53.7235 31.8765 52.7766 31.0587C52.223 30.4519 51.8071 29.6792 51.8511 28.8603C51.895 28.0414 52.337 27.1561 52.9513 26.6109C53.0606 26.5138 53.2495 26.4142 53.2055 26.2744C53.1865 26.2139 53.1378 26.1689 53.0926 26.1239C52.8051 25.8382 49.1945 20.1674 48.1288 19.0996C48.9688 19.4243 49.8919 19.7242 50.6392 20.2255C50.8673 20.3784 51.421 20.4601 51.4935 20.4601C51.7644 20.4578 51.7917 20.8548 52.0162 20.7066Z" fill="black"/>
<path d="M56.0583 31.749C55.6745 32.0216 55.1636 32.0156 54.6943 31.9718C54.0266 31.909 53.3637 31.7905 52.7162 31.6174C52.4084 31.5357 52.0983 31.4385 51.8346 31.2607C51.5744 31.0853 51.3712 30.8388 51.174 30.5947C50.2378 29.4297 49.3657 28.2161 48.5127 27.0926C47.599 25.6598 46.6854 24.227 45.7717 22.793C45.3904 22.1957 45.009 21.596 44.687 20.9785C44.7452 20.1573 45.0696 19.3632 45.5626 18.7031C45.9012 18.248 46.3004 17.7586 46.8517 17.6223C47.4565 17.4729 48.0909 17.4978 48.559 17.5227C48.6137 17.5263 48.5982 17.6981 48.622 17.7479C48.6493 17.8048 48.635 17.8723 48.6208 17.9351C48.5448 18.2551 48.4295 18.6225 48.1218 18.7398C47.9471 18.8062 47.7523 18.773 47.5658 18.7884C47.0074 18.8347 46.5891 19.3051 46.2589 19.7567C46.0177 20.0873 45.7777 20.4725 45.8442 20.8766C45.9036 21.2369 46.19 21.5095 46.4466 21.7702C48.3523 23.715 49.721 26.0059 51.1467 28.3832C51.4104 28.6463 51.572 28.99 51.7776 29.2898C51.9403 29.5269 52.0449 29.7994 52.1708 30.0578C52.4203 30.5698 52.7672 31.0438 53.2211 31.3875C53.675 31.7312 54.2452 31.941 54.7787 31.8734C55.2183 31.9232 55.6793 31.9161 56.0583 31.749Z" fill="black"/>
<path d="M52.5768 36.6601C51.9828 35.9337 51.0395 35.6018 50.2945 35.0306C49.6636 34.5471 49.1825 33.8976 48.7405 33.2375C46.9049 30.4963 45.579 27.3984 43.3941 24.925C43.1956 24.6998 42.9782 24.451 42.9747 24.1511C42.9735 24.0148 43.0186 23.8821 43.0685 23.7553C43.1766 23.478 43.3109 23.2113 43.4677 22.9589C43.6234 22.7088 43.8123 22.4647 44.0748 22.3308C44.3921 22.1696 44.7782 22.1945 45.112 22.3154C45.4459 22.4362 45.7405 22.646 46.0293 22.8522C45.7013 22.1897 45.2736 21.5758 44.796 21.0082C44.7782 21.0176 44.7556 21.02 44.7378 21.0082C44.7366 21.007 44.7366 21.007 44.7354 21.0058C44.4408 20.9572 44.1354 21.0129 43.8634 21.1338C43.5889 21.2547 43.3465 21.4372 43.1279 21.6422C42.5576 22.1755 42.1394 22.87 41.9351 23.6226C41.8911 23.7849 41.8567 23.952 41.8626 24.1203C41.8804 24.6145 42.2309 25.0234 42.5458 25.405C42.9271 25.8696 43.28 26.3578 43.6044 26.9065C45.1346 29.63 46.6684 32.3569 48.4435 34.9287C48.851 35.5189 49.2894 36.1173 49.9143 36.4705C50.3147 36.6969 50.7686 36.8083 51.2153 36.9185C51.5883 37.0097 51.9614 37.101 52.3345 37.1911C52.4295 37.2148 52.5364 37.2361 52.6208 37.1863C52.7954 37.0844 52.704 36.8154 52.5768 36.6601Z" fill="black"/>
<path d="M49.9596 34.9435C49.9964 34.1957 50.038 33.4289 50.3327 32.7403C50.6273 32.0518 51.2855 31.3265 52.0316 31.2471C52.4154 31.2068 52.9239 31.3656 53.2803 31.5125C54.4993 32.0174 55.224 32.8837 55.5128 34.1684C55.5912 34.5204 55.6767 35.1912 55.59 35.542C55.4165 36.2483 54.8023 36.5683 54.0074 37.0447C53.5536 37.3173 52.9619 37.3351 52.4522 37.1893C51.9425 37.0435 51.4958 36.5991 51.4744 36.0705" fill="black"/>
<path d="M41.8985 24.2887C41.5836 24.2579 41.2842 24.4309 41.043 24.6336C40.0973 25.4288 39.7088 26.723 39.6839 27.9567C39.6803 28.1629 39.6862 28.3762 39.7694 28.5659C39.8538 28.7543 40.0332 28.9155 40.2399 28.9178C40.4252 28.9202 40.5939 28.797 40.6937 28.6417C40.7935 28.4864 40.8363 28.3028 40.872 28.1214C40.9706 27.6213 41.03 27.1105 41.2022 26.6294C41.3733 26.1494 41.6763 25.6907 42.1325 25.4608C42.2299 25.4122 42.3404 25.366 42.3856 25.2665C42.4105 25.2108 42.4105 25.1468 42.4034 25.0851C42.3678 24.7628 42.2216 24.3207 41.8985 24.2887Z" fill="black"/>
<path d="M49.7028 36.7289C49.1194 36.0498 48.6062 35.3957 48.1084 34.6514C46.4688 32.3428 45.0098 29.8007 43.6542 27.2609C43.2467 26.4989 42.9247 25.6681 42.1905 25.3576C42.1239 25.1502 42.4269 25.117 42.5623 25.277C42.8617 25.629 43.3381 26.1896 43.6126 26.5617C44.1318 27.2681 44.5559 28.0384 45.0039 28.7921C45.9615 30.4015 47.0343 31.9398 48.1072 33.4757C48.6145 34.2022 49.1206 34.9287 49.6279 35.6552C49.9392 36.1008 50.2766 36.5677 50.778 36.7775C51.094 36.9091 51.4457 36.9257 51.7736 37.0217C52.856 37.3369 53.5403 38.6239 53.1958 39.6941C53.1958 39.6941 53.1471 39.6834 53.1637 39.6953C52.9831 40.6043 52.2299 41.3722 51.3245 41.5785C50.4192 41.7847 49.4093 41.4208 48.8402 40.6884C48.2711 39.956 48.1072 38.8361 48.5182 38.0053C48.6478 37.7422 48.8236 37.5158 49.003 37.2847C49.1871 37.0465 49.4164 36.7965 49.7028 36.7289Z" fill="black"/>
<path d="M50.0279 44.2317C51.0521 43.4536 51.2817 42.0374 50.5406 41.0684C49.7996 40.0995 48.3686 39.9447 47.3444 40.7228C46.3203 41.5008 46.0907 42.9171 46.8317 43.8861C47.5728 44.855 49.0038 45.0098 50.0279 44.2317Z" fill="black"/>
<path d="M40.9145 28.1012C41.3339 28.0763 41.5442 28.1794 41.8626 28.4532C42.1798 28.727 42.5719 29.1797 42.8178 29.5198C44.8412 32.312 46.2443 35.6529 48.0882 38.4723C48.207 38.6536 48.3508 38.8397 48.3472 39.0565C48.3448 39.1513 48.4648 39.303 48.4518 39.3967C48.4054 39.7249 48.7286 40.0592 48.5516 40.2867C48.3044 40.4443 47.9456 40.4585 47.7235 40.2227C47.5227 40.0094 47.3112 39.8103 47.1484 39.5673C45.5718 37.2172 44.0131 34.8434 42.7798 32.2966C42.3794 31.4682 41.9897 30.5935 41.2816 30.0057C41.0321 29.7983 40.747 29.6324 40.5248 29.3966C40.3026 29.1607 40.1458 28.8265 40.2325 28.5148C40.3193 28.2031 40.8171 27.9637 40.9145 28.1012Z" fill="black"/>
<path d="M46.7138 41.9924C44.8117 39.4668 43.5238 36.6676 41.6276 34.1504C41.2379 33.6325 40.8517 33.0352 40.6224 32.4296C40.3931 31.824 40.3717 31.1567 40.5119 30.5251C40.6284 30.0012 41.0739 29.2522 40.525 28.9678C40.3088 28.8564 40.5072 28.2757 40.3504 28.3314C40.0248 28.4463 39.5234 29.2356 39.426 29.5663C39.3821 29.7144 39.3429 29.8638 39.3025 30.0143C39.3025 30.032 39.3025 30.0486 39.3025 30.0664C39.3001 30.1517 39.2704 30.2347 39.2561 30.3189C39.2419 30.3983 39.224 30.4765 39.205 30.5559C39.1432 30.8154 39.0732 31.0797 39.0565 31.3475C40.1341 33.1003 41.0703 34.9456 42.0814 36.7363C42.2109 36.7482 42.3369 36.8145 42.4236 36.9579C42.9321 37.7946 43.4287 38.6373 43.9039 39.4929C43.9408 39.5593 43.9598 39.6257 43.9657 39.6885C43.9764 39.711 43.9883 39.7311 43.9978 39.7536C44.0952 39.9847 44.1202 40.2431 44.1772 40.4872C44.2057 40.6069 44.2639 40.7657 44.1665 40.8641C44.801 41.8572 45.5305 42.7674 46.4334 43.5923C46.6995 43.8352 47.0251 44.1054 47.3708 43.9964C47.2544 43.3327 47.1189 42.5316 46.7138 41.9924Z" fill="black"/>
<path d="M32.1168 37.8666C31.8281 35.7287 32.6704 33.6179 33.4973 31.6246C33.9737 30.4738 34.4549 29.3159 35.1143 28.2588C35.2973 27.9661 35.4969 27.6781 35.7654 27.4612C36.0339 27.2443 36.3808 27.1033 36.723 27.1472C37.1567 27.2029 37.4988 27.5335 37.7757 27.8713C38.3103 28.5243 38.7261 29.2733 38.997 30.072C39.1408 30.4963 39.2441 30.9324 39.3926 31.3544C39.6802 32.1685 40.1316 32.9128 40.5796 33.6511C41.7772 35.6232 42.9748 37.5941 44.1011 39.6325C44.2116 39.8316 44.3244 40.0378 44.3434 40.2641C44.3624 40.4905 44.4337 40.8176 44.2234 40.9053C44.0939 40.9598 43.7969 41.0191 43.6579 41.0013C42.1763 40.8212 40.6758 40.4929 39.1942 40.3127C37.9646 40.1634 36.7301 40.0141 35.5254 39.7249C34.1864 39.4061 32.2783 39.0565 32.1168 37.8666Z" fill="black"/>
<path d="M39.2182 40.252C37.6725 40.95 36.3466 42.0462 35.0682 43.1579C33.7886 44.2695 32.5221 45.4191 31.0453 46.2523C29.5685 47.0866 27.8363 47.5879 26.167 47.2881C25.8129 47.2241 25.4624 47.1245 25.1025 47.1269C24.7425 47.1292 24.3599 47.2525 24.1532 47.5452C23.9464 47.838 24.0355 48.1769 24.234 48.4151C25.0217 49.5813 26.2121 50.4725 27.5547 50.9003C27.7079 52.2727 28.6061 53.5029 29.7895 54.2187C30.9728 54.9345 32.4092 55.168 33.7862 55.04C35.1644 54.912 36.4915 54.4415 37.802 53.8655C38.2689 53.4318 39.0531 53.4602 39.4808 52.9885C39.7137 52.7313 39.7921 52.3734 39.8598 52.0321C40.6297 48.1319 41.4506 44.0847 43.4015 40.6182" fill="black"/>
<path d="M33.4651 37.3427C35.5859 38.6985 38.1783 39.0505 40.678 39.3693C39.4995 39.0611 38.3078 38.7483 37.2314 38.177C36.9474 38.0265 36.635 37.7895 36.6623 37.4695C36.6825 37.2384 36.8904 37.0571 37.115 36.9966C37.3395 36.9362 37.5783 36.9729 37.8064 37.0215C38.7177 37.2123 39.5838 37.569 40.444 37.9246C39.5054 37.0251 38.5918 36.1327 37.8337 35.0767C37.6936 34.8824 37.614 34.5849 37.5676 34.3491C37.5213 34.1144 37.5914 33.8395 37.7945 33.7126C37.9941 33.5882 38.265 33.6404 38.4575 33.7743C38.6512 33.9082 38.7842 34.1085 38.9185 34.3017C39.8844 35.6954 41.0701 36.9386 42.4198 37.9696C40.1648 35.2557 38.8187 31.9184 36.9189 28.9449C36.8239 28.7967 36.686 28.6296 36.5126 28.6604C36.3712 28.6865 36.2904 28.8323 36.231 28.9627C35.2306 31.1303 34.3574 33.3559 33.6172 35.6243C33.4152 36.2358 33.0837 37.0997 33.4651 37.3427Z" fill="#904853"/>
<path d="M38.4671 51.7068C38.3851 51.8443 38.2591 51.9474 38.132 52.0446C36.8192 53.0413 35.1689 53.5224 33.5246 53.6575C32.5575 53.7369 31.5559 53.6978 30.6625 53.3198C29.769 52.9417 28.9991 52.1749 28.8625 51.2494C31.582 51.4887 34.3848 50.5288 36.3819 48.6729C36.6243 48.4477 36.8738 48.1526 36.8108 47.8279C36.7419 47.4759 36.3154 47.2934 35.9626 47.3574C35.6097 47.4214 35.3162 47.6584 35.037 47.8836C34.4881 48.3256 33.9238 48.7535 33.3024 49.0865C31.0807 50.2775 28.1829 50.0808 26.1429 48.6018C27.9441 48.827 29.8094 48.4963 31.4228 47.6679C33.8976 46.3963 35.656 44.0687 38.0156 42.5481C38.9708 41.5775 40.2658 40.947 41.6203 40.793C40.1648 44.1765 38.549 51.5705 38.4671 51.7068Z" fill="#ACA79E"/>
<path d="M30.9452 68.6539C32.4873 66.9272 34.0592 65.2894 35.6001 63.5626C36.5553 62.4925 37.4987 61.4104 38.0452 60.0855C38.9731 57.8408 38.8769 55.3331 39.5386 52.8799C39.0004 53.1667 38.4622 53.4049 37.9252 53.6917C37.7957 55.6543 37.5498 57.778 36.6611 59.6209C36.0076 60.9755 35.0334 62.1464 34.0627 63.2972C32.9138 64.6589 31.7531 66.0123 30.5531 67.2247C29.7808 66.5017 29.163 65.6342 28.544 64.7774C27.9238 63.9205 27.2906 63.0625 26.4957 62.3656C25.7009 61.6688 24.7207 61.1367 23.6657 61.0525C22.6107 60.9684 21.4832 61.3903 20.8903 62.2661C20.4281 62.9499 20.3319 63.8103 20.2927 64.6328C20.2226 66.1261 20.3176 67.6999 21.0958 68.9775C21.2919 69.2986 21.4725 69.9125 21.8432 69.9825C22.259 70.0607 22.9362 69.6921 23.2855 69.7988C22.5774 68.9384 21.9536 67.8184 21.6507 66.7471C21.3477 65.6757 21.324 64.4965 21.7719 63.4761C21.9275 63.1218 22.1449 62.8385 22.4728 62.6335C23.0408 62.2768 23.7299 62.3277 24.3453 62.5956C25.2126 62.9748 26.0039 63.5899 26.5563 64.3578C27.0565 65.0523 27.672 65.8156 28.2232 66.5835C28.8981 67.521 29.7416 68.424 29.8818 69.5689C30.3024 69.2975 30.6755 68.9561 30.9452 68.6539Z" fill="black"/>
<path d="M37.5033 69.169C39.4577 69.0564 41.4181 69.0339 43.3749 69.1002C43.5186 69.105 43.666 69.1121 43.7979 69.1701C43.9285 69.2294 44.2648 69.5055 44.0093 69.438C44.4965 68.6629 45.0228 67.8547 45.5099 67.0796C45.8663 67.3522 46.2133 67.7184 46.5697 67.991C46.199 68.4923 45.8271 68.9936 45.4564 69.4961C45.3162 69.6857 45.1713 69.886 45.1428 70.1182C45.1131 70.3517 45.245 70.6231 45.4778 70.661C45.0572 70.9075 44.8149 71.5451 44.4965 71.9599C44.2933 71.416 44.0034 70.827 43.5507 70.5342C43.18 70.2936 42.7143 70.3659 42.2735 70.4039C40.6411 70.5437 39.0027 70.6373 37.3643 70.6255C37.3287 70.1538 37.337 69.6051 37.3893 69.1358C37.4487 69.1429 37.5093 69.1927 37.5033 69.169Z" fill="black"/>
<path d="M42.9078 70.272C41.7399 70.4557 40.8156 71.4369 40.5756 72.5794C40.4805 73.0286 40.4401 73.601 40.7419 73.947C40.9272 74.1604 41.2029 74.3464 41.4821 74.3867C41.7613 74.427 42.0488 74.3855 42.3197 74.3038C42.6535 74.2018 42.9791 74.0276 43.1846 73.7468C43.3902 73.4647 43.4508 73.0606 43.2666 72.7643C43.0824 72.468 42.7426 72.449 42.4219 72.5213C42.6749 72.551 42.8448 72.705 42.9137 72.9349C42.9779 73.1483 42.9102 73.4256 42.7474 73.5797C42.5324 73.7823 42.2033 73.8025 41.9549 73.6982C41.3942 73.4611 40.9855 72.6659 41.1934 72.0947C41.3466 71.6752 41.7969 71.3931 42.2318 71.2888C42.6666 71.1845 43.1014 71.354 43.5315 71.4772C43.9438 71.5958 44.3466 71.9252 44.4939 72.2784C44.6198 72.5806 44.6971 72.8982 44.804 73.2075C44.8979 73.4813 44.9917 73.7539 45.0868 74.0276C45.1093 74.094 45.4004 74.1047 45.3897 74.1746C45.3731 74.286 45.0357 74.4803 44.9466 74.5503C44.1327 75.1891 43.2048 75.7247 42.2829 75.9689C41.8943 76.072 40.4045 76.4524 40.7609 76.2687C41.0686 76.1099 40.667 75.6975 40.4698 75.4664C40.1003 75.0338 39.6084 74.6854 39.3815 74.1639C39.1677 73.6721 39.2271 72.9871 39.3637 72.468C39.5075 71.9181 39.7035 71.4476 40.0005 70.9617C40.1241 70.7602 40.1799 70.5777 40.3938 70.4758C40.5447 70.4047 40.8334 70.4308 40.9997 70.4177C41.6033 70.3715 42.2353 70.3241 42.8401 70.2969C42.8389 70.2945 42.8698 70.2921 42.9078 70.272Z" fill="black"/>
<path d="M44.4012 71.4939C44.5154 71.469 44.5404 71.821 44.5404 72.1505C44.5404 72.2986 44.5106 72.3946 44.5035 72.589" fill="black"/>
<path d="M30.9271 68.6228C31.0946 68.452 31.2347 68.2729 31.3166 68.1045C31.1468 68.1709 30.9604 68.4141 30.9271 68.6228Z" fill="black"/>
<path d="M37.5546 69.0689C37.4869 68.9906 37.1495 69.172 37.0461 69.1767L32.0799 69.4232C31.8458 69.4351 31.607 69.4457 31.3813 69.3853C31.1555 69.3248 31.0213 69.0013 30.9369 68.7832C30.9179 68.7358 30.9167 68.6801 30.9262 68.6221C30.5924 68.9598 30.1445 69.2632 29.7892 69.3722C29.2546 69.5382 28.6855 69.5548 28.1259 69.5713C26.4447 69.6199 24.7636 69.6069 23.0587 69.7088C21.8254 69.7539 20.5946 69.7835 19.372 69.8439C19.3352 69.851 19.2983 69.8581 19.2627 69.8688C19.2092 69.8842 19.1439 69.9103 19.0904 69.934C19.0702 69.9435 19.0738 69.947 19.0524 69.9565C19.0607 70.1224 19.0251 70.6593 19.0928 70.9686C19.1071 71.0314 19.1249 71.1345 19.176 71.176C19.233 71.2222 19.2888 71.1985 19.3898 71.1938C21.1066 71.1073 22.7997 71.0468 24.4464 70.9639C28.7746 70.7446 33.3583 70.8868 37.5546 70.6273C37.5677 70.2303 37.3776 69.8925 37.3907 69.4955C37.393 69.409 37.6117 69.1329 37.5546 69.0689Z" fill="black"/>
<path d="M41.3767 76.1185C41.2116 75.6777 40.6698 75.4063 40.33 75.0816C36.5649 75.4324 23.4792 76.2465 19.4112 76.4741C19.1664 76.3485 18.8718 76.23 18.7542 75.9894C18.6377 75.7488 18.5665 75.3909 18.5284 75.1254C18.4417 74.5163 18.3776 73.9628 18.4144 73.3477C18.4512 72.7469 18.5641 72.2456 18.854 71.7158C18.9443 71.5499 19.1926 71.2738 19.2449 71.0924C19.2841 70.9573 19.2722 70.8127 19.2591 70.6729C19.2425 70.4762 19.2247 70.2794 19.208 70.0827C19.2045 70.0377 19.1997 69.9914 19.1724 69.9547C19.1581 69.9346 19.1332 69.9215 19.1094 69.918C19.1035 69.9215 19.0963 69.9239 19.0904 69.9263C19.0952 69.9239 19.0999 69.9227 19.1047 69.9203C19.0987 69.9227 19.0928 69.9251 19.088 69.9274C19.0892 69.9274 19.0904 69.9263 19.0916 69.9263C19.0868 69.9286 19.0821 69.9298 19.0773 69.9322C19.0809 69.931 19.0845 69.9286 19.088 69.9274C19.0833 69.9298 19.0785 69.9322 19.0738 69.9334C19.0785 69.931 19.0833 69.9298 19.088 69.9274C19.0845 69.9286 19.0809 69.9298 19.0785 69.931C19.0738 69.9334 19.0678 69.9357 19.0619 69.9369C19.0607 69.9381 19.0583 69.9369 19.0571 69.9381C19.056 69.9381 19.056 69.9393 19.0548 69.9393C19.0548 69.9393 19.0536 69.9393 19.0536 69.9405C19.0536 69.9405 19.0536 69.9405 19.0548 69.9405H19.0536C19.0512 69.9417 19.05 69.9429 19.0476 69.944C19.0429 69.9452 19.0369 69.9452 19.0322 69.9476C19.0369 69.9452 19.0417 69.944 19.0464 69.9417C19.0369 69.9452 19.0286 69.9488 19.0203 69.9511C19.0191 69.9511 19.0191 69.9523 19.0179 69.9523C19.0167 69.9523 19.0156 69.9523 19.0144 69.9523C19.0132 69.9523 19.0108 69.9594 19.0096 69.9594C18.2611 70.3174 17.7918 71.0912 17.5221 71.8817C16.9043 73.6926 17.1586 75.6516 18.2017 77.4127C22.6072 77.3511 39.0682 77.1958 41.3767 76.1185Z" fill="black"/>
<path d="M19.4445 85.3746C18.5047 84.8188 17.6754 84.0567 17.1218 83.1169C16.5681 82.1771 16.3067 81.0536 16.479 79.9775C16.6525 78.9014 17.3416 77.8881 18.2659 77.3335C18.4204 77.6961 18.5154 78.0588 18.6699 78.4203C18.7019 78.4949 18.734 78.5755 18.715 78.6537C18.6936 78.7426 18.791 78.8908 18.7186 78.9465C18.0675 79.4525 17.6422 80.275 17.6778 81.0975C17.7134 81.9199 18.0651 82.618 18.62 83.2271C19.1748 83.8363 19.8354 84.3092 20.5969 84.6291C20.2025 84.8863 19.8069 85.1435 19.4445 85.3746Z" fill="black"/>
<path d="M26.2417 77.5199C26.2417 77.5199 25.3744 77.3659 25.0429 77.3315C24.3716 77.2628 23.6802 77.2556 23.0018 77.2782C21.4335 77.3315 19.7464 77.2071 18.2268 77.2556C18.3575 77.6645 18.4276 78.7738 18.5583 79.1827C18.5702 79.2194 18.8517 79.2099 18.8838 79.2324C18.923 79.2597 18.8874 78.7785 18.9337 78.7702C20.1385 78.5569 21.3135 78.9397 22.5337 79.0262C23.5673 79.0997 24.5118 79.3509 25.4908 79.4019C26.6266 79.5951 27.9704 79.3735 29.1074 79.5666C29.6266 79.6543 30.0341 79.8937 30.5105 80.1177C30.9869 80.3417 31.177 80.5432 31.316 81.0824C31.3137 81.8634 31.0321 82.3102 30.4879 82.872C30.065 83.3081 29.7014 83.4278 29.1062 83.5522C26.5435 84.0891 24.1946 84.9353 21.582 84.7539C21.178 84.7255 20.5139 83.7359 20.1171 83.8201C19.7202 83.9042 18.9694 84.7717 19.4339 85.3761C21.3919 86.0161 23.5079 86.0066 25.5597 85.8229C27.6924 85.6321 29.9284 85.3145 31.6321 84.0192C32.0788 83.679 32.4887 83.3081 32.7667 82.821C33.0447 82.3339 33.2253 81.6892 33.1612 81.15C33.2051 80.3156 32.901 79.6697 32.3283 79.2123C31.7545 78.7548 31.0487 78.5522 30.2931 78.3436C29.2345 78.0509 28.069 77.8245 26.8904 77.6716C26.5862 77.6301 26.3605 77.5424 26.2417 77.5199Z" fill="black"/>
<path d="M19.4053 85.2199C18.8398 86.2059 19.0002 87.922 19.5645 89.0526C20.1289 90.1844 21.2172 91.1941 22.4195 91.5924C24.1233 92.1565 25.9208 91.6172 27.665 91.1941C29.2214 90.8161 30.7766 90.438 32.3401 89.9379C33.0839 89.8135 33.8312 89.6879 34.5393 89.4283C35.2474 89.1688 35.9187 88.7635 36.3785 88.1685C36.8394 87.5736 37.0652 86.7713 36.8596 86.0483C36.6874 85.4404 36.2074 84.977 35.706 84.5906C35.1844 84.1889 34.7401 83.9578 34.1318 83.7397C33.6553 83.569 32.8451 83.3356 32.2914 83.5157C31.9528 83.6259 31.6688 83.9258 31.3789 84.1332C30.4285 84.8122 29.2843 85.1559 28.164 85.4889C29.2796 85.086 29.6717 87.0498 30.855 86.9715C32.0383 86.8933 33.7159 85.2898 34.563 86.1182C34.9611 86.5081 33.8074 85.9547 33.7278 86.5058C33.6565 86.9929 34.8708 87.7241 34.4466 87.9742C34.0213 88.223 32.9995 87.8367 32.5195 87.9505C30.9988 88.3107 30.2657 89.3904 28.7307 89.6807C27.2907 89.9533 25.9672 90.4321 24.5201 90.5151C23.5138 90.508 22.5158 90.1145 21.7779 89.4342C21.039 88.7528 20.5079 87.8509 20.4223 86.8507C20.3998 86.584 20.4235 86.2735 20.6409 86.1171C20.7764 86.0199 21.0425 86.1574 21.21 86.1502C22.0536 86.1147 22.9031 86.1052 23.6516 85.8943C22.2057 85.7378 20.8524 85.4321 19.4053 85.2199Z" fill="black"/>
<path d="M23.6206 91.8302C23.8048 93.3033 24.7422 94.6176 25.9564 95.478C27.1694 96.3384 28.6379 96.7816 30.1124 96.9902C32.4731 97.3232 34.9134 97.0791 37.0889 96.2851C38.0334 95.9615 38.9577 95.4531 39.6421 94.7278C40.3264 94.0025 40.7327 93.3756 40.7791 92.3801C40.8254 91.3846 40.5129 90.03 39.7383 89.4018C39.1668 88.9385 38.3803 88.7109 37.6579 88.5675C37.2041 88.4774 36.4366 88.3874 35.9839 88.4869C35.0655 88.6884 32.3151 90.0501 31.3824 90.1745C32.8117 90.0714 36.5756 89.819 37.9621 90.1805C38.4088 90.2966 38.9969 90.2468 39.2334 90.6439C39.528 91.1392 39.7882 91.7188 39.6635 92.3255C39.5399 92.9335 39.2191 93.4976 38.7462 93.8994C38.2734 94.3012 37.5617 94.4055 36.9879 94.6448C34.5594 95.6605 31.923 96.0634 29.434 95.2967C28.5904 95.0348 27.7528 94.8262 26.9853 94.39C26.2178 93.9539 24.7089 91.7685 24.9453 91.8894C25.1188 91.9783 25.5275 92.0897 25.701 92.0553C28.6653 91.4758 31.3207 90.3985 34.2327 89.5986C30.6803 90.3061 27.135 91.0527 23.6206 91.8302Z" fill="black"/>
<path d="M58.2631 100.526C55.6529 102.017 52.7539 103.092 49.7742 103.502C48.1393 103.76 46.621 103.52 45.137 102.824C43.6483 102.126 42.4282 100.792 41.347 99.5547C40.2658 98.3174 39.0136 96.759 37.9075 95.5809C38.2675 95.4482 38.7106 95.3356 38.9542 95.0405C40.2183 96.3845 41.5276 97.7805 42.7442 99.0925C43.9596 100.403 45.3877 101.613 47.1164 102.08C48.6383 102.493 50.2744 102.247 51.7927 101.821C54.6632 101.015 57.2176 99.5511 59.6639 97.9927C59.3395 98.9194 58.9985 100.107 58.2631 100.526Z" fill="black"/>
<path d="M57.7332 92.2558C58.2168 92.897 58.7467 93.5429 59.2967 94.1271C59.5997 94.4601 59.9716 94.8963 60.4112 95.1949C60.8508 95.4936 61.4745 95.6346 61.9616 95.4225C62.3846 95.2388 62.7268 94.7884 62.8503 94.3452C62.9739 93.902 62.9466 93.5903 62.8777 93.1221C62.9965 93.7325 62.9893 94.2136 62.8872 94.8287C62.785 95.4426 62.5426 96.0316 62.1208 96.4903C61.5458 97.1148 60.7308 97.4787 59.9656 97.8484C59.8254 97.916 59.5985 97.9705 59.5854 98.1092C59.5712 98.249 59.4559 98.3568 59.4167 98.4908C59.3312 98.7811 59.2457 99.0715 59.1613 99.3606C60.2437 98.6638 61.3581 98.0973 62.5973 97.8543C63.0286 97.6908 63.4123 97.1954 63.6428 96.7984C63.8733 96.4002 64.1501 95.8147 64.2511 95.3668C64.4709 94.3843 64.4162 93.2857 64.2452 92.2937C64.0741 91.3018 63.5917 90.4343 62.8444 89.7588C62.0971 89.0832 61.0385 88.7526 60.05 88.9541C59.33 89.0998 58.6754 89.5988 58.2679 90.2079C57.8591 90.8194 57.353 91.751 57.7332 92.2558Z" fill="black"/>
<path d="M62.2099 91.3144C61.8321 90.7408 61.1513 90.3781 60.4634 90.3829C60.1747 90.3852 59.8836 90.4492 59.633 90.5914C59.3823 90.7337 59.1732 90.9565 59.071 91.2255C58.9486 91.5455 58.9819 91.9057 59.0662 92.2376C59.1862 92.7069 59.406 93.1501 59.7066 93.5294C59.9312 93.8126 60.2104 94.0662 60.5549 94.1788C60.8995 94.2914 61.3129 94.2345 61.5612 93.9726C61.7109 93.8138 61.7882 93.5957 61.8036 93.3777C61.8202 93.1596 61.7798 92.9416 61.7228 92.7306C61.6705 92.541 61.5981 92.3466 61.4519 92.2151C61.3058 92.0835 61.067 92.0349 60.9102 92.1546C61.1442 92.2921 61.2096 92.6382 61.0682 92.8704C60.9268 93.1027 60.6203 93.207 60.3553 93.1466C60.0904 93.085 59.8718 92.8787 59.7589 92.631C59.646 92.3834 59.6294 92.1001 59.671 91.8323C59.7149 91.5467 59.8385 91.2539 60.0832 91.0987C60.2923 90.9659 60.5561 90.9553 60.8032 90.9719C61.301 91.005 61.7953 91.1342 62.2099 91.3144Z" fill="#826C47"/>
<path d="M53.6701 85.1225C55.0721 87.0175 56.5489 88.8557 58.1326 90.6061C57.6455 91.0304 57.516 91.809 57.8403 92.366C55.8645 90.183 54.0824 87.7345 52.4404 85.3584C51.8488 84.9708 51.6967 84.7492 51.124 84.5892C52.0258 84.7741 53.0701 84.2218 53.6701 85.1225Z" fill="black"/>
<path d="M50.0882 62.133C49.7225 62.2278 49.6049 62.7315 49.2546 62.8701C48.9946 62.9732 48.6941 62.8417 48.421 62.9057C48.8818 62.4293 49.1727 61.7905 49.2285 61.1304C49.4577 61.5132 49.7426 61.8616 50.0882 62.133Z" fill="black"/>
<path d="M57.1332 27.3553C60.8021 25.5823 64.6681 24.1305 68.5817 22.8518C70.0633 22.4891 71.5436 22.1265 73.0252 21.765C74.3927 21.4308 75.7851 20.9745 77.1918 21.0516C79.4349 21.1748 81.4773 22.4512 83.2927 23.7169C81.8456 25.3453 80.4935 27.0578 79.246 28.8426C77.9237 30.7353 76.6988 32.7594 76.2176 35.0159L76.1427 35.0147C76.1427 35.0147 76.2794 35.0598 76.2853 35.1546C75.8315 36.8114 75.7269 38.4812 75.8635 40.1938C75.9574 41.3765 81.4226 47.1445 81.5605 47.1505C77.079 47.2346 72.6153 48.1519 68.4724 49.8016C67.7096 50.0647 66.9469 50.3278 66.1627 50.5115C67.9437 48.2064 69.0332 45.4308 69.6949 42.5972C70.3567 39.7636 70.5444 36.9856 70.8605 34.1698C70.188 35.2814 69.1401 35.9628 68.0209 36.6265C64.4792 38.7254 60.3993 39.9425 57.1201 42.3661C52.5531 46.1893 49.5401 51.9656 49.1278 57.915C49.1825 58.0643 49.1017 58.2361 48.9769 58.3357C48.8522 58.4352 48.693 58.4779 48.5373 58.5146C46.7695 58.9365 44.878 58.9626 43.16 58.3724C41.442 57.7822 39.7799 56.5533 39.0587 54.8419C39.7989 50.1251 41.1723 45.4711 42.8808 41.0079C43.3275 40.9463 43.7802 40.9297 44.2186 40.9902C44.8899 42.0117 45.6919 42.9468 46.5972 43.7681C47.0071 44.1402 47.4538 44.497 47.9849 44.6581C48.5433 44.8276 49.1647 44.76 49.6862 44.4993C50.2078 44.2374 50.6272 43.7894 50.8518 43.3118C51.0763 42.775 51.0751 42.1492 50.8494 41.6135C51.649 41.5946 52.4272 41.1679 52.8715 40.5043C53.3159 39.8406 53.4121 38.96 53.1495 38.2324C52.9143 37.7394 52.5115 37.3281 52.0244 37.0816C52.407 37.2108 52.8074 37.3068 53.2113 37.2926C53.6153 37.2783 54.0252 37.1432 54.3174 36.8766C54.7832 36.617 55.2133 36.2532 55.4259 35.7649C55.6053 35.3525 55.6148 34.8856 55.5519 34.4411C55.401 33.3745 54.8081 32.3435 53.8695 31.809C54.498 31.9287 55.2002 32.1539 55.8311 31.9168C56.3669 31.7142 56.8445 31.3491 57.1665 30.8585C57.4896 30.3679 57.6785 29.7943 57.6583 29.2076C57.6358 28.5641 57.3447 27.9265 57.1332 27.3553Z" fill="#9DC42D"/>
<path d="M54.9637 29.4365C54.8829 29.6723 54.6976 29.875 54.4611 29.9532C54.2247 30.0314 53.9419 29.9722 53.772 29.7908C53.5665 29.5704 53.557 29.2232 53.6604 28.9411C53.8065 28.5417 54.1606 28.2241 54.5752 28.1222C54.9887 28.0203 55.4508 28.1352 55.7669 28.4208C56.0829 28.7064 56.2457 29.1521 56.1862 29.574C56.1577 29.7754 56.0781 29.9745 55.9368 30.1227C55.7954 30.2708 55.5898 30.3621 55.3867 30.3396C55.6884 30.5446 56.1292 30.5173 56.4025 30.2744C56.614 30.0859 56.7161 29.8003 56.7494 29.5194C56.8207 28.9269 56.6104 28.3035 56.1862 27.8828C55.7621 27.4621 55.1312 27.2547 54.5407 27.3542C53.9503 27.4538 53.4192 27.8615 53.1804 28.409C52.9428 28.9565 53.0105 29.6285 53.3622 30.1108C53.4893 30.285 53.652 30.4355 53.8481 30.528C54.0429 30.6192 54.2722 30.6477 54.479 30.5849C54.7071 30.5138 54.896 30.3289 54.978 30.1049C55.0611 29.8797 55.0374 29.6214 54.9637 29.4365Z" fill="#ACA69E"/>
<path d="M54.1928 35.3364C54.1654 34.9927 54.1108 34.6467 53.9765 34.3279C53.8423 34.0091 53.6237 33.7187 53.3243 33.5457C53.0249 33.3727 52.6399 33.3324 52.3286 33.4852C52.0186 33.6381 51.8106 33.9996 51.8819 34.3385C51.9306 34.5732 52.1255 34.7841 52.3643 34.8067C52.6031 34.8304 52.8526 34.623 52.8336 34.3836C52.8989 34.6289 52.956 34.8861 52.9084 35.1361C52.8621 35.3862 52.6863 35.6279 52.4368 35.6801C52.2146 35.7263 51.9889 35.6173 51.8011 35.4893C51.4958 35.2819 51.2202 35.0022 51.1061 34.6514C50.9825 34.2698 51.0645 33.8467 51.2261 33.4793C51.4685 32.9306 51.9247 32.4435 52.5104 32.3155C52.9916 32.2101 53.5155 32.3653 53.8862 32.6888C54.2569 33.0124 54.4791 33.4912 54.523 33.9806C54.5706 34.4689 54.4446 34.9667 54.1928 35.3364Z" fill="#ACA69E"/>
<path d="M50.8576 39.046C50.9503 39.1645 50.9729 39.334 50.9146 39.4714C50.8564 39.6101 50.7198 39.712 50.5701 39.7286C50.317 39.7571 50.0842 39.5449 50.0093 39.302C49.881 38.8884 50.1507 38.4072 50.5582 38.2591C50.9657 38.1109 51.454 38.278 51.7226 38.6193C51.9911 38.9607 52.0433 39.443 51.9008 39.8531C52.1301 39.4857 52.2928 39.0638 52.2857 38.63C52.2786 38.1962 52.079 37.7542 51.7119 37.5207C51.3923 37.3181 50.9847 37.2944 50.6164 37.3773C50.1685 37.4769 49.7503 37.7317 49.483 38.1038C49.2145 38.4759 49.1064 38.9654 49.2252 39.4086C49.3428 39.8519 49.6945 40.2323 50.1364 40.3567C50.443 40.4432 50.8196 40.3828 50.9978 40.1197C51.1071 39.9597 51.1238 39.7511 51.0869 39.5603C51.0489 39.3683 50.9622 39.1918 50.8576 39.046Z" fill="#ACA69E"/>
<path d="M48.4223 42.5331C48.515 42.6065 48.5233 42.7571 48.4509 42.8507C48.3796 42.9443 48.2465 42.9799 48.1313 42.9514C48.016 42.923 47.921 42.84 47.858 42.7393C47.7653 42.59 47.7404 42.4003 47.7938 42.232C47.8461 42.0638 47.9756 41.9215 48.1372 41.8528C48.3748 41.7509 48.6564 41.8101 48.8762 41.9452C49.197 42.1443 49.4132 42.5248 49.3598 42.8981C49.3063 43.2714 48.9475 43.5914 48.572 43.5511C48.9534 43.7111 49.4477 43.6222 49.6912 43.2892C49.8302 43.0984 49.8766 42.8531 49.8611 42.6172C49.835 42.2202 49.633 41.835 49.3134 41.5956C48.9938 41.3562 48.5614 41.2709 48.1776 41.3823C47.7938 41.4937 47.4719 41.8018 47.3554 42.1835C47.277 42.4418 47.2948 42.7381 47.4469 42.9609C47.599 43.1837 47.896 43.3141 48.1538 43.2335C48.4128 43.1529 48.5839 42.8388 48.4223 42.5331Z" fill="#ACA69E"/>
<path d="M66.7151 30.2386C68.372 30.2386 69.7151 29.05 69.7151 27.5839C69.7151 26.1177 68.372 24.9292 66.7151 24.9292C65.0583 24.9292 63.7152 26.1177 63.7152 27.5839C63.7152 29.05 65.0583 30.2386 66.7151 30.2386Z" fill="black"/>
<path d="M67.9182 26.8604C68.3812 26.8604 68.7565 26.4858 68.7565 26.0237C68.7565 25.5616 68.3812 25.187 67.9182 25.187C67.4552 25.187 67.0798 25.5616 67.0798 26.0237C67.0798 26.4858 67.4552 26.8604 67.9182 26.8604Z" fill="white"/>
<path d="M63.5063 85.8084C72.8424 84.1563 81.0889 78.6846 86.6373 71.0156C85.7783 73.8789 84.5617 76.4234 82.9447 79.0034C81.3277 81.5846 79.3306 83.9857 76.5766 85.2976C74.6008 86.2386 72.2186 86.542 70.0302 86.5953C67.8429 86.6475 65.5701 86.2232 63.5063 85.8084Z" fill="#228EC0"/>
<path d="M64.0835 69.6247C63.6058 68.276 62.9809 66.9831 62.3096 65.7209C61.7667 64.7171 61.2071 63.7145 60.5322 62.7913C60.3754 62.5851 60.2126 62.3848 60.0427 62.1904C59.9239 62.0589 59.817 61.8977 59.6269 61.8752C59.2348 61.7993 58.9081 62.2805 59.1517 62.6088C60.2851 63.8686 61.0645 65.395 61.8546 66.8812C62.0981 67.3362 62.9072 69.0677 63.215 70.0099C63.6605 71.4368 63.8589 72.309 63.9635 73.8023C64.0442 75.5338 63.872 76.9441 63.4205 78.7834C63.0688 80.1617 62.8538 80.9699 62.211 82.2629C62.1172 82.4454 62.0185 82.6267 61.9164 82.8045C61.8605 82.9017 61.7881 82.9977 61.7964 83.115C61.7512 83.4907 62.2348 83.7372 62.5306 83.512C62.7148 83.3686 62.7884 83.1269 62.912 82.9349C63.1425 82.5153 63.3456 82.0816 63.5239 81.6372C64.3448 79.4174 64.8914 77.0697 64.9258 74.6971C64.9531 72.9727 64.624 71.2578 64.0835 69.6247Z" fill="black"/>
<path d="M39.0913 31.073C39.0757 31.1658 39.0637 31.2585 39.0577 31.3525C39.0805 31.387 39.1021 31.4226 39.1248 31.4583C39.1033 31.3299 39.0901 31.2014 39.0913 31.073Z" fill="black"/>
<path d="M39.2955 30.1416C39.2848 30.2011 39.2681 30.2605 39.2574 30.32C39.2443 30.3949 39.2277 30.4686 39.2098 30.5424C39.2633 30.4342 39.3335 30.3354 39.4263 30.257C39.3799 30.2201 39.3371 30.182 39.2955 30.1416Z" fill="black"/>
<path d="M44.151 40.8831C44.1332 40.8974 44.1189 40.9045 44.0975 40.9128C44.0548 40.9295 44.0773 40.9188 44.0868 40.9152C44.056 40.9271 44.0263 40.9378 43.9942 40.9473C43.9372 40.9628 43.8802 40.9723 43.822 40.9747C43.7674 40.9782 43.7116 40.9758 43.657 40.9735C43.7698 40.983 43.8838 40.9925 43.9966 41.0008C44.0762 41.0068 44.1652 41.0103 44.2222 40.9544C44.2258 40.9057 44.2186 40.8569 44.2056 40.8105C44.1949 40.8379 44.1783 40.8629 44.151 40.8831Z" fill="black"/>
<path d="M71.8856 20.9385C72.5117 19.1549 72.0282 16.9375 70.6547 15.6339C69.8777 14.8967 68.9059 14.4867 67.871 14.2058C67.5027 14.1062 67.0655 14.0577 66.6829 14.0505C66.273 14.0434 65.9261 13.97 65.5174 14.0079C65.1063 14.0458 64.6655 14.124 64.3115 14.2141C62.4699 14.5436 60.8268 15.3388 59.0851 16.0179C57.4122 16.6697 56.5473 16.9849 54.7485 17.3049C52.9866 17.5751 50.2159 17.9164 48.4373 17.7944C48.0643 17.7683 47.589 17.7932 47.4512 18.1404C47.317 18.477 47.6318 18.823 47.9479 19.002C48.2401 19.1679 48.5609 19.2841 48.8924 19.3433C49.3795 19.431 49.8797 19.3967 50.3727 19.3564C52.3735 19.194 54.3636 18.9262 56.3061 18.4189C58.9294 17.7327 61.4838 16.2181 64.2164 15.6244C65.7229 15.2973 67.2936 15.2617 68.6944 15.9041C70.0951 16.5464 71.2416 18.0077 71.0314 19.5318C70.9351 20.2322 70.5822 20.8769 70.1462 21.4351C70.7224 21.1862 71.3331 21.0167 71.8856 20.9385Z" fill="black"/>
<path d="M79.6868 104.151C79.922 104.74 79.7806 105.426 79.467 105.978C79.0226 106.762 78.1316 107.367 77.2452 107.195C76.3779 107.027 75.8065 106.214 75.3787 105.443C73.9756 102.908 73.1142 100.093 72.6901 97.2273C72.6022 96.6359 72.5344 96.022 72.6984 95.4472C72.9455 94.5809 73.8972 93.7868 74.7716 93.5652C75.6461 93.3436 76.5371 93.6328 77.3142 94.0973C77.0623 94.5252 77.2298 95.0881 77.2999 95.5788C77.7241 98.5558 78.5973 101.42 79.6868 104.151Z" fill="black"/>
<path d="M79.4881 93.3699C78.4438 93.8013 78.0779 94.7991 78.0577 95.8314C78.0494 96.2758 78.1599 96.8956 78.249 97.3318C78.5674 98.8866 78.9963 100.42 79.5297 101.916C79.74 102.505 79.9717 103.096 80.3376 103.603C80.5693 103.925 80.8544 104.208 81.1764 104.439C81.4022 104.6 81.654 104.74 81.9297 104.77C82.4702 104.828 82.9669 104.457 83.3055 104.031C83.7973 103.413 84.0813 102.649 84.2322 101.874C84.3831 101.099 84.408 100.305 84.427 99.5159C84.446 98.7338 84.4591 97.9409 84.2654 97.1836C84.048 96.3363 83.5787 95.5695 83.018 94.8975C82.5582 94.3464 82.02 93.8416 81.3677 93.5394C80.7154 93.2348 79.9456 93.1803 79.4881 93.3699Z" fill="#998514"/>
<path d="M76.1486 94.9563C75.9692 94.8982 75.7744 94.9065 75.5867 94.9243C74.9546 94.9836 74.2643 95.1898 73.9507 95.7397C73.8045 95.9968 73.7594 96.2967 73.7285 96.5906C73.6501 97.3514 73.6489 98.1206 73.7225 98.8708C73.7974 99.5202 74.0053 100.146 74.212 100.766C74.5186 101.688 74.8275 102.615 75.2885 103.47C75.7494 104.326 76.3732 105.115 77.1966 105.632C77.4164 105.771 77.6884 105.891 77.9296 105.792C78.1803 105.689 78.2849 105.395 78.3348 105.129C78.4916 104.306 78.4001 103.452 78.2076 102.636C78.0152 101.819 77.7264 101.03 77.4829 100.228C77.0671 98.8601 76.7914 97.1926 76.6999 95.7918C76.6762 95.4149 76.3281 95.0144 76.1486 94.9563Z" fill="#998514"/>
<path d="M72.2138 97.03C72.0165 96.7847 71.6958 96.6709 71.3821 96.633C71.0423 96.5915 70.6835 96.6306 70.3841 96.7965C69.853 97.0904 69.6023 97.7174 69.4966 98.3135C69.2388 99.7712 69.6142 101.261 70.0514 102.675C70.2855 103.432 70.5409 104.187 70.9069 104.891C71.2728 105.595 71.7575 106.248 72.3884 106.729C72.5868 106.881 72.8066 107.017 73.0538 107.056C73.504 107.128 73.9614 106.844 74.1848 106.447C74.4082 106.05 74.4272 105.566 74.3416 105.12C74.2561 104.673 74.0719 104.251 73.9068 103.828C73.6169 103.088 73.3757 102.33 73.1357 101.573C72.7544 100.372 72.3694 99.149 72.3658 97.8904C72.3658 97.5467 72.3456 97.1947 72.2138 97.03Z" fill="#998514"/>
<path d="M68.0735 98.2703C68.001 97.9562 67.59 97.8199 67.2894 97.9361C66.9888 98.0522 66.7904 98.3402 66.6514 98.6317C66.1571 99.6675 66.1999 100.873 66.346 102.011C66.5729 103.769 67.0517 105.552 68.146 106.948C68.4216 107.3 68.8078 107.653 69.2521 107.596C69.586 107.553 69.8569 107.274 69.9555 106.954C70.0541 106.634 70.0054 106.283 69.8913 105.968C69.7773 105.652 69.6632 105.273 69.5064 104.977C68.5369 103.149 68.146 101.132 68.1341 99.0643C68.1329 98.7502 68.1115 98.4338 68.0735 98.2703Z" fill="#998514"/>
<path d="M65.1551 98.8082C65.2205 98.6636 65.0648 98.4953 64.9056 98.4918C64.7464 98.4882 64.6062 98.5937 64.4933 98.7063C64.0526 99.1472 63.8268 99.7563 63.6771 100.361C63.5654 100.811 63.4906 101.27 63.4478 101.732C63.3124 103.222 63.5369 104.743 64.0965 106.131C64.2106 106.414 64.3413 106.696 64.5409 106.926C64.7535 107.172 65.0434 107.351 65.3583 107.432C65.4664 107.46 65.5805 107.476 65.6874 107.45C65.8466 107.411 65.9714 107.281 66.0379 107.131C66.1044 106.982 66.1187 106.815 66.1187 106.653C66.1163 105.813 65.7409 105.028 65.4783 104.231C65.0066 102.8 64.8902 101.253 65.1432 99.767C65.2086 99.3925 65.2929 98.9955 65.1551 98.8082Z" fill="#998514"/>
<path d="M62.0613 99.0273C61.156 98.9384 60.2732 99.493 59.7718 100.252C59.2705 101.009 59.0958 101.937 59.0459 102.843C59.0138 103.445 59.0328 104.057 59.2004 104.635C59.3156 105.03 59.4974 105.401 59.6827 105.767C59.855 106.106 60.0332 106.447 60.2899 106.727C60.4455 106.897 60.6285 107.041 60.8293 107.154C61.2332 107.38 61.7607 107.464 62.1504 107.213C62.5104 106.981 62.6613 106.518 62.6506 106.092C62.6399 105.665 62.4962 105.253 62.388 104.839C62.1671 103.995 62.091 103.114 62.1635 102.245C62.2336 101.415 62.4368 100.602 62.514 99.7739C62.5318 99.5867 62.5401 99.3864 62.4474 99.2228C62.3571 99.0593 62.1278 98.9597 62.0613 99.0273Z" fill="#998514"/>
<path d="M29.5256 69.5193C30.2932 69.4944 29.7074 68.7359 29.4888 68.3507C29.2512 67.9324 28.9958 67.5259 28.7166 67.1336C28.1629 66.3562 27.5962 65.587 27.0164 64.8297C26.7621 64.4979 26.5043 64.166 26.2073 63.8709C25.8461 63.5107 25.4303 63.2096 25.0002 62.9347C24.6568 62.7154 24.2992 62.5116 23.9083 62.399C23.5174 62.2864 23.0862 62.271 22.7095 62.4251C22.0882 62.6787 21.7282 63.3365 21.5583 63.9847C21.2993 64.9731 21.3765 66.0326 21.6878 67.0068C21.9991 67.981 22.5349 68.8722 23.1883 69.7113C25.4018 69.6378 27.3194 69.5667 29.5256 69.5193Z" fill="#196A8E"/>
<path d="M17.5993 81.0339C17.7383 82.2238 18.4583 83.3105 19.4432 83.9943C20.4294 84.6781 21.6579 84.9732 22.8566 84.9223C23.636 84.8891 28.8185 84.357 30.4046 83.5262C30.767 83.3366 31.1175 83.0936 31.3361 82.7488C31.5535 82.4051 31.6224 81.9844 31.6177 81.5779C31.6141 81.2851 31.5737 80.9865 31.4394 80.7269C31.1187 80.1048 30.3678 79.8582 29.6858 79.6959C26.5825 78.9587 23.377 78.7798 20.1917 78.6044C19.89 78.5878 19.5858 78.5712 19.2888 78.6198C18.7268 78.7122 18.2088 79.0488 17.8975 79.5252C17.5862 80.0028 17.5494 80.599 17.5993 81.0339Z" fill="#196A8E"/>
<path d="M21.0628 86.0979C20.8157 86.0979 20.5401 86.0102 20.4129 86.2366C20.2858 86.4617 20.3215 86.7414 20.3785 86.9927C20.571 87.8365 20.9785 88.6305 21.5523 89.28C21.9812 89.7659 22.5159 90.1783 23.1361 90.3691C23.5602 90.4995 24.0093 90.5232 24.4537 90.5137C26.4877 90.471 28.4409 89.7671 30.4345 89.357C31.5834 89.1212 32.7584 88.9801 33.8646 88.5926C34.5572 88.3496 35.2891 87.9242 35.453 87.2096C35.5718 86.6893 35.3414 86.1346 34.9659 85.753C34.5905 85.3726 34.0903 85.1415 33.5842 84.9673C33.1089 84.8037 32.6159 84.6829 32.1145 84.6651C31.0072 84.6236 24.2659 85.8656 23.3024 85.9498C22.5028 86.0197 21.7008 86.0896 21.0628 86.0979Z" fill="#196A8E"/>
<path d="M24.8838 91.8817C25.0264 92.5798 25.4422 93.2031 25.9697 93.6843C26.4972 94.1643 27.134 94.5115 27.7899 94.7948C31.0441 96.1991 34.9398 96.0261 38.0562 94.3409C38.7097 93.9877 39.3702 93.5196 39.6007 92.8156C39.7124 92.4755 39.7112 92.1081 39.6779 91.7514C39.6399 91.3283 39.5437 90.8791 39.2348 90.5852C39.0328 90.3932 38.7619 90.2913 38.4946 90.2083C37.878 90.0187 37.2412 89.8184 36.602 89.7283C35.945 89.6359 35.282 89.6537 34.6202 89.6904C33.5902 89.7473 32.6088 90.1147 31.6025 90.3363C29.3439 90.8353 27.0675 91.4006 24.8838 91.8817Z" fill="#196A8E"/>
<path d="M37.7209 69.1958C35.8164 69.3226 33.8239 69.3474 31.9194 69.4743C31.7483 69.4861 31.5737 69.4968 31.4061 69.4577C31.2386 69.4186 31.077 69.3214 31.001 69.1673C30.925 69.0121 30.8525 68.8047 30.9273 68.6482C31.0022 68.4918 31.1721 68.3709 31.2909 68.2394C33.1491 66.176 35.0762 64.0369 36.9225 61.9878C36.9213 64.3782 37.1862 66.9665 37.7209 69.1958Z" fill="#196A8E"/>
<path d="M75.7508 38.0239C75.8173 35.5386 76.6918 33.1281 77.9119 30.9593C79.1321 28.7905 80.6933 26.8363 82.2473 24.8915C82.8318 24.1602 83.4235 23.4219 84.216 22.8779C85.2413 23.5902 86.3652 24.1472 87.4179 24.8156C91.4004 27.3447 94.2078 31.3717 96.2418 35.6287C97.4989 38.4114 98.3115 41.392 98.6394 44.4259C98.6727 44.734 98.6976 45.0647 98.5016 45.3859C98.1761 45.707 97.6747 45.7461 97.2173 45.7781C92.819 46.0851 88.5181 47.4669 84.1079 47.4326C82.2437 47.4184 80.3131 47.1233 78.746 46.0483C77.4819 45.1951 76.4839 43.8736 76.0965 42.4005C75.8898 41.6136 75.7769 40.7378 75.7318 39.926C75.6938 39.2149 75.7365 38.5643 75.7508 38.0239Z" fill="black"/>
<path d="M78.2738 33.2032C78.1669 32.9839 78.2964 32.7279 78.4223 32.5194C80.1225 29.7213 82.0341 27.0524 84.1976 24.5352C84.8749 24.7722 85.5046 25.1253 86.1105 25.5081C88.4546 26.9848 90.5147 28.9249 92.0902 31.1979C94.3262 34.3942 96.056 37.9804 96.8509 41.8072C96.0952 40.9077 94.9642 40.3933 93.8153 40.1421C92.6664 39.8908 91.4819 39.8754 90.3068 39.8067C88.7326 39.7155 87.1643 39.5294 85.6139 39.2485C84.2582 39.0032 82.88 38.6702 81.724 37.9283C80.7118 37.2314 79.9015 36.2644 79.3063 35.1894C78.9332 34.5163 78.5791 33.8325 78.2738 33.2032Z" fill="#F2CF0B"/>
<path d="M93.1787 41.4491C94.008 41.583 94.8871 41.8271 95.5608 42.3272C96.2582 42.8439 96.7109 43.6095 97.0055 44.4486C93.9996 44.3668 91.0817 45.3694 88.1091 45.8257C86.7546 46.0331 85.3836 46.1279 84.0327 46.167C83.2628 46.1054 82.4953 46.0035 81.7361 45.8636C81.2146 45.7677 80.6918 45.6503 80.2142 45.4228C79.7473 45.2 79.335 44.8776 78.9595 44.5221C78.3738 43.9686 77.8618 43.3192 77.5766 42.5666C77.4043 42.1127 77.3188 41.6327 77.2404 41.1137C77.1608 40.367 77.0301 39.6477 76.9921 38.8868C77.0028 38.2421 77.0337 37.5962 77.1287 36.9574C77.2368 36.2321 77.4293 35.5222 77.617 34.8396C77.7536 35.5933 78.1837 36.2594 78.6518 36.8662C79.1829 37.5559 79.7793 38.203 80.4744 38.728C81.9369 39.8325 83.763 40.3469 85.5737 40.6337C87.3843 40.9205 92.3494 41.3163 93.1787 41.4491Z" fill="#F2CF0B"/>
<path d="M85.722 29.2889C86.1732 29.2889 86.539 28.9239 86.539 28.4736C86.539 28.0233 86.1732 27.6582 85.722 27.6582C85.2708 27.6582 84.905 28.0233 84.905 28.4736C84.905 28.9239 85.2708 29.2889 85.722 29.2889Z" fill="black"/>
</svg>
