<svg width="144" height="46" viewBox="0 0 144 46" fill="none" xmlns="http://www.w3.org/2000/svg">
<g clip-path="url(#clip0_56_3796)">
<path fill-rule="evenodd" clip-rule="evenodd" d="M9.6363 8.00063L1.62296 25.914L0 26.5223V27.3813H5.07926V26.5223L2.89277 25.914L5.00787 21.0956H13.7275L15.8164 25.914L14.1933 26.5223V27.3813H20.8242V26.5223L19.1598 25.914L11.1616 8.00063H9.6363ZM50.537 15.6983C48.8799 14.9485 47.0676 14.5875 45.2436 14.6439C40.6415 14.6439 38.132 16.8338 38.132 21.0808C38.132 24.7859 40.48 27.3739 43.7034 27.3739C44.3987 27.4057 45.0935 27.2982 45.7452 27.0579C46.3969 26.8177 46.9919 26.4498 47.494 25.9767V27.0053L47.9073 27.3739L52.0998 26.7804V26.0024L50.5972 25.4605L50.5633 15.7057L50.537 15.6983ZM47.4527 24.9628C46.7915 25.7997 45.5743 26.0062 44.5712 26.0062C42.4485 26.0062 40.4725 24.3582 40.4725 21.0845C40.4725 17.5969 42.5989 15.6762 44.8867 15.6762C45.7925 15.6249 46.691 15.8615 47.449 16.3509V24.9702L47.4527 24.9628ZM68.6638 27.4219V26.5739L67.0972 26.0468L62.9046 19.0975L66.2331 16.1075L67.7359 15.5546V14.6956H62.4387V15.5546L64.5125 16.1075L59.0388 21.0623L59.0688 14.9167L58.6443 14.5296L54.3389 15.138V15.9417L55.9055 16.4946L55.8755 25.8292L54.309 26.5223V27.4366H60.6017V26.5739L59.0351 26.0209V22.7251L60.7293 21.1177L64.6515 27.4292L68.6638 27.4219ZM13.2203 19.9601H5.5188L9.39211 11.2117L13.2203 19.9601ZM23.3638 26.4116C25.0595 27.1798 26.9144 27.5497 28.7812 27.4918C33.4923 27.4918 36.0619 25.2503 36.0619 20.9001C36.0469 17.1104 34.1271 14.5481 30.8287 14.5481C29.247 14.5481 27.5001 15.1011 26.512 16.0706L26.4256 15.9859L26.512 14.6551V6.80617L26.0875 6.4375L21.7897 7.03105V7.83473L23.3563 8.38773V26.4116H23.3638ZM26.5083 17.1656C26.875 16.7586 27.327 16.4341 27.8335 16.2146C28.34 15.9951 28.8888 15.8856 29.4424 15.8937C31.6138 15.8937 32.8235 17.737 32.8235 21.055C32.8235 24.6273 31.4673 26.4264 29.1268 26.4264C28.1969 26.4799 27.2745 26.2368 26.497 25.7334V17.1656H26.5083ZM83.5447 14.8394L83.1502 14.4523L79.044 15.0605V16.0559L80.4114 16.6089V24.5573C79.4859 25.5235 78.2081 26.0907 76.8575 26.1352C75.3885 26.1352 74.517 25.1656 74.517 23.5324V14.8394L74.0924 14.4523L70.0125 15.0605V16.0559L71.3537 16.6089V23.6136C71.3537 25.855 72.7362 27.4882 75.3322 27.4882C77.0529 27.4882 79.2243 26.7951 80.3814 25.6892L80.4678 25.7739L80.3964 27.1858L80.821 27.5729L84.9047 27.1047V26.1647L83.5372 25.4716V14.8394H83.5447ZM87.6772 27.2448L88.128 26.8025C89.2983 27.2814 90.557 27.5174 91.8247 27.4956C95.4651 27.4956 97.3549 26.2495 97.2722 23.7573C97.2158 22.0652 96.5583 21.2246 95.1834 20.6015C94.7896 20.4115 94.3844 20.2453 93.9699 20.1038L92.5874 19.6872C90.6 19.09 89.9576 18.8283 89.9576 17.7223C89.9576 16.5057 90.9719 15.6725 92.4671 15.6725C93.9624 15.6725 94.9204 16.5315 95.375 18.2199H96.502V15.2265L96.1638 14.8946L95.713 15.337C94.5804 14.791 93.3306 14.5204 92.069 14.5481C88.8794 14.5481 87.2714 15.7941 87.2714 18.2863C87.2637 19.1652 87.5738 20.0182 88.1468 20.6937C88.44 20.9959 88.7962 21.2324 89.1912 21.3868C89.5573 21.5495 89.9337 21.6887 90.3183 21.8034L91.6181 22.172C92.4154 22.3514 93.1884 22.6224 93.9211 22.9795C94.1289 23.1061 94.297 23.2869 94.4064 23.5016C94.5159 23.7164 94.5624 23.9568 94.5409 24.196C94.5409 25.6707 93.3576 26.3822 91.6895 26.3822C90.0215 26.3822 88.8944 25.5232 88.4436 23.8348H87.2865V26.9094L87.6772 27.2448Z" fill="#312A20"/>
<path fill-rule="evenodd" clip-rule="evenodd" d="M128.45 41.1934C128.611 41.3703 130.791 42.5427 131.203 42.7934L132.169 43.3206C132.733 43.0514 133.672 41.4773 133.709 40.622C132.924 40.2534 132.207 39.7556 131.425 39.3354C131.095 39.1547 130.974 39.0994 130.674 38.8929C130.374 38.6865 130.253 38.8118 129.885 39.0146C129.576 39.1805 128.288 40.1612 127.946 40.7068C127.732 41.0017 128.596 40.9427 128.45 41.1934Z" fill="#B35462"/>
<path fill-rule="evenodd" clip-rule="evenodd" d="M107.975 18.2698L113.603 18.7637L117.285 9.6836L128.6 9.13429L136.346 6.4541L137.853 11.8698L122.577 14.6606L117.953 19.5822L117.675 23.302L111.71 26.915L109.869 25.8753L108.531 19.8587L107.975 18.2698Z" fill="white"/>
<path fill-rule="evenodd" clip-rule="evenodd" d="M101.985 14.6086C102.274 14.6727 102.57 14.7061 102.867 14.7082C103.585 14.911 104.637 15.1359 105.193 15.5672C105.358 15.6962 106.966 17.0824 107.071 17.1525C107.188 16.9902 107.999 12.7285 108.048 12.4704C108.27 11.3644 107.041 9.20036 106.004 8.51465L105.745 8.82064C105.651 8.93493 105.561 9.03078 105.471 9.14876C105.283 9.38469 105.118 9.59852 104.934 9.84921L104.182 10.9147C104.126 11.0326 102.064 14.5128 101.985 14.6086Z" fill="#E1C544"/>
<path fill-rule="evenodd" clip-rule="evenodd" d="M103.836 25.7278C103.949 26.3066 106.668 28.854 107.153 29.6504C107.337 29.5987 107.194 29.6762 107.397 29.5471C107.499 29.3296 107.664 29.1379 107.773 28.8467C107.839 28.6553 107.916 28.4681 108.005 28.2863C108.133 27.9987 108.07 28.0577 108.261 27.8734C108.366 27.1361 108.712 26.6826 108.55 25.7351C107.702 25.4349 106.819 25.2405 105.921 25.1563C105.733 25.1158 105.545 25.0641 105.369 25.0199L105.166 24.972C104.85 24.8541 105.121 24.972 104.978 24.8541L104.861 24.8836C104.486 24.832 104.347 24.7066 104.001 24.8393L103.836 25.7278Z" fill="#F3D983"/>
<path fill-rule="evenodd" clip-rule="evenodd" d="M111.522 37.2078C114.805 41.7867 125.283 40.312 125.328 40.3304C126.549 40.7543 136.343 37.4327 136.839 25.3811C137.846 22.7046 137.53 16.4926 137.831 13.6613C138.011 11.9617 137.647 10.7414 137.478 9.01611C134.9 11.3018 130.216 11.7663 126.545 12.5295C123.093 13.2447 120.283 13.2668 118.194 15.3755C116.552 17.0419 116.127 20.7691 117.029 23.77C117.082 23.9507 115.67 24.7064 115.527 24.8134C97.6137 37.5248 112.885 37.5618 111.522 37.2078Z" fill="#38A6DF"/>
<path fill-rule="evenodd" clip-rule="evenodd" d="M107.653 14.5096C107.788 14.5943 107.318 16.5593 107.446 16.7547C107.573 16.9501 108.077 19.0588 108.228 19.2174C108.547 19.2542 108.904 19.199 109.235 19.2174C111.194 19.2971 113.13 19.6534 114.986 20.2755C114.758 18.7011 115.045 17.0966 115.806 15.6924C116.566 14.2881 117.76 13.1565 119.216 12.4597C121.425 11.3795 125.077 11.3206 127.737 10.6386C130.513 9.92338 134.225 9.28191 136.805 7.58974C136.805 7.17315 135.416 6.09297 135.16 5.74641C134.272 4.62154 133.149 3.69735 131.865 3.03674C130.878 2.4985 130.107 2.28098 129.739 2.08928L129.678 2.05241L128.131 1.7501C126.36 1.45398 124.566 1.31211 122.77 1.32614C120.009 1.38881 118.296 1.51416 115.715 2.32523C113.637 2.97406 110.943 4.69942 109.182 5.77591C109.077 5.84228 109.017 5.86439 108.899 5.93813C108.783 6.01186 108.731 6.03398 108.622 6.10403L106.266 7.74089C106.397 7.85933 106.547 7.9553 106.71 8.02476C106.855 8.11922 106.996 8.22136 107.13 8.33075C109.114 9.75747 108.633 11.7851 107.706 13.5694C107.64 13.8846 107.621 14.2075 107.649 14.5279L107.653 14.5096ZM136.614 29.7022L133.984 34.764L132.395 37.5253L138.782 35.5565L139.954 34.1888L137.613 30.3879L136.614 29.7022Z" fill="#8EC851"/>
<path fill-rule="evenodd" clip-rule="evenodd" d="M119.618 6.18126C119.9 6.18126 120.177 6.26342 120.411 6.41736C120.646 6.5713 120.829 6.79009 120.936 7.04607C121.045 7.30206 121.073 7.58374 121.018 7.85549C120.963 8.12724 120.827 8.37687 120.627 8.57279C120.428 8.76871 120.173 8.90213 119.896 8.95619C119.619 9.01025 119.332 8.9825 119.072 8.87647C118.811 8.77044 118.587 8.59088 118.43 8.3605C118.273 8.13012 118.191 7.85927 118.191 7.58218C118.191 7.21064 118.34 6.85431 118.609 6.59159C118.876 6.32886 119.24 6.18126 119.618 6.18126ZM132.24 42.7342C131.524 43.1213 129.036 41.3776 128.304 40.8909C129.862 39.984 130.182 39.4163 130.667 39.302C131.564 39.6381 132.413 40.0893 133.191 40.6439C133.057 41.4054 132.73 42.1215 132.24 42.7268V42.7342ZM107.044 31.103C107.002 31.2209 106.728 31.8808 106.638 32.0541C105.969 33.9748 106.059 36.725 108.141 37.8162C109.163 38.2956 109.921 38.1665 110.989 38.1665C111.124 38.2993 111.476 38.8633 111.657 39.0845C113.302 41.0495 115.79 41.267 118.149 40.655C118.198 40.655 119.464 41.9379 124.198 41.6578C124.555 41.6135 124.419 41.6578 124.641 41.8311C124.731 42.0044 124.817 42.0044 124.997 42.0486H125.622C125.809 42.69 126.512 42.7637 127.267 42.6163C127.537 43.0145 131.775 45.1048 132.203 45.0606C135.547 43.9545 135.615 39.2136 134.833 39.2136C134.638 39.0698 133.582 38.6052 133.766 38.4283C135.95 37.6966 138.051 36.7466 140.036 35.5932C140.57 35.3315 140.525 35.1583 141.013 35.5048C142.117 36.2753 142.516 36.6107 142.767 36.7545C143.198 36.5142 143.611 36.2418 144 35.9398L143.823 35.855C141.705 34.8228 138.473 31.1287 137.993 28.666C137.617 26.3619 138.421 21.6615 138.609 19.3094C138.764 16.9991 138.764 14.6814 138.609 12.3711C137.91 -2.70352 115.113 -4.09339 104.542 8.70661C103.696 9.75362 102.896 10.8448 102.186 11.9361C101.874 12.4153 100.308 15.2541 100.308 15.6006C106.48 15.8255 107.54 18.8043 108.573 24.2421C106.721 24.2421 102.212 23.8292 100.879 23.8919C101.63 25.0237 105.563 29.9895 105.642 30.1592C106.086 30.4688 106.837 30.996 107.021 31.1103L107.044 31.103ZM106.953 28.7066C106.664 28.7066 105.308 27.5637 104.59 26.6052C104.41 26.3619 104.895 25.6393 105.195 25.3149C106.101 25.4919 107.288 25.5214 108.284 25.7499C108.543 26.9297 107.679 27.9213 106.953 28.6993V28.7066ZM110.241 24.1979C110.278 24.4559 110.387 25.101 110.439 25.3702C110.943 25.9047 111.491 26.244 112.285 25.6799L114.374 24.1536C116.774 22.5831 117.84 22.0154 119.633 19.7886C120.035 19.3094 120.343 18.8707 120.7 18.3914C121 17.8945 121.325 17.4134 121.677 16.9499C121.722 16.9499 122.878 17.7794 122.965 17.8236C122.654 18.6532 120.61 21.0973 119.986 21.8789C119.452 22.4909 118.784 23.0587 118.206 23.6265C117.938 23.8881 116.248 25.0679 116.248 25.1527L116.338 25.3702C117.048 27.42 119.05 29.7942 120.786 31.0882C122.489 32.3709 124.484 33.2278 126.6 33.585C128.715 33.942 130.886 33.7886 132.928 33.1379C133.95 32.7877 133.864 32.9204 134.352 32.0025C136.952 27.3794 138.263 13.2965 136.23 8.60339C132.504 0.124123 119.573 -0.108135 111.74 4.33426C110.908 4.85312 110.12 5.43754 109.384 6.08173C109.027 6.34348 107.382 7.78495 107.295 8.09095C107.34 8.22366 107.829 8.61445 107.965 8.78772C108.74 9.67726 109.179 10.8024 109.208 11.973C109.263 13.6111 108.927 15.2393 108.231 16.7288C107.787 17.6873 107.829 17.079 108.588 18.6052C109.53 20.5149 109.783 22.196 110.233 24.1905L110.241 24.1979ZM131.114 30.7011C127.691 30.9113 123.021 29.2043 121.597 25.9453L122.842 24.9426C124.344 28.2273 127.91 29.2486 131.482 29.1748C131.458 29.7006 131.337 30.2177 131.125 30.7011H131.114ZM114.467 26.0302C114.557 26.0744 114.512 26.0302 114.603 26.1186C115.004 27.4716 116.782 29.9158 117.893 31.0514C118.115 31.2688 119.272 32.231 119.362 32.3159C118.874 32.7951 117.45 33.5804 116.826 33.9748C114.914 35.1103 109.489 38.2071 108.156 35.5896C107.667 34.6716 107.934 33.1011 108.332 32.1868C109.083 30.572 110.823 28.9573 112.157 27.7629C112.825 27.2393 114.159 26.2882 114.471 26.0153L114.467 26.0302ZM112.664 37.8274C113.209 37.6799 115.403 36.5407 115.936 36.279C116.958 35.7112 117.893 35.173 118.825 34.5757C121.225 33.1343 120.381 33.1011 121.627 33.7904C122.297 34.1407 124.257 35.0107 124.919 35.055C125.095 35.1877 125.009 35.055 125.054 35.2282C123.176 36.537 121.541 37.6725 119.419 38.5462C118.237 39.0891 116.944 39.3578 115.64 39.3315C114.821 39.2799 112.679 38.7564 112.679 37.8236L112.664 37.8274ZM132.2 35.1877C130.645 35.5658 129.035 35.6842 127.44 35.538C127.082 35.4938 127.037 35.6265 126.771 35.844C126.369 36.1941 126.019 36.4559 125.614 36.7619C124.814 37.3739 124.013 37.8974 123.168 38.4209C122.812 38.6384 120.501 39.8181 120.456 39.8623C121.346 40.2974 123.304 40.2126 124.28 40.0356C126.158 39.6412 128.548 38.4209 130.062 37.2854C130.55 36.9794 132.109 35.7149 132.286 35.2356L132.195 35.1914L132.2 35.1877ZM136.869 30.432C137.647 31.5748 138.131 32.7877 139.184 34.1849C138.729 34.4892 138.257 34.7686 137.77 35.0218C136.569 35.5896 134.078 36.8099 132.925 36.9868C133.159 36.7794 133.382 36.5603 133.593 36.3306C134.135 35.5866 134.637 34.8149 135.096 34.0191C135.427 33.4587 136.779 30.5352 136.873 30.4393L136.869 30.432ZM102.813 14.2476C102.99 13.4624 105.702 9.57666 106.195 9.27067C107.171 10.2292 107.573 10.7969 107.619 12.3675C107.619 14.3324 107.216 14.5795 106.773 16.0319C106.638 15.9877 106.195 15.5527 105.973 15.42C105.013 14.8209 103.937 14.4218 102.813 14.2476Z" fill="#312A20"/>
<path opacity="0.35" fill-rule="evenodd" clip-rule="evenodd" d="M109.632 21.5657C109.632 21.5657 108.61 16.622 107.822 15.7667C107.032 14.9114 104.756 13.5178 103.418 13.5989C102.081 13.68 102.186 14.1667 102.186 14.1667L102.994 15.0698L106.506 16.7658L108.847 20.2938L109.64 21.5657H109.632ZM118.603 31.5197L120.388 32.2865L119.381 33.1787L120.373 32.6515L121.571 33.1823C120.347 34.2138 119.048 35.1551 117.683 35.999C114.877 37.6727 113.814 37.7943 113.927 37.9307C116.341 40.8801 123.472 35.1252 125.658 33.5289C127.845 31.9325 131.456 25.5436 132.293 23.0256C133.131 20.5077 134.87 15.6524 133.687 9.3851C132.504 3.11781 127.526 1.76851 127.526 1.76851L128.95 1.70215L131.673 2.57957L136.02 6.24408L137.471 10.4026L138.252 16.5298L136.914 27.6487L135.967 30.7123L133.514 35.0883L130.67 38.5906L130.205 38.8487L134.277 39.7483L132.023 43.291L127.916 40.8506L129.273 39.3759L125.929 41.2192L119.629 40.8506C119.629 40.8506 117.901 40.3565 117.75 40.2496C117.601 40.1427 114.294 40.4671 114.043 40.4966C113.791 40.5261 112.063 38.5832 112.063 38.5832L111.923 37.2008L112.232 37.0348L109.387 37.599L107.213 34.8377L108.197 32.0395C108.197 32.0395 107.667 34.0635 108.197 34.7749C108.726 35.4864 109.174 35.9252 111.954 35.3501C114.734 34.7749 118.603 31.5197 118.603 31.5197ZM104.282 25.5325L103.937 26.1003L106.382 29.6284L108.103 28.3639L104.282 25.5363V25.5325ZM137.016 29.8938C137.016 29.8938 132.556 36.7031 132.165 37.0607C131.775 37.4183 132.808 37.798 132.808 37.798L139.859 34.4321L137.016 29.8938Z" fill="#312A20"/>
<path opacity="0.35" fill-rule="evenodd" clip-rule="evenodd" d="M121.698 17.0532C121.642 16.9426 120.264 18.7343 116.544 21.4292C112.825 24.1242 111.221 24.0099 110.382 23.1803C109.921 22.7579 109.588 22.2181 109.421 21.6209C109.421 21.6209 109.493 25.6946 109.545 25.8605C109.598 26.0265 111.525 26.9666 111.525 26.9666L118.715 22.6569L121.56 18.0891L121.698 17.0532Z" fill="#312A20"/>
<path d="M45.8683 31.9668H44.5465L42.7734 36.4193H42.7089L40.8176 31.9668H39.5388V37.3205H40.377V34.7778L40.334 33.029H40.4092L41.2152 35.0245L42.2361 37.3205H43.171L44.1489 35.0567L44.9549 33.029H45.0301L44.9656 35.0245V37.3205H45.8683V31.9668Z" fill="#312A20"/>
<path d="M51.3215 37.3848L51.7836 37.138C51.6976 36.9663 51.6331 36.8161 51.5901 36.6767C51.5471 36.5372 51.5256 36.3763 51.5256 36.1939V33.7799C51.5256 33.4473 51.4719 33.1683 51.3645 32.9323C51.257 32.6963 51.0958 32.5031 50.8916 32.3422C50.6874 32.1813 50.4403 32.0633 50.1501 31.9881C49.86 31.913 49.5376 31.8809 49.1937 31.8809C48.8498 31.8809 48.5274 31.9023 48.2373 31.956C47.9471 32.0096 47.6462 32.0954 47.3346 32.2135L47.528 32.8143C47.7967 32.7392 48.0439 32.6855 48.2695 32.6533C48.4952 32.6212 48.7424 32.5997 49.011 32.5997C49.2797 32.5997 49.5161 32.6212 49.731 32.6641C49.9459 32.707 50.1286 32.7821 50.2683 32.8894C50.494 33.061 50.6122 33.3185 50.6122 33.6619V33.9193L48.7209 34.0052C48.0653 34.0374 47.5603 34.1983 47.2056 34.4772C46.851 34.7562 46.6683 35.1746 46.6683 35.7218C46.6683 36.2475 46.8618 36.6767 47.2486 37.0093C47.6355 37.3419 48.2051 37.5028 48.968 37.5028H49.1292L50.7412 36.8483L51.3215 37.3848ZM49.0218 36.7732C48.5167 36.7732 48.1513 36.6874 47.9256 36.5157C47.7 36.3441 47.5925 36.0651 47.5925 35.6896C47.5925 35.3356 47.6892 35.0781 47.8827 34.9171C48.0761 34.7562 48.334 34.6704 48.6564 34.6489L50.58 34.5202V36.2368C50.3543 36.3977 50.1179 36.5265 49.86 36.623C49.6021 36.7196 49.3119 36.7732 48.9895 36.7732H49.0218Z" fill="#312A20"/>
<path d="M54.9409 32.6749L56.9075 32.6642V31.9668H52.0502V32.6749H54.0167V37.3205H54.9409V32.6749Z" fill="#312A20"/>
<path d="M57.1526 34.6488C57.1526 35.0673 57.2063 35.4535 57.3137 35.7968C57.4212 36.1402 57.5824 36.4406 57.8081 36.6873C58.0337 36.9341 58.3239 37.1272 58.6678 37.256C59.0117 37.3847 59.42 37.4491 59.8929 37.4491C60.2905 37.4491 60.6558 37.4062 60.9782 37.3311C61.3006 37.256 61.6015 37.1487 61.8702 37.0199L61.6767 36.4191C61.3651 36.5371 61.0642 36.623 60.7848 36.6659C60.5054 36.7088 60.2152 36.7302 59.9036 36.7302C59.6349 36.7302 59.3985 36.698 59.1836 36.6337C58.9687 36.5693 58.7752 36.4727 58.614 36.3333C58.4528 36.1938 58.3239 36.0114 58.2272 35.7861C58.1305 35.5608 58.0767 35.2818 58.066 34.9492L59.4523 35.0565H62.2033C62.2248 34.9707 62.2355 34.8849 62.2463 34.7883C62.257 34.6918 62.257 34.6059 62.257 34.5308C62.257 34.0695 62.1926 33.6725 62.0743 33.3292C61.9561 32.9859 61.7842 32.7069 61.5693 32.4816C61.3543 32.2563 61.0964 32.0954 60.7848 31.9881C60.4731 31.8808 60.1293 31.8271 59.7531 31.8271C58.8934 31.8271 58.2379 32.0739 57.7758 32.5567C57.3137 33.0395 57.0881 33.7369 57.0881 34.6381L57.1526 34.6488ZM61.3758 34.3699H58.0337C58.066 33.7047 58.2164 33.2326 58.4851 32.9537C58.7537 32.6747 59.1729 32.5353 59.7424 32.5353C60.0326 32.5353 60.2797 32.5782 60.4839 32.6533C60.6881 32.7284 60.8493 32.8464 60.9675 32.9966C61.0857 33.1468 61.1717 33.3399 61.2361 33.5652C61.3006 33.7905 61.3329 34.0587 61.3436 34.3699H61.3758Z" fill="#312A20"/>
<path d="M69.5227 31.9668H68.2009L66.4277 36.4193H66.3633L64.4719 31.9668H63.1931V37.3205H64.0313V34.7778L63.9883 33.029H64.0636L64.8695 35.0245L65.8904 37.3205H66.8254L67.8033 35.0567L68.6092 33.029H68.6845L68.62 35.0245V37.3205H69.5227V31.9668Z" fill="#312A20"/>
<path d="M74.9759 37.3848L75.438 37.138C75.352 36.9663 75.2875 36.8161 75.2445 36.6767C75.2016 36.5372 75.1801 36.3763 75.1801 36.1939V33.7799C75.1801 33.4473 75.1263 33.1683 75.0189 32.9323C74.9114 32.6963 74.7502 32.5031 74.546 32.3422C74.3419 32.1813 74.0947 32.0633 73.8045 31.9881C73.5144 31.913 73.192 31.8809 72.8481 31.8809C72.5042 31.8809 72.1819 31.9023 71.8917 31.956C71.6016 32.0096 71.3007 32.0954 70.989 32.2135L71.1825 32.8143C71.4511 32.7392 71.6983 32.6855 71.9239 32.6533C72.1496 32.6212 72.3968 32.5997 72.6654 32.5997C72.9341 32.5997 73.1705 32.6212 73.3854 32.6641C73.6004 32.707 73.7831 32.7821 73.9228 32.8894C74.1484 33.061 74.2666 33.3185 74.2666 33.6619V33.9193L72.3753 34.0052C71.7198 34.0374 71.2147 34.1983 70.8601 34.4772C70.5054 34.7562 70.3228 35.1746 70.3228 35.7218C70.3228 36.2475 70.5162 36.6767 70.9031 37.0093C71.2899 37.3419 71.8595 37.5028 72.6225 37.5028H72.7837L74.3956 36.8483L74.9759 37.3848ZM72.6762 36.7732C72.1711 36.7732 71.8057 36.6874 71.5801 36.5157C71.3544 36.3441 71.2469 36.0651 71.2469 35.6896C71.2469 35.3356 71.3436 35.0781 71.5371 34.9171C71.7305 34.7562 71.9884 34.6704 72.3108 34.6489L74.2344 34.5202V36.2368C74.0087 36.3977 73.7723 36.5265 73.5144 36.623C73.2565 36.7196 72.9663 36.7732 72.6439 36.7732H72.6762Z" fill="#312A20"/>
<path d="M78.5953 32.6749L80.5619 32.6642V31.9668H75.7046V32.6749H77.6711V37.3205H78.5953V32.6749Z" fill="#312A20"/>
<path d="M82.1881 31.9668H81.2854V37.3205H82.2203L85.2615 33.2435H85.3367L85.283 34.9923V37.3205H86.1857V31.9668H85.3045L82.1773 36.1511H82.1129L82.1881 34.5417V31.9668Z" fill="#312A20"/>
<path d="M88.1703 31.9668H87.2568V37.3205H88.1703V34.8207H89.5136L91.1362 37.3205H92.2001L90.2335 34.3915L92.0497 31.9668H90.9858L89.4706 34.0589H88.1703V31.9668Z" fill="#312A20"/>
<path d="M97.0351 37.3848L97.4972 37.138C97.4113 36.9663 97.3468 36.8161 97.3038 36.6767C97.2608 36.5372 97.2393 36.3763 97.2393 36.1939V33.7799C97.2393 33.4473 97.1856 33.1683 97.0781 32.9323C96.9707 32.6963 96.8095 32.5031 96.6053 32.3422C96.4011 32.1813 96.154 32.0633 95.8638 31.9881C95.5737 31.913 95.2513 31.8809 94.9074 31.8809C94.5635 31.8809 94.2411 31.9023 93.951 31.956C93.6608 32.0096 93.3599 32.0954 93.0483 32.2135L93.2417 32.8143C93.5104 32.7392 93.7575 32.6855 93.9832 32.6533C94.2089 32.6212 94.456 32.5997 94.7247 32.5997C94.9934 32.5997 95.2298 32.6212 95.4447 32.6641C95.6596 32.707 95.8423 32.7821 95.982 32.8894C96.2077 33.061 96.3259 33.3185 96.3259 33.6619V33.9193L94.4346 34.0052C93.779 34.0374 93.274 34.1983 92.9193 34.4772C92.5647 34.7562 92.382 35.1746 92.382 35.7218C92.382 36.2475 92.5755 36.6767 92.9623 37.0093C93.3492 37.3419 93.9187 37.5028 94.6817 37.5028H94.8429L96.4549 36.8483L97.0351 37.3848ZM94.7355 36.7732C94.2304 36.7732 93.865 36.6874 93.6393 36.5157C93.4137 36.3441 93.3062 36.0651 93.3062 35.6896C93.3062 35.3356 93.4029 35.0781 93.5964 34.9171C93.7898 34.7562 94.0477 34.6704 94.3701 34.6489L96.2937 34.5202V36.2368C96.068 36.3977 95.8316 36.5265 95.5737 36.623C95.3157 36.7196 95.0256 36.7732 94.7032 36.7732H94.7355Z" fill="#312A20"/>
</g>
<defs>
<clipPath id="clip0_56_3796">
<rect width="144" height="45.0612" fill="white"/>
</clipPath>
</defs>
</svg>
