<svg width="152" height="48" viewBox="0 0 152 48" fill="none" xmlns="http://www.w3.org/2000/svg">
<g clip-path="url(#clip0_137_2180)">
<path fill-rule="evenodd" clip-rule="evenodd" d="M10.1716 8.44489L1.71312 27.3535L0 27.9955V28.9023H5.36144V27.9955L3.05348 27.3535L5.28608 22.2674H14.4901L16.695 27.3535L14.9819 27.9955V28.9023H21.9811V27.9955L20.2243 27.3535L11.7817 8.44489H10.1716ZM53.3446 16.5702C51.5955 15.7787 49.6824 15.3977 47.7572 15.4572C42.8994 15.4572 40.2504 17.7688 40.2504 22.2517C40.2504 26.1627 42.7289 28.8945 46.1313 28.8945C46.8653 28.928 47.5987 28.8145 48.2865 28.561C48.9745 28.3074 49.6026 27.9191 50.1325 27.4196V28.5053L50.5688 28.8945L54.9943 28.268V27.4468L53.4081 26.8748L53.3724 16.5781L53.3446 16.5702ZM50.089 26.3494C49.391 27.2328 48.1062 27.4508 47.0474 27.4508C44.8068 27.4508 42.721 25.7113 42.721 22.2557C42.721 18.5743 44.9655 16.5469 47.3804 16.5469C48.3366 16.4928 49.285 16.7425 50.085 17.259V26.3572L50.089 26.3494ZM72.4785 28.9451V28.05L70.8249 27.4936L66.3993 20.1582L69.9127 17.0022L71.499 16.4185V15.5118H65.9075V16.4185L68.0966 17.0022L62.3188 22.2322L62.3504 15.7452L61.9023 15.3366L57.3578 15.9787V16.8271L59.0114 17.4108L58.9797 27.2639L57.3261 27.9955V28.9606H63.9684V28.05L62.3148 27.4663V23.9874L64.1032 22.2907L68.2432 28.9528L72.4785 28.9451ZM13.9547 21.0687H5.8254L9.91389 11.8344L13.9547 21.0687ZM24.6618 27.8787C26.4517 28.6896 28.4096 29.08 30.3801 29.0189C35.3529 29.0189 38.0653 26.6529 38.0653 22.061C38.0495 18.0607 36.0231 15.3561 32.5414 15.3561C30.8719 15.3561 29.0279 15.9398 27.9849 16.9632L27.8937 16.8738L27.9849 15.469V7.18407L27.5368 6.79492L23.0002 7.42145V8.26978L24.6538 8.8535V27.8787H24.6618ZM27.9809 18.119C28.3681 17.6894 28.8452 17.3469 29.3798 17.1152C29.9144 16.8835 30.4937 16.7679 31.0781 16.7765C33.3701 16.7765 34.647 18.7222 34.647 22.2245C34.647 25.9953 33.2155 27.8944 30.7449 27.8944C29.7634 27.9508 28.7897 27.6941 27.969 27.1628V18.119H27.9809ZM88.1861 15.6636L87.7697 15.255L83.4353 15.897V16.9477L84.8787 17.5314V25.9213C83.9017 26.9413 82.553 27.54 81.1274 27.5869C79.5768 27.5869 78.6568 26.5635 78.6568 24.8396V15.6636L78.2086 15.255L73.9021 15.897V16.9477L75.3178 17.5314V24.9252C75.3178 27.2912 76.7771 29.0151 79.5173 29.0151C81.3336 29.0151 83.6256 28.2835 84.8471 27.1161L84.9383 27.2056L84.8628 28.6959L85.311 29.1045L89.6216 28.6103V27.618L88.1781 26.8864V15.6636H88.1861ZM92.5481 28.7582L93.024 28.2913C94.2593 28.7968 95.5879 29.0459 96.9261 29.0229C100.769 29.0229 102.763 27.7076 102.676 25.077C102.617 23.2908 101.923 22.4035 100.471 21.7458C100.056 21.5453 99.6279 21.3699 99.1904 21.2205L97.7311 20.7807C95.6333 20.1504 94.9552 19.8741 94.9552 18.7067C94.9552 17.4224 96.0259 16.543 97.6042 16.543C99.1825 16.543 100.194 17.4497 100.674 19.2319H101.863V16.0722L101.506 15.7219L101.03 16.1888C99.8348 15.6125 98.5156 15.3269 97.1839 15.3561C93.8171 15.3561 92.1198 16.6714 92.1198 19.302C92.1117 20.2297 92.439 21.1301 93.0438 21.8431C93.3533 22.1621 93.7293 22.4117 94.1463 22.5747C94.5327 22.7465 94.93 22.8934 95.336 23.0145L96.708 23.4036C97.5496 23.5929 98.3656 23.879 99.1389 24.2559C99.3583 24.3895 99.5357 24.5804 99.6512 24.8071C99.7668 25.0338 99.8159 25.2875 99.7932 25.54C99.7932 27.0966 98.5441 27.8477 96.7834 27.8477C95.0227 27.8477 93.833 26.9409 93.3571 25.1587H92.1357V28.4041L92.5481 28.7582Z" fill="white"/>
<path fill-rule="evenodd" clip-rule="evenodd" d="M135.586 43.4814C135.756 43.6681 138.057 44.9056 138.492 45.1703L139.512 45.7268C140.107 45.4426 141.098 43.7811 141.138 42.8782C140.309 42.4891 139.552 41.9637 138.726 41.5201C138.378 41.3294 138.251 41.271 137.933 41.0531C137.617 40.8352 137.49 40.9675 137.101 41.1815C136.775 41.3566 135.415 42.3918 135.054 42.9677C134.829 43.279 135.741 43.2167 135.586 43.4814Z" fill="#B35462"/>
<path fill-rule="evenodd" clip-rule="evenodd" d="M113.974 19.2846L119.914 19.806L123.801 10.2214L135.744 9.64159L143.921 6.8125L145.512 12.5291L129.387 15.4749L124.506 20.67L124.212 24.5964L117.916 28.4101L115.973 27.3126L114.56 20.9618L113.974 19.2846Z" fill="white"/>
<path fill-rule="evenodd" clip-rule="evenodd" d="M107.65 15.4208C107.956 15.4884 108.269 15.5237 108.582 15.5259C109.34 15.74 110.45 15.9773 111.037 16.4326C111.212 16.5688 112.909 18.032 113.02 18.106C113.143 17.9347 113.999 13.4363 114.051 13.1638C114.285 11.9964 112.988 9.71209 111.894 8.98828L111.62 9.31127C111.521 9.43191 111.426 9.53309 111.33 9.65762C111.132 9.90666 110.958 10.1324 110.763 10.397L109.97 11.5217C109.911 11.6461 107.734 15.3197 107.65 15.4208Z" fill="#E1C544"/>
<path fill-rule="evenodd" clip-rule="evenodd" d="M109.604 27.1574C109.723 27.7683 112.594 30.4573 113.106 31.2979C113.3 31.2433 113.15 31.3251 113.364 31.1889C113.471 30.9593 113.645 30.7569 113.761 30.4496C113.83 30.2475 113.912 30.0499 114.006 29.8581C114.141 29.5545 114.074 29.6167 114.276 29.4222C114.387 28.6439 114.752 28.1652 114.581 27.1651C113.686 26.8483 112.753 26.6431 111.805 26.5542C111.607 26.5113 111.409 26.4569 111.222 26.4102L111.008 26.3596C110.675 26.2351 110.961 26.3596 110.81 26.2351L110.687 26.2663C110.291 26.2118 110.144 26.0794 109.779 26.2195L109.604 27.1574Z" fill="#F3D983"/>
<path fill-rule="evenodd" clip-rule="evenodd" d="M117.717 39.2755C121.183 44.1087 132.243 42.5521 132.291 42.5716C133.58 43.019 143.918 39.5128 144.441 26.7917C145.504 23.9666 145.17 17.4094 145.488 14.4208C145.678 12.6268 145.294 11.3387 145.116 9.51758C142.395 11.9302 137.45 12.4206 133.575 13.2261C129.932 13.9811 126.965 14.0044 124.76 16.2303C123.027 17.9893 122.579 21.9236 123.531 25.0911C123.586 25.2818 122.096 26.0796 121.945 26.1925C103.037 39.6101 119.157 39.6491 117.717 39.2755Z" fill="#38A6DF"/>
<path fill-rule="evenodd" clip-rule="evenodd" d="M113.634 15.3153C113.777 15.4048 113.28 17.4789 113.415 17.6851C113.55 17.8914 114.082 20.1173 114.241 20.2847C114.577 20.3235 114.954 20.2652 115.303 20.2847C117.371 20.3688 119.415 20.7449 121.374 21.4015C121.134 19.7397 121.437 18.0461 122.24 16.5639C123.042 15.0815 124.302 13.887 125.839 13.1516C128.171 12.0114 132.026 11.9492 134.833 11.2292C137.764 10.4743 141.682 9.79719 144.406 8.01101C144.406 7.57128 142.939 6.43108 142.669 6.06528C141.732 4.87791 140.547 3.90238 139.191 3.20507C138.149 2.63692 137.335 2.40732 136.946 2.20497L136.883 2.16605L135.249 1.84695C133.38 1.53437 131.487 1.38462 129.59 1.39944C126.676 1.46559 124.868 1.5979 122.143 2.45402C119.951 3.13891 117.107 4.96011 115.248 6.09641C115.137 6.16647 115.073 6.18981 114.949 6.26764C114.827 6.34547 114.771 6.36882 114.657 6.44276L112.17 8.17056C112.308 8.29558 112.466 8.39689 112.638 8.4702C112.792 8.56991 112.94 8.67772 113.082 8.79319C115.176 10.2992 114.668 12.4394 113.689 14.3229C113.62 14.6556 113.6 14.9964 113.629 15.3347L113.634 15.3153ZM144.204 31.3519L141.428 36.6949L139.75 39.6096L146.492 37.5315L147.729 36.0878L145.259 32.0757L144.204 31.3519Z" fill="#8EC851"/>
<path fill-rule="evenodd" clip-rule="evenodd" d="M126.263 6.52467C126.562 6.52467 126.853 6.61139 127.1 6.77388C127.349 6.93637 127.542 7.16732 127.655 7.43752C127.77 7.70773 127.799 8.00506 127.741 8.29191C127.683 8.57876 127.539 8.84225 127.328 9.04906C127.119 9.25586 126.85 9.3967 126.557 9.45375C126.264 9.51082 125.961 9.48153 125.687 9.36961C125.411 9.25768 125.175 9.06815 125.01 8.82497C124.844 8.58179 124.757 8.29589 124.757 8.00342C124.757 7.61124 124.915 7.2351 125.198 6.95779C125.481 6.68046 125.864 6.52467 126.263 6.52467ZM139.587 45.1084C138.83 45.517 136.204 43.6763 135.432 43.1626C137.077 42.2053 137.415 41.6061 137.926 41.4854C138.874 41.8402 139.77 42.3164 140.591 42.9019C140.449 43.7057 140.104 44.4616 139.587 45.1006V45.1084ZM112.99 32.8309C112.947 32.9554 112.657 33.652 112.562 33.8349C111.856 35.8623 111.952 38.7653 114.149 39.9171C115.227 40.4231 116.028 40.2869 117.155 40.2869C117.297 40.427 117.67 41.0223 117.86 41.2559C119.597 43.33 122.223 43.5596 124.713 42.9136C124.765 42.9136 126.101 44.2678 131.098 43.9721C131.474 43.9254 131.331 43.9721 131.565 44.155C131.66 44.3379 131.751 44.3379 131.942 44.3846H132.601C132.798 45.0617 133.54 45.1395 134.337 44.9839C134.622 45.4042 139.096 47.6106 139.547 47.5639C143.077 46.3965 143.149 41.3921 142.324 41.3921C142.118 41.2403 141.003 40.75 141.198 40.5632C143.503 39.7909 145.72 38.788 147.815 37.5706C148.379 37.2944 148.332 37.1115 148.847 37.4773C150.013 38.2905 150.433 38.6447 150.699 38.7964C151.154 38.5427 151.589 38.2552 152 37.9364L151.813 37.8469C149.577 36.7574 146.166 32.8581 145.659 30.2586C145.262 27.8264 146.111 22.8649 146.309 20.3821C146.474 17.9435 146.474 15.497 146.309 13.0584C145.572 -2.85372 121.508 -4.3208 110.349 9.19031C109.457 10.2955 108.613 11.4473 107.863 12.5992C107.534 13.1051 105.88 16.1015 105.88 16.4673C112.396 16.7047 113.515 19.8489 114.605 25.5889C112.649 25.5889 107.891 25.1531 106.483 25.2192C107.276 26.4139 111.428 31.6556 111.511 31.8347C111.979 32.1615 112.772 32.718 112.967 32.8386L112.99 32.8309ZM112.895 30.3014C112.59 30.3014 111.158 29.0951 110.401 28.0833C110.211 27.8264 110.722 27.0637 111.039 26.7212C111.995 26.9081 113.248 26.9392 114.299 27.1805C114.573 28.4258 113.661 29.4725 112.895 30.2937V30.3014ZM116.365 25.5422C116.405 25.8146 116.519 26.4955 116.575 26.7797C117.107 27.3439 117.685 27.702 118.523 27.1065L120.728 25.4954C123.262 23.8377 124.387 23.2385 126.279 20.888C126.703 20.3821 127.029 19.919 127.405 19.4132C127.722 18.8886 128.066 18.3808 128.437 17.8915C128.484 17.8915 129.705 18.7672 129.797 18.8138C129.468 19.6895 127.31 22.2694 126.652 23.0944C126.089 23.7404 125.383 24.3397 124.773 24.939C124.49 25.2153 122.706 26.4605 122.706 26.5501L122.801 26.7797C123.551 28.9433 125.664 31.4494 127.496 32.8153C129.294 34.1693 131.399 35.0738 133.633 35.4508C135.865 35.8277 138.158 35.6658 140.313 34.9789C141.392 34.6093 141.301 34.7494 141.816 33.7804C144.56 28.9005 145.944 14.0352 143.799 9.08136C139.865 0.131019 126.216 -0.114142 117.947 4.57505C117.069 5.12273 116.238 5.73962 115.461 6.41961C115.084 6.6959 113.347 8.21745 113.256 8.54044C113.304 8.68053 113.82 9.09303 113.963 9.27593C114.782 10.2149 115.244 11.4025 115.275 12.6381C115.333 14.3672 114.979 16.0859 114.244 17.6581C113.775 18.6699 113.82 18.0278 114.62 19.6389C115.615 21.6546 115.882 23.4291 116.357 25.5344L116.365 25.5422ZM138.398 32.4067C134.785 32.6285 129.856 30.8267 128.353 27.3867L129.666 26.3283C131.252 29.7955 135.016 30.8735 138.786 30.7956C138.761 31.3506 138.633 31.8965 138.41 32.4067H138.398ZM120.826 27.4763C120.922 27.5229 120.874 27.4763 120.969 27.5696C121.394 28.9978 123.27 31.5778 124.443 32.7764C124.677 33.006 125.898 34.0216 125.993 34.1112C125.478 34.6171 123.975 35.446 123.316 35.8623C121.298 37.0609 115.572 40.3297 114.164 37.5668C113.648 36.5978 113.931 34.9401 114.351 33.975C115.143 32.2704 116.98 30.566 118.388 29.3052C119.093 28.7526 120.501 27.7486 120.831 27.4606L120.826 27.4763ZM118.923 39.9289C119.498 39.7732 121.814 38.5707 122.377 38.2945C123.456 37.6952 124.443 37.127 125.426 36.4966C127.96 34.9751 127.069 34.9401 128.384 35.6677C129.091 36.0375 131.16 36.9558 131.859 37.0024C132.045 37.1425 131.954 37.0024 132.002 37.1853C130.019 38.5669 128.294 39.7654 126.053 40.6877C124.806 41.2607 123.441 41.5443 122.064 41.5166C121.2 41.4621 118.939 40.9095 118.939 39.925L118.923 39.9289ZM139.544 37.1425C137.903 37.5416 136.203 37.6667 134.52 37.5123C134.142 37.4656 134.095 37.6057 133.813 37.8353C133.389 38.2049 133.02 38.4813 132.593 38.8042C131.748 39.4502 130.903 40.0028 130.011 40.5554C129.634 40.785 127.196 42.0303 127.148 42.0769C128.087 42.5361 130.154 42.4467 131.184 42.2598C133.167 41.8435 135.689 40.5554 137.288 39.3568C137.803 39.0338 139.449 37.699 139.635 37.1932L139.539 37.1465L139.544 37.1425ZM144.473 32.1227C145.294 33.329 145.805 34.6093 146.916 36.0841C146.436 36.4053 145.938 36.7002 145.424 36.9675C144.156 37.5668 141.527 38.8549 140.31 39.0416C140.557 38.8227 140.792 38.5914 141.015 38.349C141.587 37.5636 142.117 36.7491 142.601 35.909C142.95 35.3175 144.377 32.2316 144.477 32.1304L144.473 32.1227ZM108.525 15.0391C108.712 14.2103 111.575 10.1087 112.094 9.78571C113.125 10.7975 113.55 11.3967 113.597 13.0546C113.597 15.1286 113.173 15.3894 112.705 16.9226C112.562 16.8759 112.094 16.4167 111.86 16.2766C110.847 15.6442 109.712 15.2231 108.525 15.0391Z" fill="#312A20"/>
<path opacity="0.35" fill-rule="evenodd" clip-rule="evenodd" d="M115.723 22.764C115.723 22.764 114.644 17.5456 113.812 16.6428C112.978 15.74 110.575 14.269 109.164 14.3546C107.752 14.4402 107.863 14.9539 107.863 14.9539L108.715 15.9072L112.423 17.6974L114.894 21.4214L115.731 22.764H115.723ZM125.192 33.2709L127.076 34.0803L126.014 35.0221L127.061 34.4656L128.325 35.0259C127.033 36.1147 125.662 37.1084 124.221 37.9991C121.259 39.7658 120.137 39.8942 120.256 40.0381C122.805 43.1513 130.332 37.0768 132.639 35.3917C134.948 33.7067 138.759 26.9628 139.643 24.305C140.527 21.6471 142.363 16.5222 141.114 9.90666C139.865 3.29119 134.611 1.86692 134.611 1.86692L136.114 1.79688L138.988 2.72304L143.576 6.59114L145.108 10.9807L145.932 17.4483L144.52 29.1849L143.521 32.4187L140.931 37.0378L137.93 40.7347L137.439 41.0071L141.737 41.9567L139.358 45.6963L135.022 43.1202L136.455 41.5636L132.925 43.5093L126.275 43.1202C126.275 43.1202 124.451 42.5987 124.292 42.4859C124.134 42.373 120.644 42.7154 120.378 42.7466C120.113 42.7777 118.289 40.7269 118.289 40.7269L118.141 39.2677L118.467 39.0925L115.464 39.688L113.169 36.7733L114.208 33.8196C114.208 33.8196 113.648 35.9561 114.208 36.707C114.767 37.4581 115.239 37.9212 118.173 37.3141C121.108 36.707 125.192 33.2709 125.192 33.2709ZM110.076 26.9512L109.711 27.5505L112.292 31.2746L114.109 29.9398L110.076 26.9551V26.9512ZM144.628 31.5547C144.628 31.5547 139.92 38.7423 139.508 39.1198C139.096 39.4972 140.186 39.898 140.186 39.898L147.629 36.3452L144.628 31.5547Z" fill="#312A20"/>
<path opacity="0.35" fill-rule="evenodd" clip-rule="evenodd" d="M128.459 18.0002C128.4 17.8835 126.945 19.7747 123.019 22.6193C119.093 25.464 117.4 25.3434 116.515 24.4678C116.028 24.0219 115.677 23.452 115.5 22.8217C115.5 22.8217 115.576 27.1218 115.631 27.2969C115.687 27.4721 117.721 28.4643 117.721 28.4643L125.31 23.9152L128.313 19.0937L128.459 18.0002Z" fill="#312A20"/>
<path d="M48.4165 33.7432H47.0213L45.1497 38.443H45.0816L43.0852 33.7432H41.7354V39.3943H42.6201V36.7103L42.5748 34.8643H42.6542L43.5049 36.9708L44.5825 39.3943H45.5694L46.6016 37.0047L47.4524 34.8643H47.5318L47.4637 36.9708V39.3943H48.4165V33.7432Z" fill="white"/>
<path d="M54.1726 39.462L54.6604 39.2016C54.5696 39.0204 54.5016 38.8618 54.4562 38.7146C54.4108 38.5674 54.3881 38.3975 54.3881 38.205V35.6569C54.3881 35.3058 54.3314 35.0113 54.218 34.7622C54.1046 34.513 53.9344 34.3092 53.7189 34.1393C53.5034 33.9694 53.2425 33.8449 52.9362 33.7656C52.6299 33.6863 52.2896 33.6523 51.9267 33.6523C51.5637 33.6523 51.2234 33.675 50.9171 33.7316C50.6108 33.7882 50.2932 33.8788 49.9643 34.0034L50.1684 34.6376C50.452 34.5583 50.7129 34.5017 50.9511 34.4677C51.1893 34.4338 51.4502 34.4111 51.7338 34.4111C52.0174 34.4111 52.267 34.4338 52.4938 34.4791C52.7207 34.5244 52.9135 34.6036 53.061 34.7169C53.2992 34.8981 53.424 35.1699 53.424 35.5323V35.8041L51.4276 35.8947C50.7356 35.9287 50.2025 36.0985 49.8282 36.393C49.4538 36.6874 49.261 37.1291 49.261 37.7067C49.261 38.2616 49.4652 38.7146 49.8735 39.0657C50.2819 39.4167 50.8831 39.5866 51.6884 39.5866H51.8586L53.5601 38.8958L54.1726 39.462ZM51.7452 38.8165C51.212 38.8165 50.8264 38.7259 50.5881 38.5447C50.3499 38.3635 50.2365 38.0691 50.2365 37.6727C50.2365 37.299 50.3386 37.0272 50.5428 36.8573C50.747 36.6874 51.0192 36.5968 51.3595 36.5742L53.3899 36.4383V38.2503C53.1517 38.4201 52.9022 38.556 52.6299 38.658C52.3577 38.7599 52.0514 38.8165 51.7111 38.8165H51.7452Z" fill="white"/>
<path d="M57.9932 34.4906L60.0691 34.4793V33.7432H54.9419V34.4906H57.0177V39.3943H57.9932V34.4906Z" fill="white"/>
<path d="M60.3277 36.5742C60.3277 37.0158 60.3844 37.4235 60.4979 37.7859C60.6113 38.1483 60.7814 38.4654 61.0196 38.7259C61.2579 38.9864 61.5641 39.1902 61.9271 39.3261C62.2901 39.462 62.7211 39.53 63.2202 39.53C63.6399 39.53 64.0256 39.4847 64.3659 39.4054C64.7062 39.3261 65.0238 39.2129 65.3074 39.077L65.1032 38.4428C64.7743 38.5673 64.4567 38.6579 64.1617 38.7032C63.8668 38.7485 63.5605 38.7712 63.2316 38.7712C62.948 38.7712 62.6985 38.7372 62.4716 38.6693C62.2447 38.6013 62.0405 38.4994 61.8704 38.3522C61.7002 38.2049 61.5641 38.0124 61.462 37.7746C61.3599 37.5368 61.3032 37.2423 61.2919 36.8912L62.7552 37.0045H65.659C65.6817 36.9139 65.6931 36.8233 65.7044 36.7214C65.7158 36.6195 65.7158 36.5289 65.7158 36.4496C65.7158 35.9626 65.6477 35.5436 65.5229 35.1812C65.3982 34.8188 65.2167 34.5243 64.9898 34.2865C64.7629 34.0487 64.4907 33.8788 64.1617 33.7656C63.8328 33.6523 63.4698 33.5957 63.0728 33.5957C62.1653 33.5957 61.4734 33.8562 60.9856 34.3658C60.4979 34.8754 60.2596 35.6115 60.2596 36.5628L60.3277 36.5742ZM64.7856 36.2797H61.2579C61.2919 35.5776 61.4507 35.0793 61.7343 34.7848C62.0179 34.4904 62.4602 34.3431 63.0614 34.3431C63.3677 34.3431 63.6286 34.3884 63.8441 34.4677C64.0596 34.547 64.2298 34.6716 64.3546 34.8301C64.4793 34.9887 64.5701 35.1925 64.6382 35.4303C64.7062 35.6682 64.7402 35.9513 64.7516 36.2797H64.7856Z" fill="white"/>
<path d="M73.3851 33.7432H71.9898L70.1182 38.443H70.0501L68.0537 33.7432H66.7039V39.3943H67.5886V36.7103L67.5433 34.8643H67.6227L68.4734 36.9708L69.551 39.3943H70.5379L71.5701 37.0047L72.4209 34.8643H72.5003L72.4322 36.9708V39.3943H73.3851V33.7432Z" fill="white"/>
<path d="M79.1411 39.462L79.6289 39.2016C79.5382 39.0204 79.4701 38.8618 79.4247 38.7146C79.3793 38.5674 79.3567 38.3975 79.3567 38.205V35.6569C79.3567 35.3058 79.2999 35.0113 79.1865 34.7622C79.0731 34.513 78.9029 34.3092 78.6874 34.1393C78.4719 33.9694 78.211 33.8449 77.9047 33.7656C77.5984 33.6863 77.2581 33.6523 76.8952 33.6523C76.5322 33.6523 76.1919 33.675 75.8856 33.7316C75.5793 33.7882 75.2617 33.8788 74.9328 34.0034L75.1369 34.6376C75.4205 34.5583 75.6814 34.5017 75.9196 34.4677C76.1578 34.4338 76.4187 34.4111 76.7023 34.4111C76.9859 34.4111 77.2355 34.4338 77.4623 34.4791C77.6892 34.5244 77.882 34.6036 78.0295 34.7169C78.2677 34.8981 78.3925 35.1699 78.3925 35.5323V35.8041L76.3961 35.8947C75.7041 35.9287 75.171 36.0985 74.7967 36.393C74.4223 36.6874 74.2295 37.1291 74.2295 37.7067C74.2295 38.2616 74.4337 38.7146 74.842 39.0657C75.2504 39.4167 75.8516 39.5866 76.657 39.5866H76.8271L78.5286 38.8958L79.1411 39.462ZM76.7137 38.8165C76.1805 38.8165 75.7949 38.7259 75.5567 38.5447C75.3184 38.3635 75.205 38.0691 75.205 37.6727C75.205 37.299 75.3071 37.0272 75.5113 36.8573C75.7155 36.6874 75.9877 36.5968 76.328 36.5742L78.3584 36.4383V38.2503C78.1202 38.4201 77.8707 38.556 77.5984 38.658C77.3262 38.7599 77.0199 38.8165 76.6796 38.8165H76.7137Z" fill="white"/>
<path d="M82.9617 34.4906L85.0376 34.4793V33.7432H79.9104V34.4906H81.9862V39.3943H82.9617V34.4906Z" fill="white"/>
<path d="M86.7541 33.7432H85.8013V39.3943H86.7881L89.9983 35.0908H90.0777L90.021 36.9368V39.3943H90.9738V33.7432H90.0437L86.7428 38.1599H86.6747L86.7541 36.4611V33.7432Z" fill="white"/>
<path d="M93.0685 33.7432H92.1044V39.3943H93.0685V36.7556H94.4865L96.1993 39.3943H97.3223L95.2465 36.3026L97.1635 33.7432H96.0405L94.4411 35.9515H93.0685V33.7432Z" fill="white"/>
<path d="M102.426 39.462L102.914 39.2016C102.823 39.0204 102.755 38.8618 102.71 38.7146C102.664 38.5674 102.642 38.3975 102.642 38.205V35.6569C102.642 35.3058 102.585 35.0113 102.471 34.7622C102.358 34.513 102.188 34.3092 101.972 34.1393C101.757 33.9694 101.496 33.8449 101.19 33.7656C100.883 33.6863 100.543 33.6523 100.18 33.6523C99.8171 33.6523 99.4768 33.675 99.1705 33.7316C98.8643 33.7882 98.5466 33.8788 98.2177 34.0034L98.4219 34.6376C98.7055 34.5583 98.9663 34.5017 99.2046 34.4677C99.4428 34.4338 99.7037 34.4111 99.9872 34.4111C100.271 34.4111 100.52 34.4338 100.747 34.4791C100.974 34.5244 101.167 34.6036 101.314 34.7169C101.553 34.8981 101.677 35.1699 101.677 35.5323V35.8041L99.681 35.8947C98.989 35.9287 98.4559 36.0985 98.0816 36.393C97.7072 36.6874 97.5144 37.1291 97.5144 37.7067C97.5144 38.2616 97.7186 38.7146 98.1269 39.0657C98.5353 39.4167 99.1365 39.5866 99.9419 39.5866H100.112L101.814 38.8958L102.426 39.462ZM99.9986 38.8165C99.4655 38.8165 99.0798 38.7259 98.8416 38.5447C98.6034 38.3635 98.4899 38.0691 98.4899 37.6727C98.4899 37.299 98.592 37.0272 98.7962 36.8573C99.0004 36.6874 99.2726 36.5968 99.6129 36.5742L101.643 36.4383V38.2503C101.405 38.4201 101.156 38.556 100.883 38.658C100.611 38.7599 100.305 38.8165 99.9646 38.8165H99.9986Z" fill="white"/>
</g>
<defs>
<clipPath id="clip0_137_2180">
<rect width="152" height="47.5646" fill="white"/>
</clipPath>
</defs>
</svg>
