<svg width="269" height="258" viewBox="0 0 269 258" fill="none" xmlns="http://www.w3.org/2000/svg">
<path d="M174.367 63.7637C180.221 63.2653 191.234 61.2796 197.145 60.4793C197.878 60.38 199.03 60.3363 199.454 59.9332C199.79 59.6155 200.12 58.5651 200.269 58.0309C200.586 56.8792 200.009 55.6024 199.639 54.403C199.268 53.2036 198.263 52.1055 197.078 51.0352C193.241 47.578 188.118 45.5883 183.144 44.1129C178.167 42.6375 172.741 42.429 167.814 44.0593C162.887 45.6896 159.77 47.7945 157.033 52.4252C156.745 52.9137 155.902 54.8756 155.528 55.3025C155.155 55.7275 154.394 56.5555 154.116 56.0611C153.07 54.1885 152.661 52.0797 151.571 50.4772C149.448 47.3536 146.497 45.3917 142.957 44.2778C139.416 43.1618 135.24 43.7833 132.101 45.5387C129.188 47.167 127.315 48.978 127.315 52.312C127.315 52.9018 127.114 54.3156 127.156 54.5201C127.255 55.0027 127.23 55.9082 126.739 55.8546C126.483 55.8268 126.455 55.9618 126.286 55.7672C125.28 54.6155 125.145 52.171 125.466 50.6758C125.935 48.4994 125.17 48.001 123.338 47.165C120.631 45.9299 117.867 44.7245 114.89 44.7484C111.914 44.7722 108.983 45.5089 106.183 46.5196C104.467 47.1392 102.758 47.8819 101.387 49.0872C100.017 50.2925 99.0204 52.6277 99.0839 54.4506C99.1872 57.4749 102.342 59.1052 104.146 61.5337C104.483 61.9885 104.4 62.5167 104.088 62.9893C103.717 63.5532 103.024 63.3487 102.48 62.9496C100.847 61.7482 99.2309 59.6969 97.5549 58.5571C95.4044 57.0956 93.2697 57.8184 90.9762 59.0416C86.3077 61.5298 82.2291 65.12 79.3934 69.4608C92.0862 69.6812 104.751 69.1848 117.333 68.3309C138.306 66.9091 154.087 65.4893 174.367 63.7637Z" fill="#FDA79E"/>
<path d="M78.8043 81.0336C85.0713 81.7763 94.3228 81.3692 102.389 80.9244C114.633 80.2493 126.567 78.1385 139.214 78.6309C148.503 77.9419 158.388 76.6591 167.946 76.2738L222.794 68.3726C222.952 68.3488 223.079 68.4977 223.034 68.6526C222.214 71.4982 220.683 73.6328 217.791 76.1249C217.283 76.5638 218.344 77.6738 218.949 77.3819C220.369 76.6948 221.147 75.6344 222.732 75.5967C224.295 75.559 226.402 75.0487 227.792 75.7595C232.075 77.9518 235.689 80.285 238.896 83.9249C243.143 88.7462 246.183 97.0803 246.483 103.5C246.565 105.226 247.158 108.897 246.074 112.086C244.99 115.274 242.522 118.077 240.252 118.657C236.733 119.557 240.343 121.695 238.548 121.878C236.964 122.041 236.712 122.045 236.626 122.813C234.158 119.344 231.785 116.294 230.355 115.542C230.093 115.405 230.222 114.972 230.397 114.733C230.693 114.324 231.183 113.377 231.831 111.185C232.549 108.752 232.359 107.525 232.009 104.463C231.727 101.979 231.433 100.871 229.188 97.541C228.193 96.0656 225.915 97.2312 226.519 98.9052C227.246 100.919 228.393 103.367 228.88 105.488C229.821 109.58 227.13 116.624 222.98 117.267C219.452 117.815 218.58 118.633 215.478 116.862C212.476 115.146 210.754 118.778 212.885 119.718C215.021 120.659 215.381 120.844 217.353 121.435C219.128 121.967 224.529 121.848 226.02 119.902C226.443 119.35 227.269 119.737 227.796 120.194C229.384 121.568 231.551 125.264 233.078 128.093C234.47 130.673 235.055 132.601 236.362 135.224C237.446 137.401 238.129 138.679 236.604 141.015C235.268 143.062 233.991 144.75 232.532 145.985C230.977 147.299 230.621 147.238 228.262 148.461C225.715 149.784 223.006 149.629 220.826 148.106C219.291 147.033 220.139 146.962 217.438 143.556C216.397 142.244 215.665 142.833 215.266 143.237C214.751 143.753 215.027 145.014 215.055 145.071C215.343 145.687 217.208 148.95 218.153 149.722C218.203 149.764 218.715 150.355 220.687 151.841C220.975 156.603 217.228 163.799 213.222 166.122C210.841 167.502 207.033 168.445 204.265 168.704C199.338 169.16 195.212 168.348 190.672 166.209C188.981 165.413 185.766 163.084 184.366 161.845C183.804 161.346 182.779 160.244 181.933 159.045C180.676 157.262 179.832 155.074 179.832 155.074C179.832 155.074 182.042 154.563 183.19 153.86C186.3 151.96 185.905 152.643 188.198 150.351C190.091 148.459 190.095 148.946 191.455 146.126C192.61 143.729 192.628 144.635 192.918 141.757C193.016 140.784 192.704 139.613 191.896 139.521C190.621 139.376 190.228 139.488 190.057 140.917C189.693 143.977 187.735 146.007 185.654 148.088C184.233 149.51 181.53 151.358 179.58 151.867C176.905 152.564 173.659 152.258 170.787 151.529C169.485 151.199 166.647 149.176 165.867 150.27C165.154 151.269 165.319 152.025 166.46 152.848C168.021 153.969 166.927 153.34 168.633 154.164C170.505 155.07 171.095 155.266 174.904 155.481C177.632 155.633 178.728 155.471 178.728 155.471C178.728 155.471 179.137 157.117 179.874 158.449C180.809 160.139 180.358 159.762 182.191 162.282C182.68 162.955 187.676 167.018 187.676 167.018C187.676 167.018 184.805 168.781 183.913 169.115C182.243 169.74 178.053 170.941 176.337 171.43C172.392 172.554 168.335 171.299 164.54 169.454C160.745 167.609 158.43 166.039 156.748 161.843C156.19 160.451 154.669 157.45 153.77 158.652C152.928 159.776 153.138 160.036 153.579 161.388C153.926 162.456 156.043 166.333 156.043 166.333C156.043 166.333 153.18 168.578 152.892 168.817C149.427 171.692 145.457 172.574 141.903 172.198C139.81 171.976 137.552 171.041 135.711 170.02C133.871 168.999 130.819 166.15 130.415 164.107C129.983 161.918 130.769 161.485 131.577 159.281C132.308 157.292 133.267 156.197 132.119 155.828C130.102 155.177 129.804 157.004 128.751 158.491C127.558 160.175 126.748 161.724 127.33 163.763C127.506 164.387 127.892 166.509 128.255 167.083C128.821 167.979 130.956 170.131 130.956 170.131C130.956 170.131 128.219 171.966 127.457 172.357C125.27 173.475 122.687 173.584 120.735 173.584C116.065 173.584 110.985 171.958 107.933 169.468C105.651 167.605 103.022 164.806 101.638 162.206C101.12 161.231 100.733 159.031 100.751 158.004C100.782 156.295 102.595 154.736 103.102 153.199C103.453 152.139 104.506 147.901 104.506 147.901C104.506 147.901 107.83 151.553 108.825 151.938C110.709 152.665 111.513 152.869 113.751 152.71C115.822 152.564 118.213 150.985 116.223 150.399C113.882 149.708 114.992 150.117 112.367 149.73C110.328 149.428 108.551 148.39 107.043 146.984C106.188 146.185 105.731 144.462 105.31 143.519C104.782 142.333 104.561 141.233 104.186 140.272C103.767 139.194 103.777 138.038 103.525 137.246C103.207 136.251 102.808 134.194 102.311 135.095C101.257 137.011 102.194 139.454 102.319 142.422C102.431 145.069 102.355 145.046 102.25 148.05C102.107 152.168 98.1215 158.38 94.1878 159.613C92.2696 160.215 88.9296 159.543 86.3739 158.578C83.6912 157.566 82.1006 155.908 80.5498 154.476C77.5235 151.678 74.9183 148.34 74.7395 144.223C74.6164 141.376 74.1121 138.274 74.9401 135.548C75.9409 132.259 77.8452 125.059 79.404 126.334C81.2091 127.809 84.6821 129.569 86.4295 130.572C88.6297 131.837 94.8192 133.737 93.7251 132.045C92.8196 130.647 92.1584 130.963 89.8847 129.64C85.9847 127.373 86.642 127.843 83.5065 125.73C82.4442 125.016 81.6995 123.878 81.2388 123.288C80.0414 121.753 79.4259 120.57 78.8599 118.379C78.2344 115.961 77.881 113.615 79.3941 110.22C80.4902 107.762 80.7742 107.031 83.3219 106.06C85.385 105.273 85.0832 105.551 87.2298 105.551C87.7282 105.551 90.6333 106.256 90.6492 105.863C90.6969 104.706 90.6552 104.646 89.6444 103.564C89.1798 103.065 86.8267 102.374 85.7941 102.301C84.7 102.223 84.4934 102.184 83.3656 102.527C82.8334 102.69 80.945 103.363 79.5947 104.557C78.5422 105.488 77.9803 106.691 77.456 107.495C76.1514 109.491 76.7114 112.511 75.6391 112.186C75.2042 112.053 74.6899 112.059 71.5465 108.677C71.0143 108.105 70.1644 107.112 69.3463 105.74C68.4329 104.205 67.6604 102.098 67.4579 101.499C66.8224 99.6082 67.1858 95.45 67.1858 94.2348C67.1858 93.5278 67.156 91.6335 67.9603 89.3161C68.4607 87.8725 69.4039 86.0238 70.1267 84.882C71.4214 82.8387 75.4326 81.5043 75.645 81.9669C76.9159 84.7152 79.0208 87.7931 82.5613 88.7323C84.5967 89.2724 85.4287 89.1592 86.3144 89.1632C87.2238 89.1672 88.1849 89.2744 90.3533 88.8693C92.2557 88.5139 93.1234 87.5846 93.5424 87.1457C94.0944 86.5659 94.3188 85.3208 93.4372 85.1858C90.8398 84.7906 89.6345 86.6155 86.4077 86.4289C82.4382 86.1985 80.5557 84.0122 79.406 82.8625C79.3603 82.8248 77.4858 80.8788 78.8043 81.0336Z" fill="#FDA79E"/>
<path d="M67.8216 108.412C66.5408 112.018 66.0662 116.416 67.2457 120.056C68.3657 123.507 70.9967 126.222 73.5444 128.803C74.2553 129.522 76.1795 130.692 77.1902 130.664C77.7284 130.65 77.1386 130.007 77.6211 129.764C79.027 129.059 82.0156 129.735 83.4115 129.012C79.9166 125.99 76.0643 120.191 75.6453 115.59C75.5997 115.09 75.7565 114.349 75.4229 113.974C75.1092 113.622 74.4182 113.708 73.9654 113.581C71.4614 112.874 69.0706 110.723 67.8216 108.412Z" fill="#FDA79E"/>
<path d="M201.015 51.6056C201.74 52.8745 202.373 54.2685 202.671 55.6982C202.967 57.1279 202.56 58.6431 201.575 59.7213C207.771 58.9747 214.731 58.0751 220.847 56.8261C218.255 54.4234 214.864 52.1537 211.498 51.4249C208.1 50.6902 204.244 50.5433 201.015 51.6056Z" fill="#FDA79E"/>
<path d="M226.669 119.537C229.854 122.501 232.112 126.274 234.04 130.107C240.48 142.903 243.993 156.533 243.864 170.484C243.816 175.627 242.859 181.301 238.87 184.547C238.326 184.99 237.807 185.512 237.553 186.166C237.299 186.819 237.577 187.756 238.278 187.742C238.582 187.736 239.545 187.359 239.795 187.186C241.366 186.102 241.515 184.083 243.316 184.432C244.668 184.694 243.679 187.953 244.005 189.291C244.33 190.63 245.363 191.448 246.717 191.197C247.692 191.017 248.064 189.341 248.353 188.392C248.643 187.442 248.578 186.428 248.508 185.437C247.821 175.502 247.114 167.21 247.114 157.251C247.114 149.859 244.267 140.567 241.616 133.498C239.042 126.639 235.714 119.707 230.192 114.902C229.153 116.318 227.658 118.367 226.669 119.537Z" fill="#764550"/>
<path d="M167.691 173.562C167.004 178.671 167.1 183.965 167.207 189.17C167.344 195.774 168.009 202.174 168.799 208.731C168.922 209.742 169.31 211.388 168.635 212.153C168.136 212.719 167.028 212.119 166.275 212.093C165.523 212.065 164.498 211.976 163.648 212.026C161.955 212.123 160.622 212.151 159.059 212.806C158.176 213.175 157.324 213.709 156.919 214.631C156.786 214.935 156.722 215.268 156.754 215.6C156.877 216.887 158.144 217.312 159.27 217.611C163.321 218.686 167.646 218.203 171.708 217.796C172.38 217.729 173.17 217.298 173.513 216.718C173.821 216.2 173.549 213.761 173.466 213.165C172.807 208.388 172.046 205.993 171.387 201.217C170.827 197.164 170.303 192.581 170.739 188.505C171.176 184.436 172.878 176.257 172.878 176.257L173.861 174.182L172.61 174.201C172.61 174.195 169.322 173.878 167.691 173.562Z" fill="#764550"/>
<path d="M142.898 174.549C144.645 185.284 145.851 195.534 146.939 206.096C147.014 206.829 147.05 207.677 146.516 208.185C146.182 208.503 144.115 208.704 143.663 208.791C141.278 209.254 140.479 209.615 138.095 210.078C137.288 210.235 136.162 210.598 135.481 211.055C134.8 211.512 134.401 212.044 134.582 212.844C134.836 213.968 136.869 214.021 138.005 214.208C141.18 214.728 144.103 214.78 147.114 214.653C148.901 214.577 151.03 213.99 151.754 212.355C152.366 210.977 151.681 209.089 151.218 207.653C147.924 197.427 147.153 188.725 146.79 177.986C146.77 177.415 146.808 176.033 147.05 174.067" fill="#764550"/>
<path d="M34.2914 90.6543C35.0956 93.748 36.2334 96.542 37.7664 99.3438C38.2152 100.164 38.9916 100.815 39.8355 101.218C41.2434 101.892 42.6096 101.163 43.8169 100.174C45.8444 98.5138 48.1081 95.7616 50.5128 93.3549C51.5871 92.2806 53.8885 90.8469 55.501 91.1467C57.0399 91.4327 57.9652 93.2 58.553 94.6496C59.3533 96.6234 59.6114 98.0134 60.221 100.055C60.8306 102.096 61.5753 104.491 63.3406 105.682C64.0614 106.169 65.368 106.53 65.1615 107.376C64.9749 108.143 64.8339 108.617 64.5181 109.36C64.3295 109.803 64.0753 110.962 63.6881 111.248C63.0983 111.685 62.028 111.274 61.2615 111.203C55.9974 110.712 52.5442 110.001 47.3178 109.247C43.6422 108.716 40.046 108.532 37.274 107.029C35.5503 106.095 34.2735 103.677 33.4177 101.913C32.5618 100.15 31.8231 98.4264 31.1718 96.1269C29.1186 88.8731 29.2913 81.5338 29.2913 74.1946C29.2913 70.2072 30.0221 66.5634 29.2556 63.0964C28.7413 60.773 27.5042 58.418 26.6126 57.2246C26.2055 56.6805 26.3266 55.4334 26.3266 55.4334L25.2424 52.4866C25.2424 52.4866 32.9987 52.0636 32.9073 54.7186C32.8656 55.9477 32.8934 57.2305 32.679 58.3961C31.3088 65.785 32.6035 74.1092 33.3541 82.4532C33.5884 85.0506 33.646 88.1681 34.2914 90.6543Z" fill="#764550"/>
<path d="M25.5765 49.9619C25.3481 49.5766 25.1734 49.0286 25.0939 48.5878C25.0145 48.1469 25.1078 47.6505 25.4355 47.3467C25.6777 47.1223 26.0133 47.029 26.335 46.9555C28.2513 46.5266 30.2429 46.5742 32.2009 46.745C32.7787 46.7946 33.4439 46.9138 33.7199 47.4221C33.8867 47.7279 33.8609 48.1013 33.7855 48.4428C33.71 48.7824 33.5909 49.1179 33.5809 49.4654C33.573 49.7573 33.6445 50.0473 33.6504 50.3392C33.6564 50.6311 33.5809 50.9508 33.3466 51.1275C30.7831 50.7204 28.1659 50.4663 25.5765 49.9619Z" fill="#764550"/>
<path d="M194.758 97.8452C193.076 98.4569 191.97 98.0994 190.461 97.9227C188.952 97.746 186.757 97.1224 185.236 97.1224C181.567 97.1224 178.54 99.6026 174.881 99.3246C173.691 99.2333 172.387 98.8063 171.854 97.74C171.223 96.4711 171.978 94.956 172.863 93.848C175.383 90.6986 179.168 88.5937 183.171 88.1072C187.174 87.6207 191.35 88.7546 194.563 91.193C195.385 91.8166 196.16 92.5394 196.65 93.4469C197.143 94.3543 197.022 94.9759 196.634 95.933C196.247 96.8901 195.508 97.5732 194.758 97.8452Z" fill="#764550"/>
<path d="M131.6 84.6492C128.792 81.8057 125.621 81.2596 121.655 81.764C117.692 82.2683 113.919 84.5042 111.913 87.9614C111.427 88.7974 110.829 90.1219 110.843 91.0889C110.857 92.056 111.673 92.8661 112.573 93.2236C113.675 93.6584 115.678 93.029 116.687 92.4035C118.5 91.2815 119.517 90.102 121.546 89.4487C123.576 88.7974 125.698 88.9284 127.551 89.9829C128.766 90.6759 130.081 91.6588 131.473 91.5278C132.72 91.4106 133.848 90.2629 133.921 89.0138C133.997 87.7648 132.37 85.4296 131.6 84.6492Z" fill="#764550"/>
<path d="M151.109 137.742C151.072 137.478 151.026 137.198 150.861 136.988C150.696 136.777 150.365 136.67 150.154 136.835C149.916 137.02 149.97 137.385 150.051 137.675C150.174 138.112 150.307 138.545 150.452 138.976C150.581 139.359 150.728 139.754 151.02 140.034C151.312 140.314 151.792 140.439 152.128 140.213C152.464 139.986 152.454 139.363 152.068 139.238C157.742 140.886 164.279 139.049 168.264 134.686C169.686 133.13 170.812 131.235 171.135 129.152C171.459 127.069 170.889 124.787 169.362 123.334C170.401 123.334 171.284 123.435 172.311 123.253C172.793 123.167 173.002 122.766 172.956 122.413C172.881 121.843 172.672 121.708 172.17 121.757C170.139 121.958 168.336 121.859 166.072 122.186C165.665 122.246 165.444 122.687 165.609 123.064C165.754 123.396 165.671 123.38 166.03 123.366C166.433 123.352 167.376 123.266 167.754 123.392C168.886 123.771 169.297 124.865 169.735 125.995C170.319 127.502 170.077 129.241 169.354 130.687C168.631 132.131 166.578 134.476 165.262 135.413C162.476 137.395 160.585 138.05 157.098 138.467C156.066 138.59 154.783 138.412 153.665 138.229C152.825 138.092 151.747 138.249 151.109 137.742Z" fill="#764550"/>
<path d="M78.2054 69.5125C78.2054 69.5125 129.997 67.4453 155.563 65.2571C159.555 64.9056 163.743 64.3218 167.73 63.9048C185.699 62.0223 203.463 59.6831 221.664 56.6787C223.89 59.7606 226.277 65.0188 224.135 68.3707C205.963 71.0852 187.468 74.3279 170.8 76.4427C147.297 79.4252 124.26 80.706 98.8113 81.9531C96.1048 82.0861 81.6269 81.8379 79.0136 81.121C76.4004 80.4022 77.0239 79.8502 77.0239 79.8502C77.0239 79.8502 76.8174 76.3791 76.9465 75.289C77.1113 73.895 78.2054 69.5125 78.2054 69.5125Z" fill="#B2BB21"/>
<path d="M76.9018 79.2568C77.4042 79.6381 77.9264 80.204 78.5678 81.0102C79.6798 82.4062 81.052 84.6223 82.5869 85.3113C85.0075 86.3995 87.863 86.4769 90.3392 85.5238C91.0779 85.2398 91.8107 84.8625 92.603 84.8606C93.3933 84.8586 94.263 85.4106 94.265 86.2009C94.267 86.7966 93.7984 87.2792 93.3297 87.6445C90.7205 89.6779 87.0866 90.1843 83.9114 89.2609C80.7362 88.3356 79.0861 87.3765 77.0904 84.7374C76.6615 84.1715 75.8315 82.4479 75.4502 82.1878C74.7096 81.6814 73.671 82.2811 72.9423 82.7477C68.2837 85.7323 67.275 90.4921 67.275 95.5716C67.275 100.973 69.3362 107.273 73.5519 110.651C73.9033 110.933 75.4324 112.013 75.8652 111.89C76.4332 111.729 76.4908 110.423 76.6 109.841C77.295 106.148 80.2994 103.094 83.9551 102.222C86.1037 101.709 88.9333 102.557 90.3551 104.249C90.6986 104.658 90.9707 105.335 90.7264 105.81C90.5318 106.187 89.7654 106.155 89.3404 106.136C88.9155 106.116 88.5143 105.951 88.1073 105.826C86.3042 105.266 84.2748 105.48 82.6286 106.408C80.9845 107.335 79.7493 108.961 79.2946 110.794C79.0027 111.972 78.9491 113.356 77.9979 114.112C77.1004 114.827 75.7858 114.637 74.7096 114.237C71.6078 113.086 68.5875 110.667 67.3981 108.1C65.7499 104.539 64.2189 99.3603 64.5724 94.9421C64.9259 90.5238 66.57 86.1274 69.3918 82.712C70.0431 81.9257 70.8612 81.2723 71.7429 80.7561C72.6245 80.2398 73.6929 79.8307 74.6837 80.0769C75.1742 80.1981 75.2417 80.3907 75.7481 80.4244C76.2545 80.4582 76.8561 79.9757 76.9018 79.2568Z" fill="#D36B66"/>
<path d="M101.708 164.957C100.558 164.862 100.453 159.699 99.2296 159.542C98.4293 159.439 97.2041 160.281 96.5171 160.706C93.5603 162.533 89.9562 162.106 86.4951 161.085C81.6102 159.644 77.5176 156.31 75.0057 151.879C73.983 150.074 72.8333 148.327 72.4818 146.309C71.9754 143.416 72.1264 141.379 72.591 138.438C72.7519 137.417 73.2761 135.185 73.6653 134.151C73.842 133.68 74.3047 133.222 74.1339 132.703C73.9651 132.191 73.0755 131.853 72.7876 131.665C72.3706 131.391 71.7332 130.922 71.3718 130.559C70.4683 129.655 69.7097 128.926 69.6243 128.823C68.6196 127.622 68.0675 126.611 67.8392 126.174C67.5929 125.702 67.4361 125.354 66.5723 123.809C65.357 121.637 64.2529 118.392 64.0981 115.91C64.0166 114.619 64.1795 113.575 64.3483 112.28C64.3979 111.901 63.3395 111.563 63.5321 111.198C64.0603 110.199 64.8368 108.497 65.1882 107.181C65.2557 106.925 65.9964 107.316 66.2307 107.242C66.5306 107.149 66.6338 106.885 66.7927 106.547C66.9754 106.162 67.3864 105.562 67.2117 105.292C67.2653 105.91 67.861 107.429 67.998 108.035C68.0616 108.318 67.9543 108.608 67.8531 108.882C66.5465 112.457 66.3519 115.904 67.4877 119.536C68.6255 123.176 71.1494 126.655 74.1915 129.286C74.7575 129.776 75.4167 130.14 76.1216 130.398C76.8206 130.654 77.6526 131.127 77.5176 131.849C77.4541 132.187 77.4084 132.455 77.1959 132.727C76.7809 133.257 75.9191 132.713 75.6749 133.341C75.4306 133.97 74.7316 136.456 74.6721 137.127C74.4179 139.945 74.3821 141.5 74.9977 144.62C75.4405 146.865 76.1355 149.417 77.6229 151.254C80.8119 155.198 85.3136 158.683 90.0198 159.576C92.0869 159.969 94.6068 159.536 96.3721 158.393C98.1374 157.249 99.4103 155.269 100.336 153.379C102.186 149.6 102.631 147.078 102.149 142.898C101.89 140.658 100.852 136.718 102.198 134.989C102.57 134.512 103.556 134.903 103.598 136.109C103.672 138.188 104.287 140.245 104.939 142.151C105.338 143.321 105.628 144.431 106.178 145.456C107.627 148.148 110.532 149.538 113.569 149.779C114.726 149.87 115.91 149.159 116.996 150.386C117.2 150.616 117.282 150.938 117.181 151.228C116.948 151.901 116.15 152.418 115.451 152.541C113.904 152.813 112.294 152.94 110.769 152.559C110.014 152.37 109.279 152.187 108.582 151.826C106.93 150.97 105.493 149.572 104.502 148.019C104.305 150.021 103.68 152.163 102.867 154.008C102.008 155.962 100.747 156.766 100.896 158.945C100.925 159.393 101.227 160.615 101.303 161.057C101.408 161.663 103.475 164.58 103.034 164.669C102.589 164.765 101.916 164.975 101.708 164.957Z" fill="#D36B66"/>
<path d="M97.9838 156.892C97.3742 157.475 97.3742 157.43 96.0954 158.149C94.8086 158.77 95.0588 158.75 93.3491 159.189C92.1041 159.411 91.9432 159.509 90.168 159.344C89.7569 159.278 89.3518 159.187 88.9507 159.076C88.3768 158.925 87.8129 158.732 87.2609 158.514C84.2187 157.156 81.9788 155.641 80.1321 153.99C78.0014 152.068 76.4386 149.806 75.8529 148.357C75.0049 145.926 74.8699 145.158 74.7726 143.119C74.725 141.578 74.8044 140.033 75.003 138.504C75.0149 138.422 75.0248 138.339 75.0367 138.258C75.2293 136.967 75.4736 135.686 75.7694 134.415C75.8588 133.817 76.1845 133.226 76.0792 132.618C75.9879 131.343 74.2682 130.787 73.3965 131.707C72.9259 132.165 72.9021 132.86 72.7313 133.46C72.5168 134.373 72.3262 135.293 72.1654 136.216C71.7483 138.591 71.4902 141.006 71.6054 143.42C71.7265 145.988 72.3222 148.561 73.5355 150.839C75.7913 154.836 79.4013 157.928 83.3827 160.13C87.8447 162.652 92.2073 163.568 96.9909 161.244C97.9441 160.782 98.8893 160.277 99.7094 159.6C100.041 159.33 100.42 159.046 100.557 158.627C101.26 157.046 99.203 155.68 97.9838 156.892Z" fill="#D36B66"/>
<path d="M76.8519 130.688C74.3459 129.568 70.4877 126.125 68.6429 122.27C68.1922 121.407 67.664 119.933 67.3443 118.001C67.1238 116.722 66.8419 114.397 67.0762 112.002C67.0782 111.988 67.0802 111.976 67.0802 111.962C67.2549 110.831 67.513 109.709 67.8943 108.626C68.3153 107.53 68.0452 108.088 68.7303 106.78C68.909 106.446 69.1811 106.134 69.185 105.739C69.4352 104.472 67.9102 103.487 66.824 104.157C66.262 104.488 66.0257 105.139 65.716 105.682C65.2175 106.698 64.8045 107.757 64.4947 108.847C63.768 111.416 63.6647 114.111 63.9804 116.752C64.183 118.438 64.4371 120.132 64.9971 121.74C66.6969 126.484 70.3765 130.66 74.7252 133.166C75.3209 133.442 75.9524 133.911 76.6355 133.782C78.3412 133.589 78.4941 131.145 76.8519 130.688Z" fill="#D36B66"/>
<path d="M76.8453 78.6458C75.0006 78.2903 73.1081 78.8483 71.5116 79.7717C68.8845 81.4298 67.2403 84.2356 66.1244 87.0633C65.2725 89.2972 64.7641 91.6523 64.6351 94.0391C64.504 96.0427 64.361 98.0503 64.4166 100.058C64.4663 101.055 64.5695 102.058 64.8237 103.025C65.1772 104.256 65.7371 105.419 66.313 106.559C66.6287 107.165 66.9683 107.759 67.3376 108.332C67.5263 108.606 67.6692 108.932 67.9631 109.109C68.5529 109.631 69.5041 109.524 70.0481 108.984C70.5485 108.493 70.6558 107.659 70.2964 107.06C69.9687 106.565 69.655 106.059 69.369 105.538C67.8758 102.675 67.57 102.038 67.5799 98.8168C67.6236 96.7536 67.7308 94.6885 67.9333 92.6352C67.9353 92.6213 67.9373 92.6074 67.9393 92.5935C68.0426 91.9144 68.1696 91.2373 68.3424 90.5721C68.6343 89.5196 68.9441 88.4652 69.369 87.4584C70.1018 85.8877 71.601 82.9786 73.9878 82.0692C73.9918 82.0672 73.9958 82.0652 73.9997 82.0632C74.3691 81.9183 74.7523 81.817 75.1415 81.7455C75.4334 81.7137 75.7273 81.6978 76.0212 81.7197C76.2257 81.7594 76.4283 81.7951 76.6328 81.7376C78.3326 81.5469 78.4915 79.1065 76.8453 78.6458Z" fill="#D36B66"/>
<path d="M134.12 168.46C133.476 167.814 132.444 167.884 131.812 168.497C131.391 168.811 130.961 169.113 130.516 169.389C129.005 170.352 126.576 171.406 126.08 171.599C123.206 172.749 121.346 173.404 119.032 173.309C116.123 173.126 113.119 172.119 109.944 170.06C107.128 168.184 105.16 166.446 103.422 162.929C103.413 162.975 102.561 160.954 102.281 159.669C102.056 158.575 102.118 158.734 102.082 158.422C102.068 158.106 102.102 157.772 101.937 157.49C101.308 155.902 98.9029 156.384 98.897 158.102C98.9486 159.683 99.3338 161.238 99.9137 162.703C100.623 164.669 101.651 166.514 102.974 168.134C105.942 171.728 110.412 174.506 114.878 175.799C119.688 177.137 122.936 176.385 127.414 174.457C129.37 173.638 131.314 172.739 133.052 171.512C133.417 171.254 133.77 170.976 134.124 170.702C134.733 170.118 134.735 169.049 134.12 168.46Z" fill="#D36B66"/>
<path d="M103.346 149.79C103.185 149.492 102.7 149.554 102.619 149.885C102.081 152.787 101.29 155.658 101.233 158.625C101.147 159.193 101.997 159.286 102.023 158.708C102.069 155.841 102.796 153.225 103.356 150.243C103.387 150.092 103.435 149.929 103.346 149.79Z" fill="#D36B66"/>
<path d="M102.753 152.467C102.606 152.338 102.368 152.363 102.231 152.498C102.029 152.788 102.021 153.183 101.899 153.513C101.641 154.448 101.385 155.384 101.107 156.313C101.05 156.595 100.865 156.883 100.871 157.167C100.909 157.588 101.542 157.628 101.643 157.22C102.027 156.108 102.313 154.967 102.634 153.835C102.722 153.519 102.809 153.201 102.894 152.886C102.936 152.735 102.884 152.554 102.753 152.467Z" fill="#D36B66"/>
<path d="M102.821 151.4C102.772 151.45 102.738 151.507 102.72 151.575C102.536 152.21 102.351 152.844 102.158 153.477C101.823 154.676 101.465 155.383 101.036 156.416C100.961 156.833 101.564 157.039 101.769 156.67C102.329 155.53 102.752 154.333 103.097 153.112C103.215 152.617 103.449 152.131 103.493 151.628C103.471 151.309 103.038 151.17 102.821 151.4Z" fill="#D36B66"/>
<path d="M155.761 164.992C152.913 167.381 151.666 168.68 148.219 170.41C145.947 171.516 143.779 172.221 140.792 172.034C140.494 171.978 140.2 171.905 139.912 171.815C139.553 171.706 139.2 171.581 138.852 171.438C136.209 170.197 135.184 169.538 133.437 167.838C131.501 166.031 130.73 164.415 130.659 163.283C130.631 162.842 130.673 162.401 130.717 161.962C130.792 161.49 130.905 161.023 131.062 160.572C131.126 160.392 131.197 160.215 131.269 160.04C131.37 159.834 131.477 159.629 131.477 159.393C131.564 158.988 131.441 158.527 131.165 158.219C130.514 157.246 128.83 157.473 128.457 158.587C127.563 160.527 127.198 162.772 127.732 164.861C128.242 166.698 129.404 168.257 130.715 169.607C132.466 171.448 134.553 172.959 136.868 174.008C139.315 175.213 141.31 175.499 143.999 175.052C145.794 174.838 147.51 174.24 149.142 173.479C151.346 172.467 153.384 171.128 155.248 169.581C155.979 168.988 156.676 168.352 157.391 167.743C157.732 167.431 158.199 167.197 158.336 166.726C159.037 165.151 156.984 163.779 155.761 164.992Z" fill="#D36B66"/>
<path d="M188.039 165.578C183.738 167.939 180.341 169.901 176.415 171.085C174.171 171.712 172.559 171.696 171.043 171.468C169.622 171.224 168.222 170.835 166.883 170.295C166.617 170.175 166.353 170.054 166.095 169.921C165.116 169.421 164.175 168.849 163.301 168.18C163.299 168.18 163.299 168.178 163.297 168.178C160.882 166.17 158.069 163.313 157.01 161.706C156.403 160.821 155.855 159.895 155.35 158.946C155.034 158.454 154.919 157.788 154.413 157.449C153.442 156.607 151.833 157.423 151.861 158.696C151.847 159.159 152.107 159.544 152.294 159.945C152.521 160.4 152.761 160.846 153.009 161.287C154.405 163.845 156.331 166.053 158.432 168.057C161.472 171.123 164.699 173.313 168.964 174.278C174.675 175.737 179.248 173.728 184.272 171.206C185.529 170.567 186.774 169.901 188.011 169.226C188.446 168.988 188.883 168.754 189.31 168.505C189.594 168.339 189.914 168.202 190.087 167.908C191.167 166.563 189.54 164.717 188.039 165.578Z" fill="#D36B66"/>
<path d="M214.552 164.179C213.883 163.991 213.337 164.334 212.751 164.6C212.263 164.797 212.134 164.882 210.925 165.341C208.681 166.213 206.361 166.945 203.974 167.303C203.123 167.402 202.265 167.474 201.407 167.462C200.507 167.454 199.612 167.384 198.718 167.277C196.276 166.902 193.841 166.33 191.554 165.388C187.803 163.776 184.514 160.643 182.854 158.383C181.949 157.154 181.077 155.879 180.459 154.477C180.289 153.996 180.237 153.456 179.907 153.063C178.887 151.683 176.679 152.777 177.127 154.447C177.664 156.451 178.811 158.214 180.023 159.872C182.171 162.829 184.917 165.355 188.087 167.186C191.794 169.277 196.055 170.273 200.275 170.597C203.593 170.815 206.901 170.113 210.027 169.046C211.131 168.655 212.225 168.236 213.305 167.787C213.699 167.622 214.092 167.458 214.483 167.285C214.817 167.14 215.182 167.001 215.375 166.673C216.101 165.855 215.597 164.431 214.552 164.179Z" fill="#D36B66"/>
<path d="M220.303 148.05C219.928 147.222 219.495 146.422 219.042 145.636C218.673 144.97 217.702 144.849 217.172 145.395C216.578 146.015 216.85 146.702 217.261 147.324C217.483 147.721 217.696 148.124 217.9 148.531C218.355 149.434 218.611 150.08 219.044 151.595C219.41 153.15 219.451 153.245 219.495 154.494C219.465 155.622 219.433 155.725 218.983 157.165C218.097 159.625 216.379 162.074 213.683 164.333C213.307 164.621 213.494 164.508 212.68 165.04C212.406 165.237 212.042 165.334 211.858 165.632C211.044 166.629 212.283 168.037 213.395 167.383C217.124 165.227 220.676 160.739 221.651 156.519C222.281 153.65 221.425 150.685 220.303 148.05Z" fill="#D36B66"/>
<path d="M223.413 150.629C223.01 149.92 221.987 149.82 221.443 150.424C220.615 151.449 220.682 152.863 220.285 154.068C220.027 154.971 219.767 155.877 219.411 156.747C219.451 156.651 219.491 156.556 219.531 156.463C219.33 157.035 218.853 157.585 219.038 158.22C219.225 158.959 220.138 159.322 220.788 158.933C221.189 158.72 221.316 158.274 221.493 157.888C221.624 157.587 221.755 157.283 221.868 156.973C222.402 155.525 222.779 154.028 223.071 152.515C223.113 152.366 223.159 152.217 223.21 152.07C223.568 151.717 223.725 151.157 223.413 150.629Z" fill="#D36B66"/>
<path d="M237.989 138.881C236.665 135.229 237.056 139.818 236.838 140.426C236.566 140.948 236.268 141.458 235.956 141.957C235.14 143.235 234.844 143.599 233.478 144.834C232.181 145.926 230.317 147.3 228.095 148.351C226.939 148.881 224.747 149.369 223.305 148.923C222.471 148.686 222.249 148.49 221.959 148.281C221.635 148.035 221.472 147.59 221.063 147.467C219.889 146.933 218.849 148.492 219.762 149.399C220.898 150.88 222.852 151.446 224.653 151.476C227.286 151.496 229.759 150.37 231.911 148.936C233.394 147.961 234.842 146.903 236.097 145.642C237.09 144.625 237.888 143.434 238.585 142.199C238.792 141.766 238.782 141.609 238.845 141.129C238.653 140.485 238.434 139.766 237.989 138.881Z" fill="#D36B66"/>
<path d="M243.76 84.8385C242.602 83.1387 241.244 81.5918 239.773 80.1601C238.019 78.4107 236.099 76.8023 233.944 75.5672C230.998 73.9269 227.558 73.2498 224.202 73.3749C221.786 73.5616 219.262 74.1076 217.368 75.7062C215.779 77.1895 217.943 79.487 219.534 78.0195C220.392 77.2828 222.884 76.427 225.285 76.5322C227.155 76.6116 226.875 76.5918 228.361 76.8738C229.222 77.0584 230.078 77.2808 230.898 77.6045L231.045 77.6641C232.106 78.1268 233.101 78.7245 234.044 79.3936C235.029 80.041 236.248 81.1371 237.751 82.6284C239.874 84.7909 240.527 85.5375 242.09 88.1348C244.65 92.5213 246.135 97.3744 246.427 101.842C246.683 105.653 246.214 109.027 245.14 111.261C243.335 114.974 241.431 117.573 239.105 119.051C237.972 119.783 237.002 120.186 236.677 120.308C236.101 120.528 235.823 120.522 235.511 121.116C236.399 122.264 236.504 122.786 237.074 123.638C238.093 123.225 237.701 123.219 238.47 122.907C239.902 122.337 240.847 121.801 242.04 120.826C243.887 119.404 245.237 117.454 246.466 115.498C247.485 113.84 248.359 112.069 248.899 110.194C249.368 108.544 249.546 106.824 249.636 105.117C249.94 97.9622 247.7 90.7838 243.76 84.8385Z" fill="#D36B66"/>
<path d="M224.181 68.4714C224.128 67.6195 225.822 66.2514 222.057 68.6442C221.884 69.0373 221.699 69.4246 221.509 69.8098C220.68 71.4957 218.693 74.089 218.351 74.512C217.974 74.9806 217.601 75.4532 217.213 75.9159C217.029 76.1065 216.832 76.2972 216.761 76.5593C216.06 78.1379 218.109 79.5061 219.336 78.2948C221.169 76.0887 223 73.819 224.326 71.2633C224.775 70.3817 225.772 67.2303 224.692 67.1251C224.825 66.5115 224.231 69.2677 224.181 68.4714Z" fill="#D36B66"/>
<path d="M223.214 68.2646C221.113 68.3361 221.117 71.3644 223.214 71.4418C225.315 71.3703 225.309 68.3421 223.214 68.2646Z" fill="#D36B66"/>
<path d="M223.678 101.426C223.664 100.946 223.624 100.465 223.589 99.9864C223.569 99.7978 223.595 99.5952 223.497 99.4244C223.352 99.0055 222.86 98.797 222.443 98.9062C221.452 99.202 221.895 100.354 221.877 101.108C221.948 102.449 221.982 103.42 221.784 104.202C221.061 107.933 220.132 110.366 217.429 111.893C216.444 112.419 216.486 112.455 215.437 112.677C215.122 112.705 214.786 112.717 214.558 112.965C213.998 113.497 214.413 114.51 215.189 114.49C217.82 114.288 220.433 112.312 221.744 110.074C222.487 108.708 222.943 107.205 223.299 105.695C223.438 105.006 223.595 104.319 223.674 103.62C223.771 102.894 223.706 102.159 223.678 101.426Z" fill="#F7B6B2"/>
<path d="M211.224 158.967C210.887 158.765 210.416 158.824 210.142 159.106C210.015 159.251 209.88 159.388 209.743 159.523C209.668 159.61 209.415 159.819 209.318 159.896C208.391 160.589 206.991 161.344 206.566 161.473C204.012 162.414 202.046 162.47 199.101 162.158C198.041 162.085 197.05 161.85 195.561 161.406C194.177 160.965 193.865 160.844 192.543 160.083C191.165 159.247 189.465 157.502 188.633 156.257C188.021 155.26 186.522 156.122 187.09 157.158C188.337 158.963 189.937 160.568 191.808 161.725C193.365 162.653 195.108 163.185 196.858 163.612C200.934 164.41 205.478 164.456 209.11 162.176C209.884 161.698 210.654 161.191 211.274 160.516C211.778 160.089 211.826 159.338 211.224 158.967Z" fill="#F7B6B2"/>
<path d="M174.505 165.218C174.279 164.995 173.981 164.934 173.673 164.953C173.375 164.944 173.077 164.922 172.78 164.904C172.627 164.896 172.063 164.836 172.061 164.84C170.834 164.664 169.606 164.441 168.435 164.024C168.298 163.984 167.784 163.78 167.605 163.708C164.63 162.442 163.282 161.256 161.785 159.062C161.189 158.224 160.651 157.346 160.093 156.484C159.829 156.101 159.686 155.553 159.328 155.259C158.582 154.649 157.523 155.577 158.016 156.413C158.572 157.493 159.261 158.494 159.924 159.509C160.726 160.646 161.534 161.806 162.567 162.747C163.606 163.697 164.833 164.394 166.106 164.979C168.264 166.044 170.653 166.552 173.044 166.707C173.429 166.705 173.854 166.826 174.215 166.665C174.799 166.467 174.946 165.631 174.505 165.218Z" fill="#F7B6B2"/>
<path d="M122.448 52.9172C121.362 51.2412 120.141 49.454 118.189 48.7392C116.992 48.2308 115.602 48.2586 114.375 48.6439C113.143 49.0648 112.065 49.8274 111.027 50.5939C110.026 51.2948 109.261 52.2718 108.715 53.358C108.252 54.1781 107.863 55.0498 107.695 55.9811C107.516 56.8469 107.52 57.7345 107.669 58.6043C107.83 59.6666 108.048 60.7231 108.417 61.7338C108.536 62.0336 108.681 62.3196 108.812 62.6135C108.91 62.82 108.981 63.0603 109.188 63.1834C109.936 63.797 110.993 62.8577 110.5 62.0317C110.002 61.0269 109.799 60.3597 109.517 58.8922C109.162 57.1487 109.297 55.8977 110.326 54.1344C110.911 52.9787 111.527 52.4207 112.212 51.9263C112.992 51.3742 113.787 50.8143 114.666 50.429C115.896 49.9227 117.544 50.0776 118.723 51.0843C119.798 52.0633 119.939 52.4048 120.798 53.6519C121.011 53.9358 121.138 54.3052 121.424 54.5216C121.883 54.9307 122.685 54.6447 122.828 54.057C122.953 53.6201 122.677 53.2627 122.448 52.9172Z" fill="#F7B6B2"/>
<path d="M97.6342 127.383C97.2192 127.324 96.8122 127.223 96.421 127.072C95.6863 126.768 94.743 126.347 93.6271 125.628C91.9134 124.514 90.7259 122.864 90.1044 120.507C89.4431 118.249 89.5623 117.171 90.2295 114.748C90.6941 113.293 90.8748 112.731 91.4547 111.656C91.6393 111.299 92.0246 111.023 92.0643 110.608C92.2232 109.663 90.8967 109.204 90.4142 110.038C88.9408 111.982 87.6758 116.269 87.9181 118.708C88.1504 120.626 88.7521 122.532 89.743 124.194C90.9801 126.22 93.0572 127.544 95.1878 128.484C96.0794 128.837 98.1366 129.854 98.2915 128.247C98.2955 127.854 98.0115 127.483 97.6342 127.383Z" fill="#F7B6B2"/>
<path d="M96.1847 145.272C96.0496 147.377 95.9007 148.608 94.9317 150.366C94.1274 151.988 92.805 152.848 91.4626 153.346C89.8959 153.821 89.7191 153.793 88.0908 153.318C87.0523 152.925 86.9927 152.975 86.2501 152.558C84.7488 151.642 83.76 150.272 82.6182 148.322C82.0383 147.314 82.0006 147.252 81.6968 146.366C80.966 144.049 80.8409 142.605 81.0137 140.018C81.0514 139.686 80.9998 139.98 81.1448 139.281C81.1666 139.12 81.3493 138.654 81.3533 138.636C81.4506 138.433 81.5836 138.243 81.5995 138.018C81.7603 137.073 80.4299 136.614 79.9493 137.448C79.2107 138.811 79.1431 140.395 79.159 141.91C79.1908 144.003 79.584 146.102 80.4299 148.024C80.964 149.131 81.6253 150.179 82.3243 151.19C83.1384 152.306 84.1055 153.344 85.291 154.071C86.6115 154.76 88.0571 155.31 89.5503 155.447C91.6433 155.517 93.7124 154.504 95.1898 153.062C96.2125 151.986 96.8777 150.614 97.3801 149.228C97.7673 147.945 97.8864 146.603 97.9718 145.272C97.94 144.095 96.2204 144.097 96.1847 145.272Z" fill="#F7B6B2"/>
<path d="M123.33 166.222C122.713 165.64 122.151 166.168 121.565 166.472C120.308 167.175 119.25 167.356 118.459 167.221C114.035 166.554 110.689 162.58 109.378 158.728C108.985 157.415 108.721 156.071 108.439 154.733C108.449 154.812 108.461 154.892 108.471 154.971C108.37 154.461 108.402 153.899 108.245 153.41C107.901 152.519 106.529 152.793 106.535 153.754C106.743 155.692 107.182 157.606 107.742 159.471C108.35 161.174 109.249 162.781 110.383 164.191C111.91 166.053 113.846 167.648 116.134 168.46C117.764 169.082 119.647 169.316 121.275 168.569C121.922 168.305 122.552 167.995 123.148 167.628C123.648 167.348 123.737 166.621 123.33 166.222Z" fill="#F7B6B2"/>
<path d="M190.111 51.7442C189.875 51.3789 189.43 51.222 189.09 50.9698C188.229 50.4356 187.412 49.824 186.507 49.3614C184.396 48.0806 181.852 48.0607 179.46 48.2255C177.982 48.3566 176.499 48.5293 175.079 48.9841C173.643 49.4547 172.265 50.106 170.917 50.7851C168.691 51.9925 166.781 53.7002 165.093 55.5707C164.094 56.6768 163.062 57.7769 162.289 59.0597C162.089 59.437 161.761 59.8222 161.902 60.2749C162.094 61.0196 163.157 61.1645 163.534 60.4874C164.362 58.9544 165.012 58.3388 166.304 56.8893C168.528 54.4667 170.182 53.0131 173.179 51.6628C174.587 51.0135 175.889 50.4734 177.843 50.1854C178.634 50.0881 179.426 49.9968 180.222 49.969C181.443 49.8916 183.185 50.0008 183.665 50.1378C184.766 50.39 184.881 50.5389 186.038 51.1406C186.821 51.5894 187.548 52.1235 188.314 52.5941C188.699 52.8284 189.088 53.2097 189.575 53.0568C190.131 52.9158 190.405 52.2307 190.111 51.7442Z" fill="#F7B6B2"/>
<path d="M79.0089 111.809C78.9632 112.278 78.4151 115.147 79.0486 117.897C79.5728 120.179 80.8774 123.062 82.2337 124.242C83.6654 125.485 84.8112 126.485 86.2985 127.474C88.2326 128.761 90.538 129.957 92.6826 130.936C93.0599 131.108 93.602 131.343 93.8442 131.678C94.0865 132.014 94.0527 132.5 93.7191 132.745C93.4967 132.907 93.0936 132.935 92.8256 132.874C90.2163 132.286 87.5674 131.386 85.2421 130.08C83.7369 129.234 82.2456 128.231 81.0284 127.006C77.9286 123.888 76.066 120.072 75.6252 115.699C75.5299 114.746 75.5478 113.668 76.2229 112.99C76.8325 112.381 76.3023 111.986 78.1352 112.073C78.2702 112.077 79.0267 111.626 79.0089 111.809Z" fill="#D36B66"/>
<path d="M101.003 156.131C100.354 158.865 101.579 162.309 103.223 164.588C107.58 170.623 115.391 174.404 122.641 173.389C125.678 173.407 128.696 172.094 130.753 169.862C128.581 168.359 127.062 165.545 127.008 162.904C126.954 160.263 128.323 157.847 130.233 156.022C130.741 155.537 131.472 155.079 132.103 155.386C132.816 155.732 132.814 156.753 132.576 157.507C131.944 159.497 130.308 161.151 130.346 163.238C130.374 164.815 131.234 166.223 132.411 167.273C135.892 170.377 139.73 172.418 144.351 172.156C147.721 171.963 151.52 168.873 153.744 167.507C153.891 167.416 154.806 166.598 154.945 166.181C155.191 165.442 155.102 164.797 154.677 164.143C153.94 163.01 153.412 161.459 153.243 160.116C153.144 159.338 153.376 158.548 154.119 158.29C154.637 158.111 155.269 158.615 155.596 159.054C155.924 159.493 156.411 160.24 156.571 160.762C157.888 165.007 161.061 168.214 165.303 169.547C165.9 169.735 166.619 170.103 167.036 170.569C167.453 171.038 167.356 171.824 166.782 172.074C166.427 172.229 164.123 171.507 163.776 171.338C161.381 170.182 161.208 169.541 159.081 168.026C158.492 167.605 157.868 167.283 157.151 167.384C155.894 167.563 154.804 168.979 153.65 169.801C149.721 172.601 147.203 174.898 143.267 175.091C140.07 175.248 134.554 172.628 132.6 170.869C132.207 170.516 133.344 170.52 132.816 171.014C128.932 174.64 123.477 176.465 118.287 175.984C115.038 175.684 112.024 174.179 109.265 172.436C106.871 170.921 104.379 169.475 102.631 167.247C100.882 165.017 98.9258 160.887 101.003 156.131Z" fill="#D36B66"/>
<path d="M222.083 156.377C222.107 156.273 222.131 156.17 222.155 156.067C222.884 151.827 221.926 147.3 219.14 144.043C218.37 143.144 217.413 142.308 216.16 142.296C215.38 142.288 214.637 142.709 214.347 143.432C213.767 144.875 215.066 146.579 216.243 147.612C216.875 148.166 217.33 148.7 217.8 149.395C219.208 151.476 220.249 153.783 219.889 156.275C219.411 159.597 217.163 162.612 214.117 164.02C210.846 167.014 206.525 168.442 202.163 168.551C197.8 168.66 193.314 167.846 189.627 165.513C188.002 164.486 185.979 163.16 184.589 161.829C183.858 161.13 183.26 160.658 182.462 159.707C181.924 159.065 181.632 158.69 181.169 157.727C180.794 156.947 180.329 156.335 180.256 155.284C180.226 154.865 181.479 154.732 181.882 154.613C184.914 153.72 187.131 151.895 189.327 149.609C190.141 148.763 191.027 147.697 191.509 146.772C192.232 145.386 193 144.021 193.084 142.264C193.135 141.178 193.398 140.254 192.428 139.285C191.916 138.773 190.796 139.045 190.318 139.589C189.412 140.622 189.424 143.11 188.689 144.156C186.328 147.514 184.289 150.032 180.464 151.394C176.64 152.757 172.246 152.427 168.665 150.509C168.191 150.255 167.72 149.971 167.196 149.846C166.451 149.669 165.546 149.867 165.319 150.791C165.232 151.148 165.282 151.525 165.435 151.861C165.782 152.618 167.458 153.706 168.183 154.071C170.335 155.157 171.553 155.368 174.14 155.67C175.182 155.791 175.703 155.787 176.539 155.761C177.041 155.745 178.385 155.269 178.61 155.715C179.762 158.005 179.946 159.304 180.637 160.265C181.144 160.97 181.588 161.643 182.923 163.078C184.098 164.343 184.948 164.76 185.977 165.676C186.545 166.182 187.504 166.579 187 166.957C184.347 168.944 180.615 170.181 177.21 171.178C173.886 172.151 169.134 170.95 165.987 169.772C165.514 169.596 166.253 170.342 165.824 170.606C165.369 170.888 163.542 170.686 163.824 171.14C164.106 171.595 167.535 173.367 168.026 173.579C171.739 175.183 174.72 174.391 178.697 173.279C182.593 172.191 186.036 169.899 189.448 167.725C194.063 170.348 200.185 171.403 206.1 170.493C212.016 169.584 217.651 166.129 220.507 160.87C221.21 159.576 221.72 158.174 222.03 156.728C222.038 156.613 222.056 156.496 222.083 156.377Z" fill="#D36B66"/>
<path d="M237.222 137.073C237.236 138.497 236.631 139.712 235.892 141.517C235.352 142.834 232.586 145.554 231.513 146.49C229.605 148.156 229.073 148.1 226.67 148.906C224.269 149.712 222.419 149.653 219.527 147.202C221.064 150.401 222.035 153.573 221.954 157.022C221.978 156.909 222.002 156.802 222.028 156.698C222.041 156.591 222.057 156.484 222.081 156.377C222.123 156.202 222.167 156.031 222.194 155.852C222.22 155.691 222.248 155.529 222.29 155.37C222.381 155.018 222.49 154.677 222.56 154.319C222.607 154.067 222.627 153.809 222.687 153.561C222.687 153.557 222.687 153.553 222.687 153.549C222.687 153.066 222.975 152.479 223.31 152.131C223.701 151.728 224.696 151.726 225.248 151.619C230.373 150.63 234.027 148.243 236.438 143.614C236.638 143.231 237.472 141.444 237.77 141.13C238.068 140.816 238.35 140.991 238.777 141.065C238.338 139.917 237.659 138.221 237.222 137.073Z" fill="#D36B66"/>
<path d="M222.157 57.0156C222.01 56.4675 221.377 54.871 221.138 54.3964C220.572 53.7908 220.4 53.338 219.788 52.778L218.964 51.9738C217.226 50.7347 217.63 51.0624 216.508 50.419C214.552 49.2971 212.802 48.9019 210.568 48.6219C206.609 47.9329 202.522 48.3777 198.755 49.7478C196.754 50.3753 197.552 53.2904 199.599 52.8118C204.111 51.1915 207.572 51.1815 211.549 52.0076C215.211 52.8992 216.682 54.0251 219.558 57.0633C220.189 56.9997 219.963 57.0712 220.723 57.0414C221.746 57.0652 222.584 58.0859 222.157 57.0156Z" fill="#D36B66"/>
<path d="M199.645 50.2263C198.004 48.0837 195.995 46.231 193.705 44.7993C192.796 44.2671 191.825 43.8461 190.866 43.4112C186.537 41.4593 181.848 40.9132 177.14 41.0065C175.123 41.0522 173.113 41.2369 171.116 41.5268C169.134 41.7512 167.184 42.194 165.307 42.8731C163.822 43.3695 162.355 43.9712 161.026 44.8072C159.666 45.7524 158.343 46.7929 157.355 48.1373C156.854 48.7668 156.729 48.9276 155.901 50.0356C155.323 50.7545 154.763 51.4872 154.277 52.2735C153.995 52.6846 153.725 53.1016 153.439 53.5107C153.236 53.8105 152.994 54.1163 152.99 54.4916C152.829 55.2601 153.395 56.0266 154.128 56.2351C154.549 56.3602 154.97 56.2688 155.351 56.0742C155.794 55.832 155.994 55.3554 156.284 54.9662C156.765 54.2672 157.22 53.5504 157.704 52.8514C157.742 52.7998 157.779 52.7481 157.819 52.6965C158.218 52.1921 158.617 51.6858 158.997 51.1655C159.058 51.0841 159.12 51.0027 159.181 50.9233L159.38 50.677C159.773 50.1766 160.548 49.0944 161.852 48.1115C165.722 45.1289 173.014 43.9633 180.004 44.2155C183.103 44.3485 185.069 44.6364 188.546 45.8775C189.787 46.368 189.162 46.092 190.492 46.7195C191.175 47.0273 191.847 47.3589 192.47 47.7739C193.836 48.6516 195.193 49.8073 196.805 51.7354C197.004 51.9797 197.202 52.2259 197.401 52.4701C197.697 52.766 198.106 52.9368 198.525 52.9348C199.905 52.9527 200.643 51.2072 199.645 50.2263Z" fill="#D36B66"/>
<path d="M155.643 53.8854C155.254 52.4994 154.722 51.1491 154.049 49.8762C153.632 48.9946 153.104 48.1804 152.486 47.4278C151.793 46.4787 151.028 45.5771 150.133 44.8146C149.241 44.0442 148.342 43.2677 147.329 42.6561C146.118 41.9373 144.795 41.3873 143.417 41.0973C141.449 40.7776 139.414 40.6684 137.468 41.1748C135.911 41.4349 134.376 41.8102 132.938 42.4774C131.527 43.1168 130.299 44.1156 129.16 45.1502C128.689 45.6049 128.151 45.9902 127.734 46.4985C127.188 47.2054 126.592 47.8905 126.177 48.6868C125.74 49.4791 125.395 50.323 125.125 51.1848C124.916 51.9831 124.801 52.8032 124.67 53.6174C124.594 54.2945 124.386 55.0987 124.672 55.7361C124.93 56.4828 125.804 56.8501 126.546 56.6555C126.957 56.5523 127.265 56.2703 127.496 55.9248C127.774 55.4879 127.698 54.9677 127.736 54.4752C127.738 54.4573 127.74 54.4414 127.74 54.4256C127.883 53.5161 128.006 52.5967 128.282 51.717C128.643 50.7837 128.439 51.163 129.142 49.8882C129.779 48.9469 129.747 49.0641 129.964 48.7642C130.425 48.2062 131.018 47.7793 131.537 47.2789C132.639 46.3019 132.152 46.705 133.175 45.9902C134.577 45.0569 135.47 44.7928 137.756 44.346C139.551 44.0005 139.334 43.925 141.324 44.0442C142.766 44.1673 142.015 44.0263 143.354 44.3519C144.327 44.6478 144.706 44.757 146.173 45.6844C146.793 46.1093 148.03 47.0744 149.223 48.3889C149.319 48.4962 149.41 48.6054 149.501 48.7166C149.625 48.8794 149.748 49.0422 149.869 49.2071C150.552 50.1264 150.053 49.352 150.737 50.4183C151.622 52.0864 151.7 52.1459 152.176 53.4525C152.295 53.7782 152.401 54.1098 152.498 54.4434C152.579 54.7373 152.643 55.0511 152.863 55.2754C153.888 56.6516 156.092 55.5534 155.643 53.8854Z" fill="#D36B66"/>
<path d="M127.595 47.754C127.224 46.9755 126.692 46.2746 126.126 45.6272C124.909 44.2611 123.169 43.5244 121.501 42.8651C119.005 41.8524 116.261 41.6876 113.592 41.7769C112.003 41.8127 110.443 42.1661 108.943 42.6764C107.379 43.1232 105.881 43.7984 104.571 44.7694C103.01 45.9013 101.334 46.8842 99.8647 48.1392C99.5232 48.4192 99.1955 48.715 98.8937 49.0407C98.6971 49.2393 98.4906 49.4379 98.4132 49.7099C98.1232 50.2719 98.302 51.0105 98.7408 51.4454C99.3445 52.0491 100.389 52.063 100.987 51.4454C101.416 50.9728 101.896 50.5538 102.389 50.1487C102.42 50.1209 102.454 50.0951 102.486 50.0693C103.526 49.3187 104.591 48.6019 105.653 47.883C106.584 47.2238 107.514 46.5367 108.586 46.1257C108.459 46.1793 108.334 46.2329 108.207 46.2865C109.301 45.8596 110.433 45.518 111.567 45.2082C113.346 44.7694 116.817 44.8965 118.392 45.2261C119.261 45.3949 120.085 45.7265 120.915 46.0264C121.736 46.3898 122.552 46.775 123.288 47.2893C123.527 47.4978 123.743 47.7301 123.956 47.9625C124.011 48.022 124.061 48.0856 124.112 48.1491C124.948 49.4001 124.762 49.0407 125.153 50.6789C125.169 50.7703 125.185 50.8616 125.203 50.953C125.222 51.2111 125.232 51.4712 125.36 51.6996C125.991 53.2902 128.394 52.8017 128.4 51.088C128.269 49.9522 128.072 48.8044 127.595 47.754Z" fill="#D36B66"/>
<path d="M105.264 44.1864C103.562 45.0085 101.973 46.0828 100.545 47.3179C99.6161 48.0785 98.7305 48.9145 98.0652 49.9212C97.4556 50.932 97.0982 52.0658 97.0208 53.2433C96.9413 54.0039 96.9135 54.7843 96.9969 55.5488C96.8996 55.519 96.8023 55.4852 96.703 55.4574C95.9266 55.2906 95.1244 55.2172 94.3301 55.2251C93.2598 55.3006 92.2054 55.5547 91.1807 55.8645C88.8793 56.5456 86.8916 57.9575 85.0826 59.4964C83.6945 60.6759 82.3462 61.9071 81.1786 63.311C80.4518 64.1788 80.2672 64.2622 79.7171 65.257C79.2803 66.0612 79.042 66.6411 78.7024 67.7193C78.5595 68.1721 78.3092 68.9783 78.2397 69.5124C79.4709 69.5124 79.3935 69.5104 80.5352 69.433C81.268 69.433 80.9622 69.4171 81.6214 69.3734C81.542 68.9405 81.4805 68.7916 81.6075 68.3706C81.82 67.759 81.8061 67.8007 82.521 66.6847C83.9666 64.6851 87.527 61.1525 90.3428 59.6255C91.5183 59.0278 92.0147 58.8689 93.9468 58.4479C94.0064 58.436 94.064 58.4261 94.1236 58.4162C94.4453 58.3884 94.7689 58.3983 95.0906 58.4182C95.2654 58.4321 95.4401 58.4479 95.6149 58.4638C95.8651 58.5115 96.1093 58.5869 96.3516 58.6684C96.4072 58.6862 96.4608 58.7081 96.5144 58.7299C97.3266 59.0993 98.0513 59.6215 98.7563 60.1636C99.7472 60.9698 99.7273 60.805 100.746 61.8018C100.869 61.9349 100.994 62.0679 101.117 62.199C101.729 62.9377 102.279 63.8054 103.214 64.1371C104.461 64.4865 105.659 63.1938 105.105 61.9925C104.991 61.6152 104.65 61.3749 104.404 61.083C104.014 60.6382 103.613 60.2033 103.208 59.7744C103.171 59.7307 103.135 59.6851 103.095 59.6414C103.045 59.5917 102.996 59.5441 102.944 59.4964C102.815 59.3614 102.688 59.2224 102.557 59.0893C102.061 58.575 101.63 58.0031 101.179 57.4471C100.865 57.0103 100.581 56.5536 100.353 56.0671C100.327 55.9956 100.303 55.9241 100.283 55.8506C100.234 55.6779 100.19 55.5051 100.154 55.3303C100.053 54.0079 100.196 53.2473 100.267 52.8144C100.315 52.5603 100.406 52.32 100.504 52.0817C100.619 51.8275 100.758 51.5833 100.919 51.3549C101.636 50.4971 102.509 49.7981 103.359 49.0793L103.401 49.0455C104.501 48.2552 105.639 47.5006 106.868 46.9248C108.639 45.8147 107.122 43.1956 105.264 44.1864Z" fill="#D36B66"/>
<path d="M214.579 120.558C213.814 120.282 213.026 119.992 212.442 119.426C211.858 118.86 211.533 117.943 211.896 117.216C212.313 116.38 213.437 116.148 214.348 116.352C215.26 116.557 216.07 117.077 216.956 117.373C218.683 117.949 220.576 117.633 222.339 117.176C223.818 116.793 225.339 116.013 226.39 114.901C227.399 113.834 227.842 112.613 228.078 111.165C228.654 107.633 228.66 104.231 227.184 100.973C226.845 100.224 225.953 99.1777 225.878 98.3595C225.802 97.5414 226.344 96.912 227.103 96.5962C228.118 96.1753 229.009 97.3131 229.666 98.1947C231.759 101.005 232.383 104.239 232.383 107.814C232.383 111.68 230.88 115.477 228.245 118.306C226.485 120.195 224.063 121.454 221.507 121.805C218.951 122.156 216.453 121.235 214.579 120.558Z" fill="#D36B66"/>
<path d="M223.591 73.0891C226.157 73.4008 230.19 74.0779 233.403 75.9366C236.616 77.7952 239.517 80.8235 241.951 83.6194C246.818 89.2092 248.756 96.3638 249.45 103.616C249.807 107.355 249.15 112.333 247.124 115.6C245.176 118.739 241.975 120.8 238.729 121.884C237.831 122.184 236.818 123.229 236.663 122.816C236.451 122.25 235.48 121.43 235.685 121.128C236.042 120.608 238.842 119.374 239.35 119.001C239.858 118.628 240.796 118.364 241.304 117.99C243.474 116.398 245.226 114.44 246.042 111.874C246.856 109.309 246.606 106.261 246.35 103.582C245.915 99.0088 245.051 94.6978 243.216 90.8355C241.044 86.2644 237.414 82.0586 233.373 79.0105C231.564 77.6463 228.953 76.3496 226.781 75.7043C224.608 75.0589 222.219 75.5434 220.339 76.8083C219.898 77.1062 218.975 77.4716 218.45 77.5609C217.926 77.6503 217.479 77.0923 217.517 76.5621C217.533 76.3437 217.757 75.8532 217.879 75.6725C219.87 72.682 222.573 70.6248 223.099 68.3769C223.26 67.6879 224.93 66.7804 224.769 67.4694C224.58 68.2776 224.054 70.4381 223.627 71.0001C222.688 72.2213 223.379 73.0632 223.591 73.0891Z" fill="#D36B66"/>
<path d="M87.0247 61.5249C88.2241 60.538 90.3111 59.4121 91.6138 58.7687C92.9164 58.1253 94.7631 57.746 96.181 58.0558C98.8021 58.6257 100.264 61.6281 102.68 63.0996C103.111 63.3617 103.651 63.4173 104.104 63.1949C104.865 62.8196 104.698 62.0908 104.177 61.4137C103.655 60.7346 102.69 59.843 102.065 59.2572C100.714 57.9923 99.4415 56.5566 99.1675 55.0137C98.963 53.856 99.1854 52.7996 99.7215 51.6618C100.355 50.3194 101.38 49.1955 102.635 48.4012C104.332 47.3289 106.435 46.3956 108.455 45.8356C111.568 44.9718 114.742 44.5866 117.905 45.2379C119.849 45.6371 123.874 47.3428 125.131 48.844C125.919 49.7852 125.218 51.3977 125.218 52.6328C125.218 53.4489 125.393 54.6145 125.478 55.4267C125.564 56.2389 126.287 56.5784 127.013 56.4136C127.859 56.223 127.79 55.2083 127.677 54.4001C127.007 49.6185 129.432 47.0668 133.465 45.1764C137.498 43.286 142.198 43.3455 145.997 45.6748C149.794 48.004 151.648 53.0438 153.426 55.7623C155.137 58.3815 156.948 51.902 161.611 47.7419C165.09 44.6363 169.78 44.2828 173.062 43.7288C177.524 42.9762 182.86 43.9174 187.129 45.4127C190.207 46.4889 192.119 47.877 194.933 49.5271C197.032 50.7583 198.645 52.3349 199.51 54.3206C199.919 55.2559 200.203 56.2607 200.195 57.2814C200.187 58.302 199.618 59.3902 198.936 60.1488C199.502 60.0296 202.318 59.7179 202.318 59.7179C202.318 59.7179 202.9 57.9446 202.926 57.4025C202.975 56.3799 202.707 55.5439 202.509 54.5391C202.31 53.5343 201.788 52.2535 201.017 51.5803C201.959 51.3758 202.971 51.352 203.913 51.2646C206.585 50.7523 209.439 50.8714 212.106 51.6419C214.773 52.4144 217.249 53.8361 219.258 55.7524C219.608 56.086 219.951 56.4394 220.38 56.6598C220.75 56.8485 221.169 56.916 221.54 56.7671C221.631 56.7293 221.657 56.6102 221.592 56.5367L221.192 56.086C216.889 50.6927 210.495 48.4369 203.678 49.3841C203.065 49.4695 201.486 49.9104 200.815 50.0831C200.1 50.2678 199.377 50.657 198.849 50.5974C198.164 50.518 197.995 50.0454 197.759 49.8111C197.364 49.4199 197.131 49.1637 196.581 48.6137C190.952 42.9841 182.163 40.4881 174.748 41.2148C167.332 41.9416 158.032 44.805 156.011 51.8345C155.83 52.462 154.696 52.605 154.22 52.1582C153.743 51.7114 153.709 50.3313 153.362 49.7793C150.89 45.8535 147.079 42.5651 142.399 41.8761C139.474 41.4452 135.274 41.5901 132.583 42.7697C130.969 43.4766 129.597 44.5866 128.441 45.931C127.599 46.9099 127.452 47.865 126.537 48.0557C126.078 48.151 125.558 46.9814 124.994 46.4175C124.694 46.1176 123.979 45.6529 123.614 45.3531C122.365 44.3305 118.491 43.4686 116.92 43.0993C114.644 42.5632 113.288 42.6406 111.92 42.7419C110.506 42.8451 109.084 42.996 106.838 44.0008C105.117 44.7713 102.017 46.3321 100.563 47.5295C99.3045 48.566 98.0614 49.7098 97.285 51.1455C96.7965 52.047 96.7191 53.3 96.9196 54.2273C97.0308 54.7396 97.4538 55.0653 97.4161 55.5796C97.3863 55.9946 97.0487 56.3262 96.6397 56.3977C96.1174 56.4871 95.8831 56.5983 95.3787 56.5526C93.8835 56.4196 92.1837 56.7512 90.8473 57.4323C89.5109 58.1134 87.4219 59.3843 86.2344 60.3017C83.1625 62.6766 81.0914 64.4379 79.0421 67.915C78.8793 68.189 78.3054 69.5055 78.3054 69.5055H79.4035C79.4035 69.5055 79.6835 69.0389 79.9337 68.6735C82.2173 65.3434 84.3122 63.7568 87.0247 61.5249Z" fill="#D36B66"/>
<path d="M155.352 112.541C154.979 112.531 154.78 112.84 154.569 113.099C154.252 113.476 153.918 113.841 153.541 114.161C152.707 114.87 151.372 115.714 150 116.006C148.823 116.327 147.609 115.992 146.728 115.13C145.93 114.352 145.381 113.081 145.517 112.58C145.753 111.429 145.806 110.908 147.768 110.408C148.531 110.213 149.969 110.74 150.467 110.084C150.83 109.683 151.172 108.827 151.206 108.289C151.277 107.511 151.22 106.726 151.16 105.948C150.969 103.79 150.608 101.651 150.221 99.5202C149.861 97.5305 149.492 95.5428 149.051 93.569C148.934 93.0368 148.813 92.5046 148.684 91.9744C148.614 91.752 148.61 91.4939 148.453 91.3132C148.017 90.7135 147.032 91.1921 147.238 91.9188C147.909 94.6115 148.422 97.3399 148.914 100.07C149.375 102.703 149.595 104.244 149.738 106.838C149.772 108.39 150.088 108.857 149.532 109.284C148.837 109.717 146.875 109.191 145.713 110.056C144.992 110.593 144.285 111.899 144.313 112.785C144.343 113.78 145.052 114.88 145.658 115.656C147.326 117.795 149.424 117.938 151.787 116.866C153.156 116.286 154.405 115.39 155.386 114.274C155.624 113.947 156.039 113.669 156.049 113.234C156.055 112.864 155.723 112.533 155.352 112.541Z" fill="#D36B66"/>
<path d="M185.448 119.488C189.697 119.488 193.142 114.554 193.142 108.467C193.142 102.38 189.697 97.4463 185.448 97.4463C181.198 97.4463 177.753 102.38 177.753 108.467C177.753 114.554 181.198 119.488 185.448 119.488Z" fill="#D36B66"/>
<path d="M125.209 119.481C129.649 118.971 132.696 113.752 132.014 107.825C131.333 101.898 127.181 97.5065 122.741 98.0168C118.301 98.5272 115.254 103.746 115.936 109.673C116.617 115.6 120.769 119.991 125.209 119.481Z" fill="#D36B66"/>
<path d="M124.269 117.557C127.648 117.336 130.134 113.301 129.822 108.545C129.51 103.788 126.519 100.112 123.141 100.334C119.762 100.555 117.276 104.59 117.588 109.346C117.9 114.103 120.891 117.779 124.269 117.557Z" fill="white"/>
<path d="M185.397 117.578C188.77 117.578 191.504 113.499 191.504 108.467C191.504 103.436 188.77 99.3567 185.397 99.3567C182.025 99.3567 179.291 103.436 179.291 108.467C179.291 113.499 182.025 117.578 185.397 117.578Z" fill="white"/>
<path d="M183.34 115.267C185.575 115.267 187.387 112.7 187.387 109.533C187.387 106.365 185.575 103.798 183.34 103.798C181.105 103.798 179.293 106.365 179.293 109.533C179.293 112.7 181.105 115.267 183.34 115.267Z" fill="black"/>
<path d="M122.287 116.148C124.588 116.055 126.351 113.427 126.224 110.278C126.098 107.129 124.13 104.651 121.828 104.743C119.527 104.836 117.764 107.464 117.891 110.613C118.018 113.763 119.986 116.241 122.287 116.148Z" fill="black"/>
<path d="M124.56 105.172C123.978 105.75 123.395 106.328 122.769 106.858C122.523 107.1 122.155 107.265 122.042 107.61C121.597 108.591 122.896 109.455 123.651 108.695C124.286 108.186 124.888 107.636 125.468 107.064C125.702 106.8 126.043 106.596 126.169 106.256C126.613 105.277 125.315 104.413 124.56 105.172Z" fill="white"/>
<path d="M185.657 104.923C185.156 105.452 184.65 105.978 184.12 106.48C183.903 106.711 183.59 106.881 183.488 107.193C183.043 108.174 184.342 109.038 185.097 108.277C185.635 107.793 186.145 107.28 186.648 106.76C186.854 106.514 187.154 106.317 187.265 106.008C187.71 105.029 186.411 104.165 185.657 104.923Z" fill="white"/>
<path d="M78.2979 76.116C113.658 76.5728 148.043 74.1938 182.991 69.3328C191.778 68.1116 201.036 67.3689 209.771 65.7823C214.721 64.8828 219.469 63.5325 224.406 62.5237C224.281 61.7255 224.011 61.0166 223.54 60.3354C219.378 61.1516 215.307 62.3291 211.127 63.0738C201.643 64.7616 191.82 65.9451 182.261 67.2239C148.607 71.7256 114.758 74.3646 80.8655 74.0866C79.5668 74.0767 77.1899 74.029 77.1899 74.029L77.0509 75.9532C77.0509 75.9552 77.8353 76.1399 78.2979 76.116Z" fill="white"/>
<path d="M86.5836 30.7972L28.7642 20.229L23.0159 51.6781L80.8354 62.2463L86.5836 30.7972Z" fill="#955B1D"/>
<path d="M84.3541 31.8766L30.0995 21.96L25.0296 49.6977L79.2842 59.6143L84.3541 31.8766Z" fill="white"/>
<path d="M25.5031 49.5467C25.3324 48.9411 25.1934 48.3156 25.2172 47.6861C25.241 47.0566 25.4475 46.4152 25.8864 45.9625C26.3272 45.5077 26.9547 45.2893 27.5703 45.1404C29.3555 44.7095 31.2161 44.7532 33.0529 44.7988C33.6387 44.8127 34.2483 44.8346 34.7646 45.1106C35.4457 45.476 35.8448 46.2365 35.96 47.001C36.0771 47.7655 35.952 48.5439 35.819 49.3064C35.6859 50.069 35.545 50.9109 35.6303 51.6794C35.1141 51.5781 34.5998 51.4471 34.0835 51.3458C33.9345 51.316 33.5612 51.2683 33.5612 51.2683C33.5612 51.2683 33.4619 50.6329 33.4897 50.3529C33.5573 49.7076 33.6248 49.0642 33.6943 48.4188C33.7479 47.9105 33.7955 47.3703 33.5632 46.9156C33.3011 46.4033 32.7371 46.1173 32.1811 45.9625C31.2478 45.7023 30.251 45.7222 29.3018 45.9148C28.3507 46.1074 27.4094 46.4907 26.7343 47.1877C26.0591 47.8827 25.7156 48.9808 26.0075 49.9061C25.7037 49.8386 25.3105 49.789 25.0067 49.7215C25.0643 49.1535 25.1914 48.5181 25.249 47.9502" fill="black"/>
<path d="M25.8815 48.9371C26.1138 47.6046 26.2449 47.69 26.7949 47.001C27.343 46.3119 27.9725 46.1809 28.8303 45.9803C29.6881 45.7798 30.5797 45.6388 31.4594 45.6983C32.1306 45.744 32.8534 45.9922 33.3399 46.4569C33.9237 47.0169 33.9793 47.9303 33.8641 48.7305C33.7489 49.5308 33.6477 50.4681 33.7648 51.2683C31.38 51.0697 29.573 50.621 27.2258 50.1583C27.0372 50.1206 26.4514 50.0074 26.0562 49.8922C25.8716 49.8386 25.7703 49.6023 25.8815 48.9371Z" fill="#764550"/>
<path d="M84.154 35.3154L29.0692 25.2471L28.855 26.4191L83.9398 36.4875L84.154 35.3154Z" fill="#955B1D"/>
<path d="M36.0611 22.3432L35.5728 22.2539L30.2529 51.359L30.7413 51.4482L36.0611 22.3432Z" fill="#955B1D"/>
<path d="M36.0611 22.3432L35.5728 22.2539L30.2529 51.359L30.7413 51.4482L36.0611 22.3432Z" fill="#955B1D"/>
<path d="M45.6982 23.4516L45.2098 23.3623L39.5602 54.2723L40.0485 54.3616L45.6982 23.4516Z" fill="#955B1D"/>
<path d="M45.6982 23.4516L45.2098 23.3623L39.5602 54.2723L40.0485 54.3616L45.6982 23.4516Z" fill="#955B1D"/>
<path d="M55.0106 25.1547L54.5222 25.0654L48.8725 55.9754L49.3608 56.0647L55.0106 25.1547Z" fill="#955B1D"/>
<path d="M55.0106 25.1547L54.5222 25.0654L48.8725 55.9754L49.3608 56.0647L55.0106 25.1547Z" fill="#955B1D"/>
<path d="M65.6952 27.3065L65.2069 27.2173L59.7265 57.2014L60.2148 57.2906L65.6952 27.3065Z" fill="#955B1D"/>
<path d="M75.6174 29.12L75.129 29.0308L69.6485 59.0149L70.1369 59.1041L75.6174 29.12Z" fill="#955B1D"/>
<path d="M35.537 29.6074L33.6324 29.2593L33.1237 32.0428L35.0282 32.3909L35.537 29.6074Z" fill="#FFC654"/>
<path d="M37.5606 31.4125L35.5391 29.6035L35.0308 32.3875L37.5606 31.4125Z" fill="#FFC654"/>
<path d="M31.3514 30.2755L33.1307 32.0348L33.637 29.2607L31.3514 30.2755Z" fill="#FFC654"/>
<path d="M36.4403 23.583L34.5358 23.2349L34.027 26.0184L35.9315 26.3665L36.4403 23.583Z" fill="#FFC654"/>
<path d="M38.4649 25.3847L36.4434 23.5776L35.9351 26.3616L38.4649 25.3847Z" fill="#FFC654"/>
<path d="M32.2578 24.2516L34.035 26.0089L34.5414 23.2349L32.2578 24.2516Z" fill="#FFC654"/>
<path d="M45.959 25.3466L44.0544 24.9985L43.5457 27.7821L45.4502 28.1302L45.959 25.3466Z" fill="#FFC654"/>
<path d="M47.9822 27.1483L45.9607 25.3413L45.4524 28.1233L47.9822 27.1483Z" fill="#FFC654"/>
<path d="M41.7751 26.0113L43.5524 27.7706L44.0607 24.9966L41.7751 26.0113Z" fill="#FFC654"/>
<path d="M55.2674 27.0698L53.3629 26.7217L52.8541 29.5052L54.7587 29.8533L55.2674 27.0698Z" fill="#FFC654"/>
<path d="M57.2915 28.8724L55.2701 27.0654L54.7617 29.8494L57.2915 28.8724Z" fill="#FFC654"/>
<path d="M51.0813 27.7398L52.8605 29.4972L53.3669 26.7231L51.0813 27.7398Z" fill="#FFC654"/>
<path d="M65.9917 29.0024L64.0872 28.6543L63.5784 31.4378L65.4829 31.7859L65.9917 29.0024Z" fill="#FFC654"/>
<path d="M68.0152 30.8036L65.9937 28.9966L65.4854 31.7806L68.0152 30.8036Z" fill="#FFC654"/>
<path d="M61.808 29.671L63.5852 31.4284L64.0916 28.6543L61.808 29.671Z" fill="#FFC654"/>
<path d="M75.9048 30.8662L74.0002 30.5181L73.4915 33.3016L75.396 33.6497L75.9048 30.8662Z" fill="#FFC654"/>
<path d="M77.9284 32.6659L75.9069 30.8589L75.3986 33.6409L77.9284 32.6659Z" fill="#FFC654"/>
<path d="M71.7214 31.5308L73.4986 33.2902L74.005 30.5161L71.7214 31.5308Z" fill="#FFC654"/>
<path d="M74.8222 36.7885L72.9177 36.4404L72.409 39.224L74.3135 39.5721L74.8222 36.7885Z" fill="#FFC654"/>
<path d="M76.8461 38.5897L74.8246 36.7808L74.3163 39.5647L76.8461 38.5897Z" fill="#FFC654"/>
<path d="M70.6388 37.4551L72.416 39.2145L72.9224 36.4404L70.6388 37.4551Z" fill="#FFC654"/>
<path d="M73.9111 41.8037L72.0066 41.4556L71.4978 44.2391L73.4023 44.5872L73.9111 41.8037Z" fill="#FFC654"/>
<path d="M75.9353 43.6054L73.9139 41.7983L73.4036 44.5823L75.9353 43.6054Z" fill="#FFC654"/>
<path d="M69.725 42.4693L71.5042 44.2267L72.0106 41.4526L69.725 42.4693Z" fill="#FFC654"/>
<path d="M73.0382 47.2548L71.1337 46.9067L70.6249 49.6903L72.5294 50.0384L73.0382 47.2548Z" fill="#FFC654"/>
<path d="M75.0607 49.0585L73.0412 47.2495L72.5309 50.0335L75.0607 49.0585Z" fill="#FFC654"/>
<path d="M68.8539 47.9239L70.6331 49.6813L71.1394 46.9092L68.8539 47.9239Z" fill="#FFC654"/>
<path d="M71.945 53.9233L70.0404 53.5752L69.5316 56.3587L71.4362 56.7068L71.945 53.9233Z" fill="#FFC654"/>
<path d="M73.9689 55.7279L71.9475 53.9189L71.4371 56.7029L73.9689 55.7279Z" fill="#FFC654"/>
<path d="M67.7599 54.5904L69.5391 56.3498L70.0455 53.5757L67.7599 54.5904Z" fill="#FFC654"/>
<path d="M61.7817 52.0454L59.8772 51.6973L59.3684 54.4808L61.2729 54.8289L61.7817 52.0454Z" fill="#FFC654"/>
<path d="M63.8034 53.8461L61.7819 52.0391L61.2736 54.8211L63.8034 53.8461Z" fill="#FFC654"/>
<path d="M57.5963 52.7115L59.3735 54.4708L59.8819 51.6968L57.5963 52.7115Z" fill="#FFC654"/>
<path d="M63.031 45.4047L61.1265 45.0566L60.6177 47.8402L62.5222 48.1883L63.031 45.4047Z" fill="#FFC654"/>
<path d="M65.0534 47.2055L63.0319 45.3984L62.5236 48.1804L65.0534 47.2055Z" fill="#FFC654"/>
<path d="M58.8466 46.0709L60.6258 47.8302L61.1321 45.0562L58.8466 46.0709Z" fill="#FFC654"/>
<path d="M63.9166 39.8794L62.0121 39.5312L61.5033 42.3148L63.4078 42.6629L63.9166 39.8794Z" fill="#FFC654"/>
<path d="M65.9381 41.681L63.9167 39.874L63.4083 42.658L65.9381 41.681Z" fill="#FFC654"/>
<path d="M59.7311 40.5455L61.5083 42.3029L62.0166 39.5288L59.7311 40.5455Z" fill="#FFC654"/>
<path d="M64.8981 34.9922L62.9935 34.644L62.4848 37.4276L64.3893 37.7757L64.8981 34.9922Z" fill="#FFC654"/>
<path d="M66.9213 36.7933L64.8998 34.9863L64.3915 37.7703L66.9213 36.7933Z" fill="#FFC654"/>
<path d="M60.7124 35.6602L62.4916 37.4176L62.998 34.6436L60.7124 35.6602Z" fill="#FFC654"/>
<path d="M54.4824 32.7378L52.5779 32.3896L52.0691 35.1732L53.9736 35.5213L54.4824 32.7378Z" fill="#FFC654"/>
<path d="M56.5067 34.5419L54.4853 32.7329L53.9769 35.5169L56.5067 34.5419Z" fill="#FFC654"/>
<path d="M50.2979 33.4073L52.0771 35.1666L52.5834 32.3926L50.2979 33.4073Z" fill="#FFC654"/>
<path d="M53.2884 38.5932L51.3839 38.2451L50.8751 41.0287L52.7797 41.3768L53.2884 38.5932Z" fill="#FFC654"/>
<path d="M55.3119 40.3939L53.2905 38.5869L52.7821 41.3689L55.3119 40.3939Z" fill="#FFC654"/>
<path d="M49.1035 39.2588L50.8808 41.0182L51.3871 38.2441L49.1035 39.2588Z" fill="#FFC654"/>
<path d="M52.2686 43.4819L50.3641 43.1338L49.8554 45.9173L51.7599 46.2654L52.2686 43.4819Z" fill="#FFC654"/>
<path d="M54.2899 45.2841L52.2685 43.4771L51.7601 46.261L54.2899 45.2841Z" fill="#FFC654"/>
<path d="M48.0826 44.1515L49.8599 45.9088L50.3682 43.1348L48.0826 44.1515Z" fill="#FFC654"/>
<path d="M51.2738 50.101L49.3693 49.7529L48.8605 52.5365L50.765 52.8846L51.2738 50.101Z" fill="#FFC654"/>
<path d="M53.2971 51.9032L51.2757 50.0962L50.7673 52.8802L53.2971 51.9032Z" fill="#FFC654"/>
<path d="M47.0883 50.7706L48.8675 52.528L49.3738 49.7539L47.0883 50.7706Z" fill="#FFC654"/>
<path d="M41.8078 48.0605L39.9033 47.7124L39.3946 50.4959L41.2991 50.844L41.8078 48.0605Z" fill="#FFC654"/>
<path d="M43.832 49.8637L41.8105 48.0566L41.3002 50.8406L43.832 49.8637Z" fill="#FFC654"/>
<path d="M37.6217 48.7306L39.4009 50.4879L39.9073 47.7139L37.6217 48.7306Z" fill="#FFC654"/>
<path d="M42.9514 41.8022L41.0469 41.4541L40.5381 44.2376L42.4426 44.5858L42.9514 41.8022Z" fill="#FFC654"/>
<path d="M44.9748 43.6054L42.9533 41.7983L42.443 44.5823L44.9748 43.6054Z" fill="#FFC654"/>
<path d="M38.7656 42.4693L40.5448 44.2267L41.0512 41.4526L38.7656 42.4693Z" fill="#FFC654"/>
<path d="M43.8505 36.8852L41.9459 36.5371L41.4371 39.3207L43.3417 39.6688L43.8505 36.8852Z" fill="#FFC654"/>
<path d="M45.8733 38.6884L43.8519 36.8813L43.3435 39.6653L45.8733 38.6884Z" fill="#FFC654"/>
<path d="M39.665 37.5528L41.4423 39.3102L41.9506 36.5361L39.665 37.5528Z" fill="#FFC654"/>
<path d="M44.7408 31.3305L42.8363 30.9824L42.3275 33.766L44.2321 34.1141L44.7408 31.3305Z" fill="#FFC654"/>
<path d="M46.765 33.1322L44.7436 31.3252L44.2352 34.1092L46.765 33.1322Z" fill="#FFC654"/>
<path d="M40.5559 31.9972L42.3351 33.7545L42.8415 30.9805L40.5559 31.9972Z" fill="#FFC654"/>
<path d="M34.3274 35.1474L32.4229 34.7993L31.9141 37.5829L33.8186 37.931L34.3274 35.1474Z" fill="#FFC654"/>
<path d="M36.351 36.9472L34.3295 35.1401L33.8212 37.9221L36.351 36.9472Z" fill="#FFC654"/>
<path d="M30.1438 35.8121L31.921 37.5714L32.4274 34.7974L30.1438 35.8121Z" fill="#FFC654"/>
<path d="M33.5345 39.8794L31.63 39.5312L31.1212 42.3148L33.0258 42.6629L33.5345 39.8794Z" fill="#FFC654"/>
<path d="M35.5597 41.681L33.5383 39.874L33.0299 42.658L35.5597 41.681Z" fill="#FFC654"/>
<path d="M29.3494 40.5455L31.1286 42.3029L31.6349 39.5288L29.3494 40.5455Z" fill="#FFC654"/>
<path d="M32.5992 46.3628L30.6947 46.0146L30.1859 48.7982L32.0905 49.1463L32.5992 46.3628Z" fill="#FFC654"/>
<path d="M34.6237 48.163L32.6022 46.354L32.0939 49.138L34.6237 48.163Z" fill="#FFC654"/>
<path d="M28.4146 47.0284L30.1938 48.7877L30.7001 46.0137L28.4146 47.0284Z" fill="#FFC654"/>
<path d="M126.772 44.6946C125.823 43.9361 123.518 42.9134 122.177 42.2641C120.648 41.5234 119.085 41.1322 117.509 40.8245C111.724 39.6946 105.751 41.2216 100.586 44.7026C98.964 45.7967 97.4548 47.1013 96.3626 48.7237C95.2705 50.346 94.6152 52.3099 94.6966 54.381C95.3996 54.939 96.1144 55.5427 97.006 55.636C96.9465 54.1646 96.6526 52.5184 97.2384 51.2694C97.8241 50.0204 99.0076 49.0672 100.012 48.124C102.006 46.2534 104.647 44.8197 107.415 43.8209C109.075 43.2212 110.783 42.7705 112.423 42.7705C114.222 42.7705 117.36 43.1597 118.414 43.4575C120.086 43.9282 121.788 44.4564 123.625 45.3539C124.294 45.6796 125.287 46.6089 125.477 47.4608C125.644 48.2134 126.401 48.3345 126.848 48.124C127.376 47.8758 127.6 46.4957 127.608 45.9139C127.616 45.3321 126.971 44.8535 126.772 44.6946Z" fill="black"/>
<path d="M126.829 48.1097C127.785 46.4119 129.703 44.2057 132.525 42.921C135.469 41.5806 139.359 41.2053 142.221 41.7573C147.825 42.8395 152.505 47.0215 154.096 51.7833C154.362 52.5776 155.454 52.6054 156.045 51.6542C156.645 50.6891 156.746 48.7332 157.191 48.0064C156.731 48.3559 155.853 48.4234 155.356 48.1256C154.86 47.8277 154.697 47.2062 154.328 46.7614C151.695 43.5782 148.011 41.0603 144.046 39.9126C142.135 39.3606 140.199 39.2791 138.21 39.3049C135.785 39.3367 133.343 39.8093 131.18 40.9054C129.018 41.9996 127.147 43.7411 126.107 45.9313C125.972 46.2153 125.851 46.5548 125.995 46.8348C126.134 47.1049 126.484 47.2101 126.784 47.1605C127.082 47.1069 126.756 48.2407 126.829 48.1097Z" fill="black"/>
<path d="M155.295 48.177C157.817 43.596 162.982 41.088 168.073 39.8946C173.683 38.58 179.616 38.5264 185.188 39.9978C190.76 41.4692 195.951 44.4915 199.313 48.187C204.982 45.9411 211.642 46.3601 216.986 49.299C222.327 52.2379 226.116 57.6529 227.037 63.6816C227.309 65.4588 227.17 68.3759 226.593 70.0637C226.015 71.7516 225.25 72.0078 223.503 72.3672C224.817 68.5327 225.157 64.5772 223.809 60.9572C222.567 57.6251 220.768 54.5334 217.512 52.4543C215.58 51.2192 213.167 49.9344 210.657 49.5909C208.687 49.3228 206.642 48.9991 204.851 49.1719C203.413 49.3089 201.964 49.859 200.593 50.3435C199.543 50.7148 198.697 51.0822 197.99 50.2303C196.195 48.0738 194.104 46.4971 191.558 45.0733C186.449 42.2179 179.378 40.8239 173.351 41.3382C167.324 41.8525 159.799 44.6127 156.741 50.1687C156.173 51.2013 155.412 49.7001 154.24 49.8312C154.687 49.1302 155.15 48.4392 155.295 48.177Z" fill="black"/>
<path d="M242.976 138.023C241.222 133.531 239.548 129.002 237.624 124.854C237.279 124.109 236.357 123.245 236.782 122.542C237.078 122.052 237.467 122.151 238.468 121.881C242.817 120.709 246.891 116.7 248.291 112.419C250.414 105.932 249.457 98.7076 246.963 92.2698C245.335 88.0661 242.692 84.321 239.516 81.1359C237.829 79.444 236.063 77.8733 234.062 76.5568C231.514 74.8788 228.7 73.3717 225.65 73.4511C224.814 73.4729 223.786 73.5087 223.367 72.7859C223.104 72.3331 223.224 71.7374 223.519 71.3065C223.817 70.8756 224.262 70.5738 224.872 70.3037C225.69 70.5122 225.765 71.098 226.607 71.1695C233.52 71.7513 239.56 77.226 243.798 82.5477C245.565 84.7658 247.005 86.6066 248.176 89.1979C250.164 93.5923 251.127 97.6671 251.667 102.617C252.128 106.847 251.506 112.657 249.35 116.325C247.193 119.993 243.498 122.336 239.816 124.012C239.61 124.105 239.548 124.427 239.632 124.576C240.027 125.279 240.146 125.531 240.553 126.256C240.829 126.748 241.04 127.32 241.383 127.824C241.746 128.355 241.897 128.966 242.116 129.399C245.432 135.938 247.694 143.96 248.563 150.295C248.704 151.315 246.377 150.684 246.234 149.649C245.718 145.845 244.256 141.305 242.976 138.023Z" fill="black"/>
<path d="M245.986 148.203C246.633 159.454 247.577 170.854 248.224 182.105C248.317 183.746 248.518 185.295 248.518 186.937C248.518 187.94 248.307 188.652 247.932 189.52C247.557 190.388 246.767 191.077 245.821 191.043C244.936 191.011 244.284 190.281 244.064 189.423C243.852 188.593 243.977 187.767 244.062 186.78C244.12 186.113 244.147 185.4 243.893 184.899C243.778 184.671 243.647 184.53 243.375 184.397C242.759 184.093 241.886 184.609 241.554 185.209C241.222 185.811 241.415 185.984 241.417 186.671C241.689 188.803 241.459 188.124 241.717 189.012C242.142 190.477 242.968 192.251 244.276 193.039C245.091 193.529 246.074 193.837 246.995 193.609C248.3 193.285 249.277 192.213 249.801 190.976C251.25 187.57 250.897 183.758 250.585 180.056C250.295 176.593 249.995 172.53 249.686 168.841C249.441 165.934 249.368 163.144 249.374 160.253C249.378 158.148 249.346 155.943 249.13 153.829C248.961 152.196 248.724 150.655 248.192 148.709C248.103 148.384 246.931 148.668 246.594 148.664C246.258 148.664 245.72 148.918 245.986 148.203Z" fill="black"/>
<path d="M242.855 186.778C243.412 185.994 242.642 187.114 242.789 186.161C242.843 185.819 242.843 185.418 242.578 185.196C242.342 184.999 241.979 184.838 241.713 184.995C241.447 185.152 241.258 185.603 241.057 185.837C240.513 186.476 239.862 187.022 239.139 187.447C238.784 187.656 238.412 187.789 238.023 187.656C237.531 187.487 237.521 186.766 237.614 186.254C237.775 185.374 238.444 185.102 239.078 184.471C241.119 182.439 242.302 180.724 243.043 178.075C246.26 166.571 242.862 152.612 238.841 141.363C238.688 142.564 238.049 143.622 238.023 144.848C238.007 145.646 238.474 146.809 238.653 147.669C239.117 149.909 239.544 151.835 240.019 154.119C240.257 155.265 240.454 156.754 240.603 157.886C240.801 159.405 241.121 160.787 241.21 162.225C241.254 162.926 241.47 164.198 241.55 165.473C241.629 166.776 241.744 168.206 241.792 168.988C242.05 173.19 241.997 173.946 241.222 177.979C240.952 179.385 239.503 180.374 238.555 181.506C237.116 183.226 235.283 185.057 235.531 187.253C235.793 189.58 237.561 190.605 239.802 189.924C242.044 189.244 244.554 184.812 242.855 186.778Z" fill="black"/>
<path d="M240 145.019C239.909 144.205 239.942 143.188 239.575 142.394C239.243 141.677 239.116 140.942 238.33 140.88C237.925 140.849 237.687 141.051 237.426 141.363C237.166 141.675 236.858 142.735 236.69 143.104C235.615 145.444 233.979 147.042 232.013 148.41C230.361 149.56 228.491 150.616 226.382 151.091C225.425 151.308 223.745 151.56 223.024 152.227C222.402 152.803 222.716 153.657 222.553 154.457C222.379 155.327 222.087 156.206 221.864 157.024C221.614 157.946 221.531 158.681 221.318 159.612C221.106 160.543 221.306 161.689 222.142 162.15C223.759 159.661 225.168 156.687 225.472 153.736C226.612 153.671 227.74 153.206 228.723 152.856C229.785 152.477 230.846 151.943 231.88 151.272C233.874 149.979 235.633 148.537 237.156 146.715C237.651 146.121 237.992 145.473 238.749 145.317C239.281 145.207 240.024 145.245 240 145.019Z" fill="black"/>
<path d="M222.388 161.954C219.731 167.023 214.459 171.094 208.845 172.174C203.224 173.257 197.535 173.88 192.413 171.322C189.719 169.976 190.837 170.453 189.953 170.121C189.572 169.98 189.028 170.437 188.617 170.794C188.23 171.13 187.715 171.489 187.358 171.68C183.793 173.59 179.488 175.792 175.426 176.241C174.818 176.309 174.514 176.358 173.982 176.056C173.452 175.755 173.19 174.972 173.563 174.488C173.833 174.134 174.683 174.009 175.118 173.912C178.823 173.082 182.1 171.819 185.473 170.121C186.857 169.424 189.224 167.569 189.224 167.569C189.224 167.569 192.012 168.777 193.087 169.192C198.504 171.291 205.333 171.207 210.779 169.188C216.226 167.168 220.087 162.424 221.864 157.448C221.941 157.232 223.379 157.186 223.22 157.021C223.911 158.57 223.085 160.623 222.388 161.954Z" fill="black"/>
<path d="M176.125 175.253C174.592 177.148 174.288 179.644 173.937 182.057C173.347 186.109 172.734 191.098 172.871 195.137C173.081 201.263 174.441 206.431 175.647 212.524C176.026 214.444 176.393 216.59 175.327 218.231C174.181 219.996 171.635 220.274 169.537 220.415C166.175 220.639 162.982 220.602 159.683 219.914C157.946 219.551 156.069 218.943 155.154 217.422C153.957 215.427 155.08 212.671 157.019 211.382C158.957 210.093 161.423 209.936 163.748 210.026C164.807 210.067 166.735 210.214 166.735 210.214C166.735 210.214 166.749 207.942 166.653 207.373C165.851 202.619 165.192 197.722 165.085 192.905C164.942 186.403 164.403 179.423 165.68 173.17C165.744 172.859 165.926 172.799 166.163 172.587C166.512 172.275 167.259 172.44 167.505 172.837C167.751 173.236 167.745 173.683 167.732 174.151C167.432 185.569 167.771 197.106 169.046 208.457C169.201 209.841 169.723 211.638 168.542 212.373C167.481 213.032 165.658 212.206 164.411 212.122C163.565 212.065 161.768 212.097 160.889 212.309C159.838 212.561 158.246 213.171 157.086 214.432C156.693 214.859 156.776 215.578 156.947 216.132C157.082 216.57 157.511 216.795 157.922 217.003C161.268 218.699 171.024 218.042 172.126 217.524C172.626 217.287 173.202 217.295 173.446 216.775C173.852 215.907 173.476 213.878 173.387 212.939C172.96 208.441 171.494 204.043 170.95 199.602C170.724 197.748 170.758 195.788 170.581 193.909C170.279 190.734 170.79 187.432 171.149 184.263C171.508 181.093 172.241 177.889 173.389 174.618C173.431 174.501 173.762 174.271 173.967 174.207C174.443 174.058 174.997 174.831 175.261 174.749C175.643 174.63 175.976 174.985 176.125 175.253Z" fill="black"/>
<path d="M167.068 174.029C167.435 173.651 167.709 172.99 167.395 172.565C167.082 172.14 166.252 171.92 165.739 171.795C165.227 171.67 164.856 171.628 164.385 171.401C162.405 170.448 162.193 170.264 161.601 169.831C160.499 169.023 160.175 168.637 159.03 167.869C158.335 167.404 157.64 166.844 156.823 167.035C156.003 167.225 155.251 168.067 154.661 168.669C152.763 170.601 150.239 171.785 147.913 173.171C147.788 173.246 147.628 173.322 147.532 173.445C147.463 173.534 147.415 173.643 147.377 173.753C147.346 173.846 147.318 173.939 147.29 174.027C147.117 174.533 147.562 175.085 148.082 175.218C148.603 175.351 149.147 175.18 149.649 174.992C151.502 174.289 153.154 173.163 154.663 171.878C155.271 171.36 155.821 170.851 156.351 170.254C156.569 170.007 156.913 169.587 157.24 169.549C157.608 169.505 157.931 169.966 158.213 170.204C159.576 171.354 161.16 172.452 162.81 173.208C163.478 173.514 164.155 173.639 164.832 173.882C165.253 174.033 165.686 174.072 166.133 174.088C166.577 174.1 166.929 174.172 167.068 174.029Z" fill="black"/>
<path d="M149.346 173.789C148.949 173.384 147.821 172.965 147.445 173.582C147.356 173.731 147.07 174.224 147.011 174.394C146.877 174.78 146.893 175.332 146.879 175.705C146.866 176.11 146.804 176.517 146.796 176.926C146.576 187.171 148.083 198.193 151.25 208.315C151.695 209.736 152.451 211.472 151.566 212.669C150.823 213.672 149.836 214.046 148.72 214.361C147.602 214.677 146.619 214.715 145.46 214.663C142.42 214.53 139.832 214.476 136.822 214.028C136.139 213.926 134.9 213.587 134.62 212.955C134.266 212.155 134.989 211.804 135.694 211.285C136.907 210.392 138.815 210.102 140.251 209.645C141.717 209.178 142.829 208.98 144.649 208.692C145.273 208.593 145.932 208.557 146.401 208.301C146.681 208.148 146.83 207.882 147.04 207.566C147.433 206.972 147.022 205.698 146.913 204.995C146.439 201.952 146.252 198.513 145.797 195.594C145.38 192.917 145.283 190.427 144.937 187.965C144.435 184.381 143.738 180.858 143.532 176.916C143.508 176.46 143.172 175.135 143.172 175.135L142.126 175.268H141.23C141.23 175.268 141.182 176.388 141.22 176.692C142.306 185.393 143.541 194.395 144.626 203.096C144.759 204.155 144.808 206.581 144.808 206.581C144.808 206.581 142.562 206.929 141.578 207.161C140.416 207.435 139.193 207.902 137.989 208.18C136.655 208.487 135.295 208.916 134.121 209.522C133.247 209.973 132.556 210.582 132.376 211.547C132.161 212.697 132.231 214.038 133.184 214.715C134.294 215.503 135.569 215.888 136.885 216.22C138.257 216.565 140.047 216.78 141.401 216.907C143.873 217.137 146.429 217.086 149.044 216.651C150.595 216.393 151.691 215.853 152.573 215.144C153.337 214.53 153.98 213.841 154.167 212.493C154.298 211.543 153.796 209.091 153.546 208.261C153.24 207.246 152.904 205.795 152.519 204.756C152.13 203.708 152.017 202.546 151.685 201.474C150.795 198.599 150.412 195.745 149.926 192.755C148.899 186.48 148.74 180.04 149.346 173.789Z" fill="black"/>
<path d="M71.7038 133.148C69.5274 139.717 69.1203 146.328 72.4703 152.384C75.8182 158.441 83.0165 163.723 89.9228 164.146C92.687 164.314 95.5663 163.838 97.8856 162.321C98.6521 164.767 100.126 167.686 101.891 169.547C104.756 172.565 107.745 174.505 111.47 176.372C113.885 177.581 116.565 178.294 119.248 178.419C120.702 178.487 122.157 178.451 123.571 178.068C125.859 177.448 128.023 176.616 130.09 175.46C130.916 175 132.912 173.486 132.912 173.486C132.912 173.486 135.019 174.692 136.153 175.139C137.555 175.689 141.153 176.344 141.153 176.344C141.153 176.344 141.462 176.862 142.012 176.715C142.563 176.566 143.226 175.339 143.126 175.109C142.864 174.503 140.754 174.235 138.629 173.586C137.459 173.228 136.482 172.829 135.607 172.386C134.87 172.015 133.794 171.461 133.142 171.125C132.799 170.949 132.384 170.994 132.088 171.241C131.365 171.84 130.1 173.036 129.467 173.421C128.462 174.033 127.57 174.406 126.496 174.851C126.069 175.027 125.533 175.19 125.092 175.337C123.092 176 121.22 176.255 119.135 176.064C115.435 175.726 111.671 174.33 108.666 172.146C105.662 169.962 102.504 167.315 100.874 163.631C100.433 162.634 100.632 161.145 99.9448 160.234C99.8018 160.043 99.7363 159.771 99.5437 159.628C98.2053 158.643 96.8768 160.649 95.5563 161.185C92.3474 162.486 88.0284 161.874 84.8493 160.498C81.6701 159.122 78.9973 156.761 76.8051 154.08C73.9596 150.603 71.7812 146.236 72.2578 141.77C72.5417 139.114 73.338 136.395 74.0191 133.81C74.2296 133.009 74.7062 132.223 73.902 131.848C73.5346 131.677 73.0997 131.729 72.7582 131.945C72.2796 132.237 71.8507 132.708 71.7038 133.148Z" fill="black"/>
<path d="M20.8436 51.272C20.5934 51.8022 20.8377 52.4476 21.2269 52.8825C21.618 53.3193 22.1363 53.6172 22.5772 54.0004C23.3595 54.6796 23.6772 55.8074 24.126 56.7407C26.3481 61.3655 27.5792 66.7985 27.2158 71.9137C26.6102 80.4066 26.8425 86.5962 28.588 95.0613C29.0387 97.2456 30.6829 101.477 31.6599 103.463C32.2457 104.654 33.2822 106.445 34.2413 107.379C36.8565 109.917 39.2215 110.449 42.8038 111.118C48.7431 112.228 55.2245 112.697 61.0884 113.493C61.2969 113.521 61.5193 113.556 61.6682 113.705C61.8489 113.886 61.8608 114.17 61.8628 114.426C61.9621 122.049 65.9594 129.52 72.5123 133.716C72.8181 133.99 73.3602 133.817 73.5468 133.451C73.7355 133.086 73.6322 132.627 73.4019 132.286C73.1715 131.946 72.832 131.698 72.5083 131.446C67.1885 127.333 62.9986 118.654 64.4045 112.744C64.5852 111.984 63.779 111.483 63.507 111.446C60.1412 110.975 56.1816 110.546 52.7146 109.865C48.1176 109.011 41.5806 109.041 37.1723 106.769C35.0058 105.653 34.698 103.916 33.5602 101.908C31.7333 98.6833 30.6194 94.4497 30.0038 90.4326C29.1261 84.7018 29.3445 79.1159 29.6722 73.3275C29.9998 67.5391 30.0157 61.9692 26.8802 57.0942C26.1356 55.9365 28.0379 52.7752 27.0292 52.4595C25.6491 52.0286 22.2654 51.2085 20.8436 51.272Z" fill="black"/>
<path d="M83.5184 60.5297C85.2242 51.5879 87.0788 41.8022 88.7826 32.8605C88.9991 31.7207 89.2056 30.4856 88.6913 29.4451C87.9407 27.926 86.0284 27.4752 84.3584 27.1932C71.2268 24.9831 58.0971 22.773 44.9655 20.5649C39.6279 19.5462 34.3081 18.5196 28.9904 17.4949C28.4125 17.3837 27.785 17.2765 27.2568 17.5366C26.4963 17.91 26.256 18.8591 26.0991 19.6912C24.314 29.2048 22.5288 38.7184 20.7416 48.232C20.551 49.2487 20.3763 51.1213 20.7377 52.0903C21.0991 53.0593 22.2151 53.0276 23.1642 52.6145C23.2119 52.273 23.2536 51.8262 22.9736 51.6276C25.0507 40.9543 26.7107 30.5293 28.899 20.2074C46.4449 23.2655 63.965 26.6333 81.3798 29.9196C83.3218 30.2572 86.4454 30.8688 86.4454 30.8688C86.4454 30.8688 86.1734 32.4336 86.0979 33.1326C85.7683 36.135 84.8747 39.2724 84.41 42.257C83.3318 49.1772 81.8762 56.1849 80.5835 62.9642C82.2317 62.6425 83.2861 61.7509 83.5184 60.5297Z" fill="black"/>
<path d="M63.274 102.368C61.8065 97.8961 61.9912 92.9019 63.7823 88.5492C64.6779 86.3729 65.4722 83.4757 67.0727 81.5952C68.6732 79.7147 69.6124 79.2362 71.7391 78.2274C71.8881 78.1559 72.456 77.9315 73.0199 77.868C73.8599 77.7707 74.7535 77.8481 74.7535 77.8481C74.7535 77.8481 74.815 75.5367 74.815 75.3243C74.815 74.0613 75.3432 71.2873 75.5021 70.7809C77.0609 65.8384 77.883 65.4294 81.3977 61.7101C84.9125 57.9908 89.3506 54.7084 94.4996 54.3113C95.0218 54.2716 95.7009 54.2815 96.2053 54.4205C96.7097 54.5595 97.0592 55.0937 97.0115 55.747C96.94 56.7458 95.973 56.3109 94.9821 56.4598C90.1012 57.1926 84.6126 61.2832 81.3481 64.9866C78.0835 68.6899 77.0728 72.5701 76.9576 77.5046C76.9437 78.1222 77.2098 79.5698 76.8981 80.1019C76.4116 80.934 74.1021 80.0344 73.1887 80.3422C68.9373 81.7779 66.7371 86.214 65.5655 90.5469C64.6163 94.0596 64.6223 100.978 65.5238 103.724C65.7283 104.334 63.5897 101.939 63.274 102.368Z" fill="black"/>
<path d="M65.1225 103.977C64.3421 103.31 63.7067 102.474 63.2758 101.543C63.3572 101.525 63.4406 101.507 65.1225 103.977Z" fill="black"/>
<path d="M69.5922 71.0966C69.2427 70.9973 68.8475 71.1422 68.635 71.4341C68.4126 71.7082 68.1744 71.9683 67.9341 72.2265C66.4825 73.7694 65.2017 75.4652 63.9269 77.155C63.2696 77.991 62.6024 78.833 61.8617 79.798C60.8808 80.9518 59.9157 82.1174 59.0162 83.3366C58.8295 83.567 58.627 83.8013 58.6428 84.117C58.625 84.8895 59.6298 85.3104 60.1679 84.7485C61.2819 83.2195 62.2946 82.1035 63.7025 80.3203C65.2275 78.3921 66.417 76.7539 68.2657 74.5081C68.8773 73.8011 69.5663 73.1597 70.1263 72.4091C70.4262 71.9206 70.1442 71.2415 69.5922 71.0966Z" fill="black"/>
<path d="M54.5842 81.4074C53.1446 78.7823 51.8638 76.0738 50.4559 73.4308C50.0012 72.5908 49.6259 71.7111 49.2526 70.8334C48.774 69.8723 48.349 68.8874 47.9042 67.9105C47.5567 67.1876 46.4507 67.3008 46.2462 68.0773C46.1767 68.3592 46.2402 68.6293 46.3891 68.8735C46.5341 69.2051 46.691 69.5328 46.8359 69.8644C47.3502 71.028 47.9142 72.1698 48.4086 73.3434C49.7847 76.0241 51.1628 78.7049 52.535 81.3876C52.7693 81.7788 52.9142 82.2673 53.2717 82.5611C54.0223 83.1708 55.0747 82.2434 54.5842 81.4074Z" fill="black"/>
<path d="M48.7739 84.1169C48.198 84.1407 47.2925 83.8448 46.1765 83.5926C45.0288 83.3166 43.8453 83.1935 42.7194 82.8261C41.8655 82.5283 41.0037 82.2543 40.1598 81.9306C39.8262 81.7598 39.5065 81.5612 39.159 81.4183C38.9148 81.323 38.6626 81.1621 38.3925 81.2336C37.4394 81.3349 37.35 82.7229 38.2734 82.9731C38.2873 82.9791 38.3012 82.983 38.3151 82.989C38.6586 83.1379 38.9763 83.3345 39.3099 83.5033C40.2611 83.9044 41.2539 84.2003 42.2289 84.5458C43.1682 84.8615 44.1531 84.9807 45.1182 85.1911C45.98 85.3679 46.8259 85.6022 47.6837 85.7908C48.1484 85.8544 48.6686 86.0053 49.1194 85.8286C50.013 85.483 49.729 84.105 48.7739 84.1169Z" fill="black"/>
<path d="M60.6751 121.493C60.1469 120.782 59.5075 120.165 58.8978 119.527C58.3756 118.888 57.899 118.336 57.3172 117.748C56.3065 116.616 56.0166 116.225 55.258 115.222C55.0277 114.908 54.8092 114.589 54.5849 114.271C54.4677 114.072 54.2731 113.922 54.0507 113.86C53.3041 113.638 52.6329 114.505 53.0419 115.173C54.1579 116.777 55.3553 118.34 56.7394 119.724C57.484 120.675 58.3518 121.489 59.1342 122.405C59.2692 122.575 59.2513 122.538 59.577 123.006C59.712 123.231 59.9046 123.429 60.1647 123.495C60.7148 123.66 61.3026 123.205 61.2966 122.633C61.2946 122.174 60.9153 121.847 60.6751 121.493Z" fill="black"/>
<path d="M45.5712 117.135C45.4679 119.33 45.1224 121.506 45.0013 123.698C44.8941 124.965 44.8186 125.346 44.5366 126.836C44.3837 127.785 44.2487 128.738 43.9985 129.667C43.7721 130.416 44.6439 131.085 45.3111 130.676C45.6188 130.495 45.738 130.17 45.7995 129.836C45.8929 129.447 45.9723 129.054 46.0398 128.659C46.3099 126.931 46.707 125.217 46.8023 123.466C46.9334 121.351 47.259 119.252 47.3583 117.135C47.3305 115.962 45.6049 115.956 45.5712 117.135Z" fill="black"/>
<path d="M40.5392 112.723C39.3239 113.841 38.1027 114.953 36.8616 116.043C35.833 116.885 35.3187 117.233 34.0478 118.222C33.1701 118.929 32.346 119.697 31.4544 120.388C31.4227 120.41 31.381 120.442 31.3274 120.479C30.7654 120.914 29.6891 121.399 30.0724 122.267C30.2193 122.684 30.7098 122.894 31.1268 122.785C31.3671 122.723 31.5378 122.543 31.7225 122.386C32.2884 121.983 32.8484 121.574 33.3786 121.123C34.9116 119.802 35.5867 119.258 37.217 118.033C38.2119 117.294 39.1074 116.435 40.0268 115.604C40.4458 115.233 40.8648 114.864 41.2739 114.481C41.5102 114.224 41.8616 114.038 41.9887 113.702C42.3859 112.818 41.2203 112.038 40.5392 112.723Z" fill="black"/>
<path d="M67.2593 106.007C67.6385 106.426 67.5373 106.964 67.023 107.199C66.2783 107.536 66.0837 107.457 65.5813 107.246C64.7255 106.889 63.0475 105.751 62.0646 104.417C61.4033 103.519 60.8235 102.046 60.2993 100.453C59.5665 98.2272 58.945 95.7689 58.3672 94.3232C57.7814 92.8538 56.8481 91.4439 55.2853 91.1997C53.8198 90.9694 52.4239 91.8411 51.3436 92.8598C49.7253 94.3848 48.2638 95.9476 46.6454 97.4726C45.1879 98.8467 43.8038 100.91 42.0405 101.365C40.3765 101.796 39.1235 101.339 37.9539 100.078C36.7843 98.817 36.2322 96.8213 35.702 95.1851C35.1659 93.5349 34.5404 91.8609 34.1929 90.1691C33.1504 85.0956 33.0173 79.8671 32.5805 74.6824C32.3104 71.4655 31.9431 68.3737 31.8259 65.0735C31.6849 61.0802 33.1405 55.6115 31.9351 53.2544C34.8263 53.733 38.0015 54.2155 41.0218 54.7318C44.0441 55.2481 46.8003 55.8478 49.5664 56.0622C55.2277 56.4991 60.5733 57.8653 66.5007 58.7291C68.3891 59.0031 71.0242 59.7438 73.6474 60.1111C76.4155 60.5003 79.0287 60.8617 81.07 61.1497C82.186 61.3065 81.5724 63.5901 80.4584 63.3816C76.4433 62.633 73.0913 62.3173 69.1179 61.5766C63.8418 60.5937 59.0741 59.7815 53.798 59.1719C51.4449 58.8998 48.6033 58.2525 46.4687 58.0062C43.7661 57.6945 42.3582 57.3708 39.5782 56.9359C38.2795 56.7334 35.0348 56.3065 35.0348 56.3065C35.0348 56.3065 34.6099 58.878 34.5126 59.8947C34.3537 61.5587 34.2922 63.2009 34.3021 64.9881C34.3259 69.2911 34.7529 73.8623 35.1838 78.2607C35.4856 81.3465 35.5869 84.2218 36.1071 87.0038C36.5083 89.1544 36.8438 91.0051 37.3423 93.1656C37.5647 94.1267 38.1266 95.4194 38.6806 96.5532C39.2327 97.6871 39.7748 98.666 40.7041 98.9957C42.2172 99.5338 42.2986 98.4377 43.6152 97.2045C44.7868 96.1064 45.9643 94.8554 47.1935 93.4734C48.3789 92.1409 50.1026 90.9277 51.3774 89.9527C53.2996 88.4832 56.0359 88.7155 58.0197 89.8216C59.6003 90.7033 60.0173 92.0317 60.6289 93.7335C61.2465 95.4492 62.0507 98.4377 62.5074 99.8753C63.0197 101.488 63.4844 100.344 64.4038 101.684C65.2418 102.908 66.042 104.659 67.2593 106.007Z" fill="black"/>
</svg>
