<svg width="126" height="42" viewBox="0 0 126 42" fill="none" xmlns="http://www.w3.org/2000/svg">
<path d="M8.89192 41.0814C8.57111 41.0814 8.25805 41.0773 7.93975 41.0702C7.28037 41.0616 6.62254 41.0044 5.97164 40.899C5.36471 40.7947 4.77676 40.6008 4.22718 40.3237C3.68264 40.0488 3.18598 39.6884 2.75621 39.2562C2.32023 38.8292 1.95726 38.3338 1.68167 37.7899C1.40305 37.2424 1.21023 36.6556 1.10992 36.0498C1.0016 35.399 0.942991 34.7408 0.934605 34.0811C0.927929 33.8596 0.919189 33.1223 0.919189 33.1223V8.86675C0.919189 8.86675 0.928498 8.14077 0.934657 7.92748C0.942687 7.2688 1.00095 6.61168 1.10895 5.96181C1.20944 5.35441 1.40242 4.76588 1.68119 4.21661C1.95576 3.67304 2.31672 3.17735 2.75008 2.74876C3.18295 2.3161 3.6812 1.95383 4.22667 1.67517C4.77498 1.39889 5.36182 1.20636 5.96753 1.10403C6.62056 0.997523 7.28068 0.939941 7.94234 0.931766L8.89244 0.918945H117.102L118.064 0.93228C118.719 0.940049 119.374 0.997118 120.021 1.103C120.632 1.20662 121.225 1.40049 121.78 1.67824C122.873 2.23983 123.762 3.12832 124.323 4.21917C124.597 4.76465 124.787 5.34838 124.886 5.95053C124.996 6.60574 125.057 7.26802 125.069 7.93211C125.072 8.22947 125.072 8.54887 125.072 8.86675C125.081 9.2605 125.081 9.63528 125.081 10.0131V31.9882C125.081 32.3697 125.081 32.7419 125.072 33.1172C125.072 33.4587 125.072 33.7714 125.068 34.0934C125.056 34.7456 124.996 35.3961 124.888 36.0396C124.79 36.6497 124.598 37.2411 124.32 37.7931C124.042 38.3311 123.681 38.8221 123.25 39.248C122.82 39.6825 122.323 40.045 121.777 40.3217C121.224 40.601 120.632 40.7956 120.021 40.899C119.37 41.005 118.712 41.0622 118.052 41.0702C117.744 41.0773 117.421 41.0814 117.108 41.0814L115.966 41.0835L8.89192 41.0814Z" fill="white"/>
<path d="M26.3203 20.8828C26.3321 19.9714 26.5749 19.0778 27.026 18.2852C27.4772 17.4925 28.122 16.8265 28.9007 16.3492C28.406 15.6447 27.7535 15.065 26.9949 14.656C26.2363 14.2471 25.3925 14.0201 24.5305 13.9932C22.6918 13.8008 20.9093 15.0904 19.9723 15.0904C19.0172 15.0904 17.5746 14.0123 16.0211 14.0442C15.0163 14.0766 14.0371 14.3679 13.1787 14.8899C12.3204 15.4119 11.6124 16.1467 11.1235 17.0227C9.0059 20.6788 10.5854 26.0521 12.614 29.0074C13.6289 30.4546 14.815 32.0711 16.3671 32.0137C17.8858 31.9509 18.4531 31.048 20.2863 31.048C22.1026 31.048 22.6348 32.0137 24.2183 31.9773C25.8481 31.9509 26.8748 30.5237 27.8542 29.0629C28.5834 28.0317 29.1445 26.8921 29.5168 25.6862C28.5699 25.2869 27.762 24.6184 27.1935 23.7642C26.6251 22.91 26.3214 21.9079 26.3203 20.8828Z" fill="black"/>
<path d="M23.3292 12.0497C24.2178 10.9859 24.6556 9.61869 24.5496 8.23828C23.192 8.38047 21.938 9.02748 21.0374 10.0504C20.5971 10.5501 20.2599 11.1315 20.045 11.7612C19.8301 12.391 19.7418 13.0568 19.7851 13.7207C20.4642 13.7276 21.1359 13.5809 21.7498 13.2914C22.3637 13.002 22.9037 12.5774 23.3292 12.0497V12.0497Z" fill="black"/>
<path d="M44.5417 28.4961H39.5577L38.3608 32.0203H36.2498L40.9705 18.9814H43.1638L47.8846 32.0203H45.7376L44.5417 28.4961ZM40.0739 26.8698H44.0245L42.077 21.1502H42.0225L40.0739 26.8698Z" fill="black"/>
<path d="M58.08 27.268C58.08 30.2222 56.4944 32.1202 54.1016 32.1202C53.4955 32.1518 52.8927 32.0125 52.3622 31.7184C51.8317 31.4243 51.3951 30.9871 51.1022 30.457H51.0569V35.1656H49.1001V22.5143H50.9942V24.0955H51.0302C51.3365 23.5679 51.7806 23.133 52.3151 22.837C52.8496 22.5411 53.4546 22.3952 54.0656 22.4148C56.4852 22.4148 58.08 24.3221 58.08 27.268ZM56.0687 27.268C56.0687 25.3434 55.0713 24.078 53.5494 24.078C52.0543 24.078 51.0487 25.37 51.0487 27.268C51.0487 29.1835 52.0543 30.4662 53.5494 30.4662C55.0713 30.4662 56.0687 29.2101 56.0687 27.268H56.0687Z" fill="black"/>
<path d="M68.5729 27.268C68.5729 30.2222 66.9868 32.1202 64.5941 32.1202C63.9879 32.1518 63.3851 32.0125 62.8546 31.7184C62.3242 31.4243 61.8875 30.9871 61.5946 30.457H61.5493V35.1656H59.5925V22.5143H61.4866V24.0955H61.5226C61.8289 23.5679 62.273 23.133 62.8075 22.837C63.342 22.5411 63.947 22.3952 64.558 22.4148C66.9776 22.4148 68.5729 24.3221 68.5729 27.268ZM66.5611 27.268C66.5611 25.3434 65.5637 24.078 64.0419 24.078C62.5468 24.078 61.5411 25.37 61.5411 27.268C61.5411 29.1835 62.5468 30.4662 64.0419 30.4662C65.5637 30.4662 66.5611 29.2101 66.5611 27.268V27.268Z" fill="black"/>
<path d="M75.5065 28.388C75.6515 29.681 76.9112 30.53 78.6325 30.53C80.2818 30.53 81.4684 29.681 81.4684 28.5151C81.4684 27.503 80.7528 26.897 79.0582 26.4817L77.3636 26.0747C74.9626 25.4963 73.8479 24.3766 73.8479 22.5596C73.8479 20.3099 75.814 18.7646 78.6047 18.7646C81.3687 18.7646 83.2628 20.3099 83.3265 22.5596H81.3512C81.233 21.2584 80.1543 20.473 78.578 20.473C77.0016 20.473 75.923 21.2676 75.923 22.4243C75.923 23.3461 76.6119 23.8885 78.2972 24.3038L79.7378 24.6565C82.4206 25.2892 83.5342 26.3638 83.5342 28.271C83.5342 30.7104 81.5867 32.2382 78.4874 32.2382C75.5877 32.2382 73.6299 30.7463 73.5034 28.3879L75.5065 28.388Z" fill="black"/>
<path d="M87.7594 20.2646V22.5144H89.5722V24.0596H87.7594V29.3004C87.7594 30.1146 88.1224 30.4939 88.9193 30.4939C89.1345 30.4902 89.3493 30.4751 89.563 30.4488V31.9848C89.2047 32.0516 88.8405 32.0818 88.4761 32.0751C86.546 32.0751 85.7933 31.3522 85.7933 29.5085V24.0596H84.4072V22.5144H85.7933V20.2646H87.7594Z" fill="black"/>
<path d="M90.6211 27.2681C90.6211 24.277 92.3877 22.3975 95.1424 22.3975C97.9064 22.3975 99.6647 24.277 99.6647 27.2681C99.6647 30.2673 97.9156 32.1387 95.1424 32.1387C92.3702 32.1387 90.6211 30.2673 90.6211 27.2681ZM97.6709 27.2681C97.6709 25.2163 96.728 24.0053 95.1424 24.0053C93.5568 24.0053 92.6139 25.2255 92.6139 27.2681C92.6139 29.3281 93.5568 30.5298 95.1424 30.5298C96.728 30.5298 97.6709 29.3281 97.6709 27.2681H97.6709Z" fill="black"/>
<path d="M101.278 22.5142H103.144V24.1323H103.19C103.316 23.6269 103.613 23.1803 104.03 22.8675C104.448 22.5548 104.961 22.3949 105.483 22.4147C105.708 22.414 105.933 22.4384 106.153 22.4875V24.3127C105.868 24.226 105.571 24.1862 105.274 24.1948C104.99 24.1833 104.706 24.2333 104.443 24.3413C104.18 24.4494 103.944 24.6129 103.75 24.8207C103.556 25.0285 103.41 25.2756 103.321 25.5451C103.232 25.8146 103.203 26.1001 103.235 26.382V32.0206H101.278L101.278 22.5142Z" fill="black"/>
<path d="M115.175 29.2286C114.912 30.9543 113.227 32.1387 111.07 32.1387C108.297 32.1387 106.576 30.2858 106.576 27.3132C106.576 24.3313 108.306 22.3975 110.988 22.3975C113.625 22.3975 115.284 24.2042 115.284 27.0866V27.7551H108.551V27.873C108.52 28.2229 108.564 28.5754 108.68 28.907C108.796 29.2386 108.981 29.5418 109.224 29.7965C109.466 30.0512 109.761 30.2515 110.087 30.3841C110.413 30.5167 110.764 30.5786 111.115 30.5657C111.578 30.6089 112.042 30.5021 112.439 30.2612C112.835 30.0203 113.143 29.6581 113.317 29.2286L115.175 29.2286ZM108.56 26.3914H113.326C113.344 26.0768 113.296 25.762 113.186 25.4667C113.076 25.1714 112.905 24.9021 112.686 24.6755C112.466 24.449 112.202 24.2701 111.91 24.1502C111.618 24.0303 111.304 23.9718 110.988 23.9786C110.669 23.9767 110.353 24.0378 110.059 24.1582C109.764 24.2787 109.496 24.4562 109.27 24.6806C109.044 24.9049 108.865 25.1715 108.744 25.4652C108.622 25.7588 108.559 26.0736 108.56 26.3914V26.3914Z" fill="black"/>
<path d="M38.6834 11.8163H39.5235C39.6681 11.8342 39.8149 11.8221 39.9546 11.7807C40.0943 11.7393 40.2239 11.6694 40.3352 11.5756C40.4465 11.4818 40.5371 11.366 40.6012 11.2355C40.6654 11.105 40.7018 10.9627 40.7081 10.8175C40.7081 10.2397 40.2721 9.86648 39.5328 9.86648C39.3846 9.84583 39.2338 9.855 39.0893 9.89344C38.9447 9.93188 38.8093 9.99881 38.6912 10.0903C38.573 10.1818 38.4744 10.2959 38.4012 10.426C38.328 10.5561 38.2816 10.6995 38.2649 10.8478H37.3425C37.3584 10.5787 37.4297 10.3157 37.5519 10.0752C37.6741 9.83477 37.8446 9.62196 38.0529 9.45008C38.2612 9.27819 38.5027 9.15089 38.7624 9.07611C39.0221 9.00132 39.2945 8.98066 39.5626 9.0154C40.7996 9.0154 41.6706 9.706 41.6706 10.7001C41.6735 11.0332 41.5617 11.3571 41.354 11.6179C41.1463 11.8787 40.8552 12.0605 40.5292 12.1331V12.2069C40.9156 12.224 41.2795 12.393 41.5414 12.6769C41.8033 12.9608 41.9418 13.3365 41.9266 13.7219C41.898 13.999 41.8142 14.2676 41.6802 14.512C41.5461 14.7564 41.3645 14.9716 41.146 15.1451C40.9274 15.3186 40.6763 15.4468 40.4075 15.5223C40.1386 15.5977 39.8573 15.6189 39.5801 15.5846C39.3023 15.6223 39.0197 15.6039 38.7493 15.5305C38.4788 15.457 38.2259 15.33 38.0056 15.157C37.7854 14.984 37.6024 14.7686 37.4674 14.5235C37.3325 14.2784 37.2484 14.0088 37.2202 13.7307H38.157C38.2135 14.33 38.7657 14.7166 39.5801 14.7166C40.3945 14.7166 40.9261 14.2824 40.9261 13.6702C40.9261 13.0493 40.4253 12.6669 39.5503 12.6669H38.6834V11.8163Z" fill="black"/>
<path d="M42.991 14.0955C42.991 13.2444 43.6275 12.7538 44.7544 12.684L46.0388 12.6102V12.2021C46.0388 11.7028 45.7087 11.4208 45.0681 11.4208C44.5457 11.4208 44.1848 11.612 44.0799 11.9463H43.174C43.2696 11.1342 44.0367 10.6133 45.1123 10.6133C46.301 10.6133 46.9714 11.2034 46.9714 12.2021V15.4326H46.0696V14.7682H45.9956C45.8453 15.0065 45.6343 15.2008 45.3841 15.3312C45.1339 15.4616 44.8534 15.5235 44.5714 15.5105C44.3724 15.5312 44.1712 15.51 43.9809 15.4483C43.7905 15.3867 43.6153 15.286 43.4664 15.1527C43.3175 15.0194 43.1982 14.8564 43.1163 14.6743C43.0345 14.4922 42.9918 14.2951 42.991 14.0955ZM46.0388 13.6915V13.2962L44.8809 13.37C44.2279 13.4136 43.9318 13.6351 43.9318 14.0519C43.9318 14.4774 44.302 14.7251 44.811 14.7251C44.9601 14.7401 45.1108 14.7251 45.254 14.6809C45.3972 14.6367 45.5301 14.5643 45.6446 14.4678C45.7592 14.3714 45.8531 14.253 45.9208 14.1196C45.9885 13.9862 46.0286 13.8406 46.0388 13.6915Z" fill="black"/>
<path d="M49.4545 11.4896V15.4322H48.5188V10.7041H51.6407V11.4895L49.4545 11.4896Z" fill="black"/>
<path d="M57.3115 13.0669C57.3115 14.5691 56.5496 15.5109 55.3527 15.5109C55.0589 15.5309 54.7654 15.4668 54.5069 15.3261C54.2484 15.1854 54.0356 14.974 53.8936 14.7167H53.8195V17.0049H52.8838V10.7049H53.7846V11.4863H53.8545C53.9991 11.22 54.2147 10.9988 54.4774 10.8471C54.7402 10.6954 55.0399 10.619 55.3434 10.6265C56.5496 10.6264 57.3115 11.5642 57.3115 13.0669ZM56.3491 13.0669C56.3491 12.0681 55.875 11.4647 55.0822 11.4647C54.2946 11.4647 53.802 12.081 53.802 13.071C53.802 14.0564 54.2946 14.6732 55.0781 14.6732C55.875 14.6731 56.3491 14.0697 56.3491 13.0669Z" fill="black"/>
<path d="M58.5578 17.1256V16.3222C58.659 16.3351 58.7611 16.3409 58.8631 16.3396C59.0625 16.3544 59.2603 16.2952 59.4186 16.1734C59.5768 16.0516 59.6844 15.8758 59.7207 15.6798L59.7906 15.4496L58.0745 10.7041H59.0935L60.2822 14.4596H60.3562L61.5408 10.7041H62.5331L60.7655 15.6275C60.3604 16.778 59.912 17.1472 58.9455 17.1472C58.8673 17.1471 58.6452 17.1384 58.5578 17.1256Z" fill="black"/>
<path d="M63.2622 14.0908H64.1938C64.2853 14.5076 64.6771 14.725 65.2252 14.725C65.8483 14.725 66.2308 14.4512 66.2308 14.0257C66.2308 13.5699 65.8874 13.3525 65.2252 13.3525H64.5157V12.6275H65.2128C65.7784 12.6275 66.0663 12.4107 66.0663 12.0154C66.0663 11.6683 65.7876 11.4032 65.2128 11.4032C64.6894 11.4032 64.3069 11.6247 64.2462 11.998H63.3445C63.4119 11.5691 63.6454 11.1837 63.9948 10.9248C64.3442 10.6658 64.7816 10.5539 65.2128 10.6132C66.3398 10.6132 66.9845 11.1213 66.9845 11.92C66.9898 12.1425 66.9183 12.36 66.7821 12.5362C66.6458 12.7124 66.453 12.8366 66.236 12.888V12.9618C66.4944 12.9951 66.7316 13.1218 66.9026 13.3179C67.0736 13.514 67.1664 13.7658 67.1635 14.0257C67.1635 14.9245 66.3964 15.5192 65.2252 15.5192C64.1897 15.5191 63.3486 15.0459 63.2622 14.0908Z" fill="black"/>
<path d="M68.511 15.4322V10.7041H69.4385V13.9561H69.5125L71.6976 10.7041H72.6251V15.4322H71.6976V12.1627H71.6277L69.4385 15.4322L68.511 15.4322Z" fill="black"/>
<path d="M77.7344 11.4905H76.2413V15.4331H75.3046V11.4905H73.8115V10.7051H77.7344V11.4905Z" fill="black"/>
<path d="M82.775 14.1561C82.6475 14.5882 82.3718 14.9619 81.9961 15.2119C81.6204 15.4619 81.1685 15.5724 80.7195 15.524C80.4071 15.5322 80.0967 15.4725 79.8097 15.3491C79.5228 15.2257 79.2662 15.0415 79.0579 14.8093C78.8495 14.5771 78.6942 14.3025 78.603 14.0045C78.5117 13.7065 78.4865 13.3922 78.5293 13.0835C78.4877 12.7739 78.5133 12.459 78.6043 12.1601C78.6954 11.8612 78.8498 11.5853 79.0571 11.351C79.2644 11.1168 79.5197 10.9297 79.8058 10.8025C80.0919 10.6752 80.4021 10.6107 80.7154 10.6134C82.0346 10.6134 82.8315 11.5122 82.8315 12.9969V13.3225H79.4835V13.3748C79.4687 13.5483 79.4904 13.723 79.5473 13.8877C79.6043 14.0523 79.6951 14.2033 79.814 14.3309C79.933 14.4584 80.0773 14.5598 80.2379 14.6284C80.3984 14.697 80.5716 14.7314 80.7462 14.7293C80.9699 14.7559 81.1965 14.7157 81.3971 14.6136C81.5978 14.5115 81.7635 14.3523 81.8732 14.1561L82.775 14.1561ZM79.4835 12.6324H81.8773C81.8891 12.4738 81.8675 12.3144 81.8139 12.1646C81.7604 12.0148 81.676 11.8779 81.5662 11.7625C81.4564 11.6472 81.3236 11.556 81.1763 11.4949C81.0291 11.4338 80.8707 11.404 80.7112 11.4075C80.5493 11.4053 80.3887 11.4355 80.2387 11.4963C80.0887 11.5571 79.9524 11.6472 79.838 11.7614C79.7235 11.8756 79.6332 12.0115 79.5723 12.1611C79.5114 12.3107 79.4812 12.4709 79.4835 12.6324H79.4835Z" fill="black"/>
<path d="M86.7422 10.7041H88.88C89.8074 10.7041 90.3514 11.1727 90.3514 11.9064C90.3528 12.1391 90.2741 12.3654 90.1282 12.5472C89.9824 12.729 89.7784 12.8553 89.5504 12.9051V12.9789C89.8273 12.9964 90.0869 13.1192 90.2756 13.322C90.4642 13.5249 90.5676 13.7922 90.5642 14.0689C90.5642 14.8938 89.9421 15.4322 88.9015 15.4322H86.7422V10.7041ZM87.6697 11.4203V12.6446H88.5972C89.1627 12.6446 89.4332 12.4278 89.4332 12.0279C89.4332 11.6592 89.1977 11.4203 88.701 11.4203L87.6697 11.4203ZM87.6697 13.3306V14.716H88.7792C89.3324 14.716 89.6286 14.4724 89.6286 14.0254C89.6286 13.5521 89.2934 13.3307 88.662 13.3307L87.6697 13.3306Z" fill="black"/>
</svg>
