<svg width="141" height="42" viewBox="0 0 141 42" fill="none" xmlns="http://www.w3.org/2000/svg">
<path d="M135.778 41.8955H5.22222C2.35 41.8955 0 39.5448 0 36.6716V5.32835C0 2.45521 2.35 0.104465 5.22222 0.104465H135.778C138.65 0.104465 141 2.45521 141 5.32835V36.6716C141 39.5448 138.65 41.8955 135.778 41.8955Z" fill="white"/>
<path d="M111.689 31.4473H113.638V18.3864H111.689V31.4473ZM129.243 23.0912L127.009 28.7538H126.942L124.623 23.0912H122.524L126.001 31.0057L124.018 35.4081H126.052L131.41 23.0912H129.243ZM118.19 29.9639C117.551 29.9639 116.661 29.6447 116.661 28.8546C116.661 27.8465 117.771 27.4601 118.727 27.4601C119.585 27.4601 119.987 27.6449 120.508 27.8972C120.357 29.1068 119.315 29.9639 118.19 29.9639ZM118.425 22.8055C117.014 22.8055 115.553 23.4274 114.949 24.8053L116.678 25.5276C117.048 24.8053 117.736 24.5698 118.459 24.5698C119.467 24.5698 120.491 25.175 120.508 26.2504V26.3847C120.155 26.183 119.4 25.8807 118.476 25.8807C116.611 25.8807 114.712 26.9054 114.712 28.8211C114.712 30.5687 116.242 31.6946 117.954 31.6946C119.265 31.6946 119.987 31.1065 120.441 30.4177H120.508V31.4257H122.389V26.4181C122.389 24.0996 120.66 22.8055 118.425 22.8055ZM106.381 24.6812H103.609V20.2042H106.381C107.838 20.2042 108.665 21.4109 108.665 22.4426C108.665 23.4548 107.838 24.6812 106.381 24.6812ZM106.331 18.3864H101.661V31.4473H103.609V26.499H106.331C108.491 26.499 110.614 24.9346 110.614 22.4426C110.614 19.9507 108.491 18.3864 106.331 18.3864ZM80.8662 29.9663C79.5198 29.9663 78.3925 28.8386 78.3925 27.2899C78.3925 25.7248 79.5198 24.58 80.8662 24.58C82.1955 24.58 83.2387 25.7248 83.2387 27.2899C83.2387 28.8386 82.1955 29.9663 80.8662 29.9663ZM83.104 23.8226H83.0367C82.5994 23.3009 81.7576 22.8296 80.6977 22.8296C78.4766 22.8296 76.4408 24.782 76.4408 27.2899C76.4408 29.781 78.4766 31.7167 80.6977 31.7167C81.7576 31.7167 82.5994 31.2453 83.0367 30.707H83.104V31.3465C83.104 33.0468 82.1955 33.9556 80.7316 33.9556C79.5369 33.9556 78.7965 33.0969 78.4933 32.3733L76.7941 33.0802C77.2821 34.2584 78.5778 35.7061 80.7316 35.7061C83.02 35.7061 84.955 34.3592 84.955 31.0772V23.0989H83.104V23.8226ZM86.301 31.4473H88.2528V18.386H86.301V31.4473ZM91.1303 27.1385C91.0797 25.4215 92.4595 24.5465 93.4522 24.5465C94.2267 24.5465 94.8826 24.9334 95.1009 25.4893L91.1303 27.1385ZM97.1877 25.6574C96.818 24.664 95.69 22.8296 93.3848 22.8296C91.0964 22.8296 89.1952 24.6306 89.1952 27.2731C89.1952 29.7643 91.0797 31.7167 93.6035 31.7167C95.6399 31.7167 96.818 30.4711 97.3058 29.7475L95.7913 28.7374C95.2868 29.4781 94.5965 29.9663 93.6035 29.9663C92.6109 29.9663 91.9043 29.5117 91.4498 28.6199L97.3893 26.1622L97.1877 25.6574ZM49.8658 24.193V26.0781H54.3752C54.2406 27.1385 53.8873 27.9127 53.3487 28.4513C52.6927 29.108 51.6662 29.8316 49.8658 29.8316C47.0894 29.8316 44.9189 27.5931 44.9189 24.8158C44.9189 22.0386 47.0894 19.7998 49.8658 19.7998C51.3635 19.7998 52.4569 20.389 53.2647 21.1465L54.5939 19.8169C53.4667 18.7394 51.9689 17.9147 49.8658 17.9147C46.0629 17.9147 42.866 21.0118 42.866 24.8158C42.866 28.6199 46.0629 31.7167 49.8658 31.7167C51.9188 31.7167 53.4667 31.0437 54.678 29.781C55.9232 28.5354 56.3104 26.785 56.3104 25.3713C56.3104 24.9334 56.2768 24.5298 56.2092 24.193H49.8658ZM61.4371 29.9663C60.0907 29.9663 58.9296 28.8554 58.9296 27.2731C58.9296 25.6741 60.0907 24.58 61.4371 24.58C62.783 24.58 63.9441 25.6741 63.9441 27.2731C63.9441 28.8554 62.783 29.9663 61.4371 29.9663ZM61.4371 22.8296C58.9802 22.8296 56.9778 24.6979 56.9778 27.2731C56.9778 29.8316 58.9802 31.7167 61.4371 31.7167C63.8936 31.7167 65.896 29.8316 65.896 27.2731C65.896 24.6979 63.8936 22.8296 61.4371 22.8296ZM71.1643 29.9663C69.8184 29.9663 68.6572 28.8554 68.6572 27.2731C68.6572 25.6741 69.8184 24.58 71.1643 24.58C72.5102 24.58 73.6713 25.6741 73.6713 27.2731C73.6713 28.8554 72.5102 29.9663 71.1643 29.9663ZM71.1643 22.8296C68.7074 22.8296 66.7054 24.6979 66.7054 27.2731C66.7054 29.8316 68.7074 31.7167 71.1643 31.7167C73.6208 31.7167 75.6232 29.8316 75.6232 27.2731C75.6232 24.6979 73.6208 22.8296 71.1643 22.8296Z" fill="black"/>
<path d="M10.977 33.9443L10.8994 33.8701C10.5955 33.5484 10.416 33.0489 10.416 32.402V32.5543V9.448C10.416 9.44591 10.416 9.44434 10.416 9.44267C10.416 9.44465 10.416 9.44632 10.416 9.44841V9.60106C10.416 8.90064 10.6252 8.37303 10.9757 8.05667L23.9162 21.0009L10.977 33.9443ZM10.416 9.44142C10.416 9.38385 10.4176 9.32795 10.4205 9.27289C10.4176 9.32753 10.416 9.38385 10.416 9.44142ZM10.4205 9.27039C10.4205 9.26966 10.4205 9.26882 10.4208 9.26798C10.4205 9.26882 10.4205 9.26966 10.4205 9.27039ZM10.4208 9.26307C10.4208 9.26265 10.4208 9.26224 10.4208 9.26182C10.4208 9.26224 10.4208 9.26265 10.4208 9.26307Z" fill="url(#paint0_linear_558_229)"/>
<path d="M28.2291 25.4707L28.3275 25.4148L33.4378 22.5102C33.9251 22.2332 34.2498 21.8973 34.4118 21.5418C34.2502 21.8973 33.9254 22.2336 33.4378 22.5106L28.3275 25.4152L28.2291 25.4707ZM28.2303 25.3176L23.9163 21.0015L28.2299 16.686L33.4378 19.6457C34.0992 20.0216 34.4705 20.506 34.5325 21.001C34.5325 21.0015 34.5325 21.0023 34.5325 21.003C34.4705 21.4969 34.0992 21.9818 33.4378 22.3576L28.2303 25.3176Z" fill="url(#paint1_linear_558_229)"/>
<path d="M11.8992 34.4365C11.5378 34.4365 11.2223 34.319 10.9764 34.097L10.9768 34.0966C11.2228 34.3186 11.5386 34.4365 11.9001 34.4365C11.9314 34.4365 11.9633 34.4357 11.9955 34.4341C11.9628 34.4357 11.9306 34.4365 11.8992 34.4365ZM11.8997 34.2835C11.5382 34.2839 11.2228 34.1659 10.9768 33.9439V33.9436L23.916 21.0002L28.2301 25.3164L13.0697 33.9329C12.6503 34.1708 12.2529 34.2835 11.8997 34.2835ZM10.9731 34.0941C10.9503 34.0734 10.9278 34.0513 10.9058 34.0284L10.9731 34.0941Z" fill="url(#paint2_linear_558_229)"/>
<path d="M23.9163 21L10.9758 8.05575C11.2218 7.83415 11.5368 7.71662 11.8979 7.71662C12.252 7.71662 12.6498 7.82966 13.07 8.06797L28.2299 16.6846L23.9163 21ZM28.3275 16.5871L13.07 7.91543C12.6498 7.67702 12.252 7.56397 11.8979 7.56397C11.8962 7.56397 11.895 7.56397 11.8934 7.56397C11.8955 7.56397 11.897 7.56397 11.8995 7.56397C12.2529 7.56397 12.6502 7.6766 13.07 7.91502L28.3275 16.5871Z" fill="url(#paint3_linear_558_229)"/>
<path d="M11.9958 34.4346C12.3241 34.4158 12.6877 34.3027 13.07 34.086L28.229 25.4699L13.07 34.086C12.688 34.3031 12.3241 34.4158 11.9958 34.4346ZM10.9766 34.0974L10.9734 34.0946C10.9745 34.0954 10.9758 34.0966 10.9766 34.0974ZM10.906 34.0289L10.8994 34.0224V34.022C10.9019 34.0244 10.9039 34.0268 10.906 34.0289Z" fill="white"/>
<path d="M28.2288 25.4707L28.3271 25.4148L28.2288 25.4707Z" fill="url(#paint4_linear_558_229)"/>
<path d="M11.9001 34.4365C11.5386 34.4365 11.2227 34.3186 10.9768 34.0966L10.9764 34.097C10.9755 34.0961 10.9743 34.095 10.9731 34.0941L10.9058 34.0284C10.9037 34.0263 10.9017 34.0239 10.8992 34.0215L10.9768 33.9439C11.2227 34.1659 11.5382 34.2839 11.8996 34.2835C12.2529 34.2835 12.6503 34.1708 13.0697 33.9329L28.2301 25.3164L28.3272 25.4135L28.2288 25.4694L13.0697 34.0856C12.6875 34.3023 12.3239 34.4153 11.9955 34.4341C11.9633 34.4357 11.9314 34.4365 11.9001 34.4365Z" fill="url(#paint5_linear_558_229)"/>
<path d="M10.8994 34.0225C10.5955 33.7008 10.416 33.2013 10.416 32.5544V32.554C10.416 33.2013 10.5955 33.7004 10.8994 34.022V34.0225Z" fill="white"/>
<path d="M10.8991 34.0215C10.5952 33.6998 10.4158 33.2007 10.4158 32.5535V32.4012C10.4158 33.0481 10.5952 33.5476 10.8991 33.8693L10.9767 33.9435L10.8991 34.0215Z" fill="url(#paint6_linear_558_229)"/>
<path d="M10.8992 34.0215L10.9768 33.9435V33.9439L10.8992 34.0215Z" fill="url(#paint7_linear_558_229)"/>
<path d="M34.4116 21.541C34.4919 21.3647 34.5324 21.1835 34.5324 21.0022C34.5324 21.0019 34.5324 21.0015 34.5324 21.0015C34.5324 21.1831 34.4919 21.3642 34.4116 21.541Z" fill="white"/>
<path d="M28.3274 25.4141L28.2302 25.3169L33.4377 22.3568C34.0991 21.981 34.4704 21.4961 34.5324 21.0023C34.5324 21.1836 34.492 21.3647 34.4117 21.5411C34.2497 21.8965 33.925 22.2324 33.4377 22.5095L28.3274 25.4141Z" fill="url(#paint8_linear_558_229)"/>
<path d="M34.5324 21.001V21.0006C34.532 20.454 34.1668 19.9076 33.4377 19.4929L28.3273 16.5884H28.3269L28.3273 16.5881L33.4377 19.4925C34.1677 19.9072 34.5332 20.4545 34.5324 21.001Z" fill="#404040"/>
<path d="M34.5326 21.001C34.4705 20.506 34.0992 20.0215 33.4379 19.6456L28.23 16.6859L28.3271 16.5888H28.3275L33.4379 19.4934C34.167 19.908 34.5322 20.4545 34.5326 21.001Z" fill="url(#paint9_linear_558_229)"/>
<path d="M10.416 9.44238C10.416 9.44196 10.416 9.44155 10.416 9.44113C10.416 9.44155 10.416 9.44196 10.416 9.44238ZM10.4205 9.27261C10.4205 9.27177 10.4205 9.27094 10.4205 9.2701C10.4205 9.27094 10.4205 9.27177 10.4205 9.27261ZM10.4208 9.2677C10.4208 9.26603 10.4208 9.26446 10.4208 9.26279C10.4208 9.26446 10.4208 9.26603 10.4208 9.2677ZM10.4208 9.26153C10.4813 8.18824 11.0647 7.56827 11.89 7.56461C11.5322 7.5667 11.2205 7.68424 10.9766 7.90416V7.90374L10.9736 7.90667C10.9479 7.92986 10.9235 7.95441 10.8994 7.9797C10.6252 8.26983 10.4523 8.70446 10.4208 9.26153Z" fill="#404040"/>
<path d="M10.4158 9.60059V9.44794C10.4158 9.44585 10.4158 9.44418 10.4158 9.4422C10.4158 9.44178 10.4158 9.44136 10.4158 9.44095C10.4158 9.38338 10.4173 9.32706 10.4203 9.27242C10.4203 9.27159 10.4203 9.27075 10.4203 9.26992C10.4203 9.26918 10.4203 9.26835 10.4206 9.26751C10.4206 9.26584 10.4206 9.26427 10.4206 9.2626C10.4206 9.26218 10.4206 9.26177 10.4206 9.26135C10.452 8.70427 10.625 8.26964 10.8991 7.97951L10.9755 8.0562C10.625 8.37256 10.4158 8.90017 10.4158 9.60059ZM10.9734 7.90648L10.9763 7.90356C10.9755 7.90481 10.9742 7.90564 10.9734 7.90648Z" fill="url(#paint10_linear_558_229)"/>
<path d="M28.2296 16.6846L13.0697 8.06799C12.6494 7.82968 12.2517 7.71663 11.8976 7.71663C11.5365 7.71663 11.2215 7.83417 10.9755 8.05577L10.8992 7.97908C10.9233 7.95379 10.9477 7.92924 10.9734 7.90605C10.9743 7.90521 10.9755 7.90438 10.9764 7.90354C11.2203 7.68362 11.532 7.56608 11.8898 7.56399C11.8907 7.56399 11.8918 7.56399 11.8931 7.56399C11.8947 7.56399 11.8959 7.56399 11.8976 7.56399C12.2517 7.56399 12.6494 7.67703 13.0697 7.91545L28.3272 16.5871L28.3268 16.5874L28.2296 16.6846Z" fill="url(#paint11_linear_558_229)"/>
<path d="M45.4297 10.5172C45.4419 11.5089 45.2433 12.3087 44.8352 12.9161H48.0032V8.18763H45.4297V10.5172ZM43.9854 15.0166H43.2156V12.9161H43.8284C44.3709 12.4483 44.6361 11.6493 44.6252 10.5172V7.41753H48.809V12.9161H49.5088V15.0166H48.7385V13.6862H43.9854V15.0166Z" fill="black"/>
<path d="M45.4297 10.5172L45.3252 10.5184L45.326 10.6029C45.3256 11.5412 45.1298 12.2905 44.7483 12.8577L44.639 13.0206H48.1076V8.08317H45.3252V10.518V10.5184L45.4297 10.5172H45.5341V8.29212H47.8987V12.8116H44.8352V12.9161L44.9217 12.9741C45.3325 12.3627 45.5349 11.5693 45.5349 10.6029L45.5341 10.5159L45.4297 10.5172H45.5341H45.4297ZM43.9854 15.0166V14.9121H43.32V13.0206H43.8283H43.8671L43.8964 12.9953C44.461 12.508 44.73 11.6962 44.73 10.5857L44.7296 10.5163V10.5172V7.52202H48.7045V13.0206H49.4043V14.9121H48.8429V13.6862V13.5817H43.8809V15.0166H43.9854V14.9121V15.0166H44.0898V13.7907H48.634V15.0166V15.1211H49.5087H49.6132V12.8116H48.9134V7.31306H44.5207V10.5176V10.518L44.5211 10.5857C44.5207 11.6669 44.2587 12.4084 43.7601 12.8365L43.8283 12.9161V12.8116H43.2155H43.1111V15.1211H43.9854H44.0898V15.0166H43.9854Z" fill="black"/>
<path d="M51.7882 12.3513C52.2524 12.821 52.8196 13.0556 53.4907 13.0556C54.1618 13.0556 54.7298 12.821 55.1928 12.3513C55.6571 11.8815 55.8896 11.2811 55.8896 10.5518C55.8896 9.82259 55.6571 9.22216 55.1928 8.75243C54.7298 8.28269 54.1618 8.04804 53.4907 8.04804C52.8196 8.04804 52.2524 8.28269 51.7882 8.75243C51.3251 9.22216 51.0926 9.82259 51.0926 10.5518C51.0926 11.2811 51.3251 11.8815 51.7882 12.3513ZM55.7885 12.8761C55.1724 13.5098 54.4066 13.8262 53.4907 13.8262C52.5748 13.8262 51.8086 13.5098 51.1937 12.8761C50.5777 12.243 50.2705 11.4681 50.2705 10.5518C50.2705 9.63557 50.5777 8.86056 51.1937 8.22763C51.8086 7.59377 52.5748 7.2771 53.4907 7.2771C54.4013 7.2771 55.1655 7.59544 55.7843 8.23171C56.4024 8.86798 56.7117 9.64132 56.7117 10.5518C56.7117 11.4681 56.4037 12.243 55.7885 12.8761Z" fill="black"/>
<path d="M51.7881 12.3513L51.7139 12.4247C52.1949 12.9133 52.795 13.1614 53.4907 13.1601C54.1859 13.1614 54.7873 12.9133 55.267 12.4247C55.7513 11.9358 55.9949 11.3032 55.994 10.5519C55.9949 9.80056 55.7513 9.16795 55.267 8.67899C54.7873 8.19045 54.1859 7.94232 53.4907 7.94357C52.795 7.94232 52.1949 8.19045 51.7139 8.67899C51.2308 9.16795 50.9873 9.80056 50.9881 10.5519C50.9873 11.3032 51.2308 11.9358 51.7139 12.4247L51.7881 12.3513L51.8628 12.2778C51.4197 11.8268 51.1981 11.2595 51.197 10.5519C51.1981 9.84423 51.4197 9.27692 51.8628 8.82589H51.8624C52.3095 8.37496 52.8436 8.15378 53.4907 8.15253C54.1373 8.15378 54.6726 8.37496 55.1185 8.82589L55.1201 8.82756L55.1185 8.82589C55.5628 9.27692 55.784 9.84423 55.7851 10.5519C55.784 11.2595 55.5628 11.8268 55.1185 12.2778C54.6726 12.7288 54.1373 12.9499 53.4907 12.9512C52.8436 12.9499 52.3095 12.7288 51.8624 12.2778L51.7881 12.3513ZM55.7885 12.8761L55.7138 12.8035C55.1152 13.4173 54.3826 13.7205 53.4907 13.7217C52.5984 13.7205 51.8661 13.4173 51.2683 12.8035C50.671 12.1876 50.3761 11.4448 50.3749 10.5519C50.3761 9.65889 50.671 8.91616 51.2683 8.30026C51.8661 7.68645 52.5984 7.38284 53.4907 7.38159C54.3772 7.38284 55.1079 7.68771 55.7097 8.30475C56.3094 8.92347 56.6061 9.66505 56.6072 10.5519C56.6061 11.4448 56.3103 12.1876 55.7138 12.8035L55.7885 12.8761L55.8635 12.9487C56.4967 12.2982 56.8169 11.4913 56.8161 10.5519C56.8169 9.61772 56.4959 8.81251 55.8594 8.15911C55.2229 7.5032 54.4258 7.17148 53.4907 7.17263C52.5507 7.17148 51.751 7.50163 51.1187 8.15504V8.15462C50.4842 8.80551 50.1652 9.61239 50.166 10.5519C50.1652 11.4913 50.4842 12.2982 51.1187 12.9491V12.9487C51.751 13.6021 52.5507 13.9315 53.4907 13.9307C54.4303 13.9315 55.2299 13.6021 55.8635 12.9487L55.7885 12.8761Z" fill="black"/>
<path d="M60.765 13.8262C59.843 13.8262 59.0699 13.514 58.4456 12.8891C57.8202 12.2648 57.5093 11.4856 57.5093 10.5518C57.5093 9.61802 57.8202 8.83893 58.4456 8.21457C59.0699 7.58969 59.843 7.2771 60.765 7.2771C61.7095 7.2771 62.4774 7.61874 63.0669 8.3015L62.5059 8.84468C62.0808 8.31331 61.4994 8.04804 60.765 8.04804C60.0816 8.04804 59.5051 8.27862 59.0359 8.73978C58.5659 9.20095 58.3314 9.80504 58.3314 10.5518C58.3314 11.2986 58.5659 11.9032 59.0359 12.3639C59.5051 12.8251 60.0816 13.0556 60.765 13.0556C61.5178 13.0556 62.1591 12.7524 62.6907 12.1455L63.2505 12.7054C62.9641 13.0499 62.6059 13.3229 62.1734 13.5237C61.7421 13.7254 61.2718 13.8262 60.765 13.8262Z" fill="black"/>
<path d="M60.765 13.8262V13.7217C59.8662 13.7205 59.1257 13.4205 58.5194 12.8153C57.9135 12.2092 57.6145 11.4624 57.6137 10.5519C57.6145 9.64134 57.9135 8.89453 58.5194 8.28846C59.1257 7.6828 59.8662 7.38284 60.765 7.38159C61.6846 7.38326 62.4157 7.70892 62.9877 8.36963L63.0668 8.30151L62.9942 8.2264L62.4333 8.76999L62.5059 8.84469L62.5874 8.7794C62.1444 8.22357 61.5239 7.94201 60.765 7.94357C60.0579 7.94274 59.4496 8.18565 58.9629 8.6651C58.4713 9.14632 58.2256 9.78374 58.2269 10.5519C58.2256 11.32 58.4713 11.9582 58.9629 12.4386C59.4496 12.9181 60.0579 13.161 60.765 13.1601C61.5462 13.1614 62.2231 12.8405 62.769 12.2145L62.6906 12.1456L62.6168 12.2194L63.1766 12.7793L63.2505 12.7055L63.17 12.639C62.8935 12.9711 62.5491 13.234 62.1292 13.4291C61.7119 13.6241 61.2583 13.7213 60.765 13.7217V13.8262V13.9307C61.2855 13.9307 61.7719 13.827 62.2174 13.6185C62.6629 13.4119 63.0342 13.1291 63.3308 12.7724L63.3916 12.6994L62.7646 12.0717L62.6854 11.9925L62.612 12.0766C62.0954 12.6647 61.4892 12.9499 60.765 12.9512C60.1049 12.9499 59.561 12.732 59.1093 12.2892H59.109C58.6602 11.8484 58.4366 11.2775 58.4358 10.5519C58.4366 9.82626 58.6602 9.25613 59.109 8.8145H59.1093C59.561 8.37172 60.1049 8.15378 60.765 8.15253C61.4745 8.1542 62.0166 8.40317 62.4243 8.90999L62.496 8.99984L63.1394 8.37663L63.2104 8.30799L63.146 8.23339C62.5393 7.52817 61.7343 7.17149 60.765 7.17264C59.8192 7.1718 59.0134 7.49714 58.3717 8.14072C57.7267 8.78305 57.4035 9.59526 57.4048 10.5519C57.4035 11.5085 57.7267 12.3207 58.3717 12.9634C59.0134 13.6066 59.8192 13.9315 60.765 13.9307V13.8262Z" fill="black"/>
<path d="M66.5074 13.6865H65.7017V8.18797H63.9514V7.41786H68.2577V8.18797H66.5074V13.6865Z" fill="black"/>
<path d="M66.5073 13.6865V13.5821H65.8061V8.08351H64.0558V7.52236H68.1532V8.08351H66.4029V13.6865H66.5073V13.5821V13.6865H66.6118V8.29246H68.3621V7.41788V7.3134H63.8469V8.18799V8.29246H65.5972V13.791H66.5073H66.6118V13.6865H66.5073Z" fill="black"/>
<path d="M73.7864 7.41752L71.4152 12.7054C71.0876 13.4528 70.6017 13.8262 69.9538 13.8262C69.7612 13.8262 69.5539 13.7797 69.3316 13.6862L69.5417 12.9418C69.6763 13.018 69.8163 13.0556 69.962 13.0556C70.1488 13.0556 70.2936 13.0193 70.3956 12.9467C70.4977 12.8736 70.5923 12.7401 70.68 12.5479L70.9076 12.0484L68.7983 7.41752H69.7437L71.2928 11.0158H71.3275L72.8407 7.41752H73.7864Z" fill="black"/>
<path d="M73.7865 7.41751L73.691 7.37468L71.3198 12.663L71.3194 12.6639C70.9971 13.3882 70.5568 13.718 69.9539 13.7217C69.778 13.7217 69.5846 13.6793 69.372 13.5898L69.3317 13.6862L69.4324 13.7147L69.6421 12.9703L69.5417 12.9418L69.4908 13.0328C69.6393 13.1169 69.7979 13.1605 69.962 13.1601C70.1615 13.1601 70.3287 13.1222 70.4565 13.0315C70.5821 12.9405 70.6829 12.7924 70.7751 12.5916L71.0028 12.092L71.0223 12.0484L68.9608 7.52199H69.6752L71.2239 11.1203H71.3275H71.3969L72.9101 7.52199H73.7865V7.41751L73.691 7.37468L73.7865 7.41751V7.31304H72.8407H72.7714L71.2308 10.9755L71.3275 11.0158V10.9113H71.2928V11.0158L71.3887 10.9747L69.8127 7.31304H68.7984H68.636L70.7927 12.0484L70.585 12.5046C70.5022 12.6879 70.4132 12.8063 70.3349 12.8613C70.2586 12.9165 70.1358 12.9516 69.962 12.9512C69.8343 12.9512 69.714 12.9189 69.5931 12.8508L69.4773 12.7855L69.2313 13.6576L69.2059 13.7466L69.2913 13.7825C69.5234 13.88 69.7441 13.9306 69.9539 13.9306C70.6461 13.9339 71.1782 13.5168 71.5107 12.7475L71.5103 12.7483L73.9476 7.31304H73.7865V7.41751Z" fill="black"/>
<path d="M74.6982 13.6865V7.41786H79.2322V13.6865H78.4265V8.18797H75.5028V13.6865H74.6982Z" fill="black"/>
<path d="M74.6982 13.6865H74.8026V7.52236H79.1274V13.5821H78.5309V8.08351H75.3983V13.5821H74.6982V13.6865H74.8026H74.6982V13.791H75.5027H75.6072V8.29246H78.322V13.791H79.2321H79.3366V7.3134H74.5938V13.791H74.6982V13.6865Z" fill="black"/>
<path d="M80.667 13.6865V7.41786H81.4719V10.1053H84.6053V7.41786H85.4111V13.6865H84.6053V10.8583H81.4719V13.6865H80.667Z" fill="black"/>
<path d="M80.6669 13.6865H80.7714V7.52236H81.3675V10.2098H84.7097V7.52236H85.3066V13.5821H84.7097V10.7539H81.3675V13.5821H80.6669V13.6865H80.7714H80.6669V13.791H81.4719H81.5763V10.9628H84.5008V13.791H85.411H85.5155V7.3134H84.6052H84.5008V10.0009H81.5763V7.3134H80.6669H80.5625V13.791H80.6669V13.6865Z" fill="black"/>
<path d="M87.9708 12.3513C88.4352 12.821 89.0022 13.0556 89.6733 13.0556C90.3445 13.0556 90.9125 12.821 91.3755 12.3513C91.8397 11.8815 92.0723 11.2811 92.0723 10.5518C92.0723 9.82259 91.8397 9.22216 91.3755 8.75243C90.9125 8.28269 90.3445 8.04804 89.6733 8.04804C89.0022 8.04804 88.4352 8.28269 87.9708 8.75243C87.5082 9.22216 87.2752 9.82259 87.2752 10.5518C87.2752 11.2811 87.5082 11.8815 87.9708 12.3513ZM91.9711 12.8761C91.3555 13.5098 90.5893 13.8262 89.6733 13.8262C88.7575 13.8262 87.9917 13.5098 87.3764 12.8761C86.7604 12.243 86.4531 11.4681 86.4531 10.5518C86.4531 9.63557 86.7604 8.86056 87.3764 8.22763C87.9917 7.59377 88.7575 7.2771 89.6733 7.2771C90.5844 7.2771 91.3481 7.59544 91.967 8.23171C92.5852 8.86798 92.8944 9.64132 92.8944 10.5518C92.8944 11.4681 92.5864 12.243 91.9711 12.8761Z" fill="black"/>
<path d="M87.9708 12.3513L87.8966 12.4247C88.378 12.9133 88.9777 13.1614 89.6733 13.1601C90.3689 13.1614 90.9699 12.9133 91.4501 12.4247C91.934 11.9358 92.1776 11.3032 92.1768 10.5519C92.1776 9.80056 91.934 9.16795 91.4501 8.67899C90.9699 8.19045 90.3689 7.94232 89.6733 7.94357C88.9777 7.94232 88.378 8.19045 87.8966 8.67899C87.4136 9.16795 87.1699 9.80056 87.1707 10.5519C87.1699 11.3032 87.4136 11.9358 87.8966 12.4247L87.9708 12.3513L88.0454 12.2778C87.6024 11.8268 87.3809 11.2595 87.3796 10.5519C87.3809 9.84423 87.6024 9.27692 88.0454 8.82589C88.4923 8.37496 89.0267 8.15378 89.6733 8.15253C90.32 8.15378 90.8553 8.37496 91.3012 8.82589L91.3044 8.82923L91.3012 8.82589C91.7455 9.27692 91.967 9.84423 91.9679 10.5519C91.967 11.2595 91.7455 11.8268 91.3012 12.2778C90.8553 12.7288 90.32 12.9499 89.6733 12.9512C89.0267 12.9499 88.4923 12.7288 88.0454 12.2778L87.9708 12.3513ZM91.9711 12.8761L91.8964 12.8035C91.298 13.4173 90.5652 13.7205 89.6733 13.7217C88.7815 13.7205 88.0488 13.4173 87.4515 12.8035L87.4482 12.8002L87.4515 12.8035C86.8537 12.1876 86.5588 11.4448 86.5575 10.5519C86.5588 9.65889 86.8537 8.91616 87.4515 8.30026C88.0488 7.68645 88.7815 7.38284 89.6733 7.38159C90.5599 7.38284 91.2906 7.68771 91.8924 8.30475C92.4922 8.92347 92.7891 9.66505 92.7899 10.5519C92.7891 11.4448 92.4929 12.1876 91.8964 12.8035L91.9711 12.8761L92.0462 12.9487C92.6798 12.2982 92.9997 11.4913 92.9988 10.5519C92.9997 9.61772 92.6786 8.81251 92.0421 8.15911C91.4056 7.5032 90.6084 7.17148 89.6733 7.17263C88.7333 7.17148 87.9341 7.50163 87.3013 8.15504V8.15462C86.6669 8.80551 86.3478 9.61239 86.3486 10.5519C86.3478 11.4913 86.6669 12.2982 87.3013 12.9491V12.9487C87.9341 13.6021 88.7333 13.9315 89.6733 13.9307C90.6133 13.9315 91.4126 13.6021 92.0462 12.9487L91.9711 12.8761Z" fill="black"/>
<path d="M96.9912 12.9164H98.6112C98.9203 12.9164 99.171 12.8083 99.3642 12.5916C99.5564 12.3765 99.6525 12.1397 99.6525 11.8826C99.6525 11.6259 99.5533 11.3913 99.3548 11.1782C99.1574 10.9652 98.8963 10.8583 98.5757 10.8583H96.9912V12.9164ZM96.9912 10.1053H98.4535C98.7574 10.1053 99.0007 10.0054 99.1846 9.8033C99.3684 9.60207 99.4603 9.38215 99.4603 9.14258C99.4603 8.90343 99.3715 8.68382 99.1929 8.48636C99.0154 8.28754 98.7804 8.18797 98.489 8.18797H96.9912V10.1053ZM96.187 13.6865V7.41786H98.4535C98.9433 7.41786 99.3684 7.58033 99.7266 7.90348C100.086 8.22798 100.266 8.63482 100.266 9.12503C100.266 9.42248 100.188 9.68534 100.033 9.9131C99.8791 10.1408 99.6734 10.313 99.4164 10.4297V10.4644C99.7245 10.5693 99.9794 10.7505 100.178 11.0072C100.375 11.2643 100.476 11.5623 100.476 11.9006C100.476 12.414 100.287 12.84 99.9105 13.1784C99.5345 13.5172 99.0895 13.6865 98.5757 13.6865H96.187Z" fill="black"/>
<path d="M96.9912 12.9164V13.0209H98.6111C98.9443 13.0222 99.2315 12.8997 99.4414 12.6613C99.6482 12.4316 99.7579 12.1663 99.7569 11.8826C99.7579 11.5987 99.6441 11.3345 99.431 11.1069C99.2148 10.8721 98.9192 10.7526 98.5756 10.7538H96.8867V13.0209H96.9912V12.9164H97.0956V10.9628H98.5756C98.8743 10.964 99.0989 11.0587 99.2785 11.2493C99.4623 11.4484 99.5469 11.6537 99.548 11.8826C99.5469 12.1132 99.4644 12.3214 99.2858 12.5221C99.1114 12.7165 98.8963 12.8103 98.6111 12.812H96.9912V12.9164H97.0956H96.9912ZM96.9912 10.1054V10.2098H98.4534C98.7793 10.211 99.0592 10.0984 99.2618 9.87352V9.87394C99.4592 9.6584 99.5647 9.40943 99.5647 9.1426C99.5647 8.87733 99.4634 8.62919 99.2702 8.41616V8.41658C99.0748 8.1953 98.8033 8.08225 98.4889 8.08351H96.8867V10.2098H96.9912V10.1054H97.0956V8.29246H98.4889C98.7573 8.29413 98.9558 8.3798 99.1145 8.55574L99.1156 8.55648L99.1145 8.55616C99.2785 8.739 99.3548 8.92998 99.3558 9.1426C99.3548 9.35437 99.2764 9.54619 99.1072 9.73269V9.7331C98.9422 9.91228 98.7344 9.99962 98.4534 10.0009H96.9912V10.1054H97.0956H96.9912ZM96.187 13.6865H96.2914V7.52236H98.4534C98.9203 7.52319 99.3151 7.67416 99.6566 7.98112C99.9961 8.2888 100.16 8.66064 100.161 9.12504C100.161 9.40463 100.089 9.64419 99.947 9.8543C99.8028 10.0666 99.6138 10.2249 99.3725 10.3347L99.3119 10.3625V10.4644V10.5391L99.3819 10.5632C99.6733 10.6629 99.9083 10.8301 100.095 11.0714L100.096 11.0725L100.095 11.0709C100.279 11.3109 100.371 11.5827 100.371 11.9006C100.37 12.3887 100.197 12.7793 99.8404 13.1009C99.4811 13.4229 99.0665 13.5812 98.5756 13.5821H96.187V13.6865H96.2914H96.187V13.791H98.5756C99.1125 13.7918 99.5866 13.6114 99.9804 13.256C100.377 12.9013 100.581 12.4397 100.58 11.9006C100.581 11.5419 100.472 11.2178 100.26 10.9436L100.259 10.9423L100.26 10.9432C100.05 10.6714 99.7767 10.4763 99.4498 10.3657L99.4164 10.4644H99.5208V10.4298H99.4164L99.4592 10.5248C99.7318 10.4012 99.9553 10.2155 100.119 9.97142V9.97184C100.286 9.72663 100.37 9.44046 100.37 9.12504C100.371 8.60955 100.177 8.16719 99.7966 7.82597L99.7945 7.82398L99.7966 7.82597C99.4206 7.486 98.9662 7.31257 98.4534 7.3134H96.0825V13.791H96.187V13.6865Z" fill="black"/>
<defs>
<linearGradient id="paint0_linear_558_229" x1="22.7688" y1="9.20425" x2="5.23481" y2="26.7326" gradientUnits="userSpaceOnUse">
<stop stop-color="#00A0FF"/>
<stop offset="0.00657445" stop-color="#00A1FF"/>
<stop offset="0.2601" stop-color="#00BEFF"/>
<stop offset="0.5122" stop-color="#00D2FF"/>
<stop offset="0.7604" stop-color="#00DFFF"/>
<stop offset="1" stop-color="#00E3FF"/>
</linearGradient>
<linearGradient id="paint1_linear_558_229" x1="35.3383" y1="21.0021" x2="10.0659" y2="21.0021" gradientUnits="userSpaceOnUse">
<stop stop-color="#FFE000"/>
<stop offset="0.4087" stop-color="#FFBD00"/>
<stop offset="0.7754" stop-color="#FFA500"/>
<stop offset="1" stop-color="#FF9C00"/>
</linearGradient>
<linearGradient id="paint2_linear_558_229" x1="25.9303" y1="23.3983" x2="2.15297" y2="47.168" gradientUnits="userSpaceOnUse">
<stop stop-color="#FF3A44"/>
<stop offset="1" stop-color="#C31162"/>
</linearGradient>
<linearGradient id="paint3_linear_558_229" x1="7.62181" y1="0.287735" x2="18.2393" y2="10.9019" gradientUnits="userSpaceOnUse">
<stop stop-color="#32A071"/>
<stop offset="0.0685" stop-color="#2DA771"/>
<stop offset="0.4762" stop-color="#15CF74"/>
<stop offset="0.8009" stop-color="#06E775"/>
<stop offset="1" stop-color="#00F076"/>
</linearGradient>
<linearGradient id="paint4_linear_558_229" x1="35.3376" y1="21.0023" x2="10.0666" y2="21.0023" gradientUnits="userSpaceOnUse">
<stop stop-color="#CCB300"/>
<stop offset="0.4087" stop-color="#CC9700"/>
<stop offset="0.7754" stop-color="#CC8400"/>
<stop offset="1" stop-color="#CC7D00"/>
</linearGradient>
<linearGradient id="paint5_linear_558_229" x1="25.9303" y1="23.3983" x2="2.15295" y2="47.168" gradientUnits="userSpaceOnUse">
<stop stop-color="#CC2E36"/>
<stop offset="1" stop-color="#9C0E4E"/>
</linearGradient>
<linearGradient id="paint6_linear_558_229" x1="22.7685" y1="9.20345" x2="5.23458" y2="26.7319" gradientUnits="userSpaceOnUse">
<stop stop-color="#008DE0"/>
<stop offset="0.00657445" stop-color="#008DE0"/>
<stop offset="0.2601" stop-color="#00A7E0"/>
<stop offset="0.5122" stop-color="#00B8E0"/>
<stop offset="0.7604" stop-color="#00C4E0"/>
<stop offset="1" stop-color="#00C7E0"/>
</linearGradient>
<linearGradient id="paint7_linear_558_229" x1="25.9308" y1="23.3985" x2="2.15412" y2="47.1691" gradientUnits="userSpaceOnUse">
<stop stop-color="#E0333C"/>
<stop offset="1" stop-color="#AB0F56"/>
</linearGradient>
<linearGradient id="paint8_linear_558_229" x1="35.3382" y1="21.0013" x2="10.0658" y2="21.0013" gradientUnits="userSpaceOnUse">
<stop stop-color="#E0C500"/>
<stop offset="0.4087" stop-color="#E0A600"/>
<stop offset="0.7754" stop-color="#E09100"/>
<stop offset="1" stop-color="#E08900"/>
</linearGradient>
<linearGradient id="paint9_linear_558_229" x1="35.3384" y1="21.002" x2="10.066" y2="21.002" gradientUnits="userSpaceOnUse">
<stop stop-color="#FFE840"/>
<stop offset="0.4087" stop-color="#FFCE40"/>
<stop offset="0.7754" stop-color="#FFBC40"/>
<stop offset="1" stop-color="#FFB540"/>
</linearGradient>
<linearGradient id="paint10_linear_558_229" x1="22.7685" y1="9.20378" x2="5.23457" y2="26.7322" gradientUnits="userSpaceOnUse">
<stop stop-color="#40B8FF"/>
<stop offset="0.00657445" stop-color="#40B9FF"/>
<stop offset="0.2601" stop-color="#40CEFF"/>
<stop offset="0.5122" stop-color="#40DDFF"/>
<stop offset="0.7604" stop-color="#40E7FF"/>
<stop offset="1" stop-color="#40EAFF"/>
</linearGradient>
<linearGradient id="paint11_linear_558_229" x1="7.62149" y1="0.28775" x2="18.239" y2="10.9019" gradientUnits="userSpaceOnUse">
<stop stop-color="#65B895"/>
<stop offset="0.0685" stop-color="#62BD95"/>
<stop offset="0.4762" stop-color="#50DB97"/>
<stop offset="0.8009" stop-color="#44ED98"/>
<stop offset="1" stop-color="#40F498"/>
</linearGradient>
</defs>
</svg>
